SplineFontDB: 3.0
FontName: ObliquayRegular
FullName: Obliquay Regular
FamilyName: Obliquay
Weight: Regular
Copyright: (c) Frank Sikernitsky, 2014-2017
Version: Version 1.4.067
ItalicAngle: 0
UnderlinePosition: -100
UnderlineWidth: 50
Ascent: 1050
Descent: 235
InvalidEm: 0
sfntRevision: 0x00010000
LayerCount: 2
Layer: 0 0 "Back" 1
Layer: 1 0 "Fore" 0
XUID: [1021 668 1240808111 15182958]
StyleMap: 0x0040
FSType: 0
OS2Version: 3
OS2_WeightWidthSlopeOnly: 0
OS2_UseTypoMetrics: 1
CreationTime: -2082844800
ModificationTime: 1519275699
PfmFamily: 81
TTFWeight: 400
TTFWidth: 5
LineGap: 0
VLineGap: 0
Panose: 0 0 0 0 0 0 0 0 0 0
OS2TypoAscent: 0
OS2TypoAOffset: 1
OS2TypoDescent: 0
OS2TypoDOffset: 1
OS2TypoLinegap: 0
OS2WinAscent: 0
OS2WinAOffset: 1
OS2WinDescent: 0
OS2WinDOffset: 1
HheadAscent: 0
HheadAOffset: 1
HheadDescent: 0
HheadDOffset: 1
OS2SubXSize: 650
OS2SubYSize: 699
OS2SubXOff: 0
OS2SubYOff: 140
OS2SupXSize: 650
OS2SupYSize: 699
OS2SupXOff: 0
OS2SupYOff: 479
OS2StrikeYSize: 49
OS2StrikeYPos: 258
OS2Vendor: 'XXXX'
OS2CodePages: 00000001.00000000
OS2UnicodeRanges: a000003f.5000004f.00000000.00000000
Lookup: 258 0 0 "'kern' Horizontal Kerning in Latin lookup 1" { "'kern' Horizontal Kerning in Latin lookup 1-1" [155,0,0] } ['kern' ('DFLT' <'dflt' > 'latn' <'dflt' > ) ]
Lookup: 258 0 0 "'dist' Distance in Latin lookup 0" { } ['dist' ('DFLT' <'dflt' > 'latn' <'dflt' > ) ]
MarkAttachClasses: 1
DEI: 91125
KernClass2: 35 29 "'kern' Horizontal Kerning in Latin lookup 1-1"
 1 A
 1 B
 1 C
 1 D
 1 E
 1 F
 3 G S
 13 H I M N i l d
 3 J U
 1 K
 1 L
 3 O Q
 1 P
 1 R
 1 T
 1 V
 1 W
 1 X
 1 Y
 1 Z
 7 a h m n
 5 b p s
 1 c
 1 e
 1 f
 5 g q u
 1 j
 1 k
 1 o
 1 r
 1 t
 5 v w y
 1 x
 1 z
 1 A
 31 B D E F H I K L M N P R b h i l
 5 C O Q
 1 G
 1 J
 1 S
 1 T
 1 U
 1 V
 1 W
 1 X
 1 Y
 1 Z
 1 a
 5 c e o
 1 d
 3 f t
 1 g
 1 j
 1 k
 9 m n p r u
 1 q
 1 s
 3 v y
 1 w
 1 x
 1 z
 0 

StartChar: .notdef
Encoding: 0 -1 0
AltUni2: 000000.ffffffff.0
Width: 630
VWidth: 1024
Flags: HW
LayerCount: 2
Fore
SplineSet
103 688 m 1
 548.080078125 688 l 1
 548.080078125 12 l 1
 103 12 l 1
 103 688 l 1
141 38 m 1
 510.080078125 38 l 1
 522.080078125 38 l 1
 522.080078125 50 l 1
 522.080078125 650 l 1
 522.080078125 662 l 1
 510.080078125 662 l 1
 141 662 l 1
 129 662 l 1
 129 650 l 1
 129 50 l 1
 129 38 l 1
 141 38 l 1
EndSplineSet
EndChar

StartChar: exclam
Encoding: 33 33 2
Width: 287
VWidth: 1024
Flags: HW
LayerCount: 2
Fore
SplineSet
103 920.140149255 m 1
 199.259704556 929.76611971 l 1
 206.991090289 539.331140168 l 1
 182.908306988 218.548466599 l 1
 122.351761108 221.466854353 l 1
 103 553.349557361 l 1
 103 920.140149255 l 1
107.61609985 6 m 1
 104.409918332 104.590081668 l 1
 203 101.38390015 l 1
 203 6 l 1
 107.61609985 6 l 1
EndSplineSet
EndChar

StartChar: quotedbl
Encoding: 34 34 3
Width: 443
VWidth: 1024
Flags: HW
LayerCount: 2
Fore
SplineSet
98.7267963627 914.210904154 m 1
 175.608135627 909.643695881 l 1
 182.674834348 814.243263145 l 1
 157.468259018 726.020249489 l 1
 123.486367781 722.173242934 l 1
 105.719933363 814.558701904 l 1
 98.7267963627 914.210904154 l 1
275.799804688 907.841033589 m 1
 361.799804688 914.095579044 l 1
 361.799804688 814.64176044 l 1
 336.18966402 722.798497354 l 1
 300.284086606 729.447678357 l 1
 275.799804688 814.689252441 l 1
 275.799804688 907.841033589 l 1
EndSplineSet
EndChar

StartChar: numbersign
Encoding: 35 35 4
Width: 865
VWidth: 1024
Flags: HW
LayerCount: 2
Fore
SplineSet
362.089637338 658.463988135 m 1
 314.889442026 274.463988135 l 1
 313.234486636 261 l 1
 326.799804688 261 l 1
 503.5 261 l 1
 514.035245507 261 l 1
 515.399031619 271.446601616 l 1
 565.399031619 654.446601616 l 1
 567.158495418 667.92409432 l 1
 553.56685133 667.999813786 l 1
 374.06685133 668.999813786 l 1
 363.391981154 669.059283815 l 1
 362.089637338 658.463988135 l 1
599.072553379 915 m 1
 657.218967127 915 l 1
 639.561465085 741.213006221 l 1
 638.202193794 727.834915093 l 1
 651.648136859 728.00091439 l 1
 799.617239002 729.827693429 l 1
 790.128020062 664.133100764 l 1
 643.65285384 665.999026448 l 1
 632.648338316 666.139211359 l 1
 631.558936325 655.187854502 l 1
 593.558936325 273.187854502 l 1
 592.256781194 260.097768703 l 1
 605.41111355 260.000329205 l 1
 726.796326735 259.101179477 l 1
 718.991633031 200.920735507 l 1
 597.409093518 199.999655662 l 1
 586.64336084 199.918097081 l 1
 585.56081789 189.206619469 l 1
 567.651638263 12 l 1
 482.138533685 12 l 1
 504.402374017 185.472422586 l 1
 506.138533685 199 l 1
 492.5 199 l 1
 312.5 199 l 1
 302.336272609 199 l 1
 300.66361724 188.974852695 l 1
 271.136077297 12 l 1
 212.517155529 12 l 1
 229.244004851 184.844109662 l 1
 230.525657294 198.087851571 l 1
 217.220336232 197.999736862 l 1
 80.0181498627 197.091113112 l 1
 88.7965084354 262.928802407 l 1
 226.218725458 262.000273913 l 1
 237.16642512 261.92630297 l 1
 238.241776647 272.821311859 l 1
 276.241776647 657.821311859 l 1
 277.511574891 670.686373018 l 1
 264.58772178 670.996545492 l 1
 153.062350449 673.673154404 l 1
 159.751816753 721.168365163 l 1
 272.49490085 723.001586043 l 1
 283.023121165 723.172776617 l 1
 284.221795964 733.6339385 l 1
 305.024360491 915.183592555 l 1
 396.213203843 916.759887964 l 1
 372.110800854 740.626943041 l 1
 370.256455445 727.075957362 l 1
 383.933519026 727.000184156 l 1
 564.433519026 726.000184156 l 1
 575.065097308 725.941283446 l 1
 576.404404751 736.488329555 l 1
 599.072553379 915 l 1
EndSplineSet
EndChar

StartChar: dollar
Encoding: 36 36 5
Width: 700
VWidth: 1024
Flags: HW
LayerCount: 2
Fore
SplineSet
83.7626953125 63.9228515625 m 1
 102.850585938 147.4296875 l 1
 242.293941714 100.719726562 280.125381611 94.92578125 423.048030393 91.998046875 c 1
 537.154296875 94.099609375 549.83984375 124.396484375 549.83984375 251 c 0
 549.83984375 369.227539062 528.5546875 383.973632812 330.861566877 417.826171875 c 1
 77.888671875 466.501953125 74.099609375 470.548828125 74.099609375 690 c 0
 74.099609375 889.448242188 105.126953125 924.127929688 285.135943266 929.00390625 c 2
 295.049735729 929.2890625 l 1
 295.805523769 940.084960938 l 2
 297.717801673 967.387695312 301.858983476 1038.68359375 303.392025724 1065.265625 c 1
 397.62671955 1067.71484375 l 1
 399.334174423 938.826171875 l 1
 399.479965488 927.834960938 l 1
 409.520766119 927.032226562 l 2
 456.189112327 923.298828125 532.740234375 913.642578125 613.915039062 889.62109375 c 1
 573.4765625 806.365234375 l 1
 494.908203125 829.555664062 464.20851536 843 324.23030945 843 c 0
 186.771484375 843 162.099609375 807.326171875 162.099609375 641 c 0
 162.099609375 535.875976562 185.62109375 524.749023438 429.504875196 481.177734375 c 0
 642.16015625 441.47265625 643.83984375 438.34765625 643.83984375 261 c 0
 643.83984375 61.13671875 620.45703125 21.755859375 424.410237712 11.986328125 c 2
 414.367648234 11.4560546875 l 1
 413.95979102 0.4873046875 l 2
 412.975030509 -25.9814453125 421.383507859 -78.01171875 425.462974426 -102.3046875 c 1
 320.349404948 -104.74609375 l 1
 318.733181294 4.1943359375 l 1
 318.56860733 15.314453125 l 1
 308.400798531 15.978515625 l 2
 170.056640625 24.69140625 102.9921875 53.8232421875 83.7626953125 63.9228515625 c 1
EndSplineSet
EndChar

StartChar: percent
Encoding: 37 37 6
Width: 793
VWidth: 1024
Flags: HW
LayerCount: 2
Fore
SplineSet
199.00390625 13.0087890625 m 1
 96.0712890625 27.37109375 l 1
 613.7421875 924.9765625 l 1
 672.37109375 885.291015625 l 1
 199.00390625 13.0087890625 l 1
75.400390625 791 m 0
 75.400390625 917.75390625 75.3486328125 929 183.400390625 929 c 2
 199.400390625 929 l 2
 303.480606513 929 303.377289304 917.702148438 303.377289304 791 c 2
 303.377289304 749 l 2
 303.377289304 644.458984375 299.984279025 597.912109375 205.39453125 597 c 0
 93.1669921875 597.919921875 75.400390625 662.217773438 75.400390625 791 c 0
199.400390625 886 m 0
 134.091796875 886 127.400390625 857.333984375 127.400390625 794 c 2
 127.400390625 756 l 2
 127.400390625 693.427734375 132.6796875 658 199.400390625 658 c 0
 259.455589554 658 265.927086927 697.122070312 265.927086927 749 c 2
 265.927086927 823 l 2
 265.927086927 871.926757812 253.873717349 886 199.400390625 886 c 0
736.299804688 135 m 0
 736.299804688 7.6591796875 738.047851562 -3 599.200195312 -3 c 0
 472.977516108 -3 473.775710118 13.0771484375 473.775710118 141 c 0
 473.775710118 271.600585938 472.751681147 321 594 321 c 0
 729.794921875 321 736.299804688 264.620117188 736.299804688 135 c 0
516.843442851 83 m 0
 516.843442851 52.8486328125 534.676175936 36 588.799804688 36 c 0
 673.759765625 36 698.299804688 56.6767578125 698.299804688 132 c 2
 698.299804688 142 l 2
 698.299804688 214.793945312 694.909179688 273 604.400390625 273 c 0
 524.041817932 273 518.71595297 223.795898438 518.71595297 159 c 2
 518.71595297 129 l 2
 518.71595297 111.834960938 516.843442851 96.2470703125 516.843442851 83 c 0
EndSplineSet
EndChar

StartChar: ampersand
Encoding: 38 38 7
Width: 635
VWidth: 1024
Flags: HMW
LayerCount: 2
Fore
SplineSet
282.004246059 98.9730322975 m 2
 123.179883822 109.638905727 87.400390625 174.091268202 87.400390625 278 c 0
 87.400390625 287.986573579 87.425666567 298.654251967 88.3408369075 307.805955372 c 2
 88.3705211531 308.102797827 l 1
 88.3854186915 308.400748597 l 2
 93.4090679125 408.873733017 91.0821353726 463.945254754 212.04014182 492.317082881 c 2
 261.068412089 503.817120773 l 1
 212.122615193 515.663264588 l 2
 125.961186163 536.516550148 119.334557206 550.818825043 114.400390625 668.251989673 c 1
 114.400390625 685 l 2
 114.400390625 809.553702519 185.331592003 846.369774045 288.256574767 858.076881089 c 2
 300.372278654 859.45497063 l 1
 298.800250605 871.547039902 l 2
 294.885525655 901.659177726 287.023027249 958.614915125 283.737735092 982.316237653 c 1
 386.35461836 984.702676799 l 1
 380.615309071 872.613633626 l 1
 380.001667266 860.629173595 l 1
 391.986135476 860.015691519 l 2
 464.017370433 856.328429741 498.999224873 840.643792614 552.683394624 799.164736484 c 1
 513.553479713 751.649839806 l 1
 480.323897198 787.656060221 444.657737037 800 392.599609375 800 c 0
 380.220622192 800 367.014737138 798.967371879 352.762488613 797.970765591 c 0
 236.938732284 789.871160726 192.277306444 767.991479864 189.504052727 661.31184777 c 2
 189.492302639 660.85985339 l 1
 189.514598902 660.408256379 l 2
 193.725725336 575.114494736 235.767268535 535 353.599609375 535 c 2
 354.13700448 535 l 1
 354.672248396 535.048035913 l 1
 431.85545241 541.974907159 l 1
 435.689322416 499.03556309 l 1
 430.92404429 449.000142771 l 1
 352.053877202 455.953633039 l 1
 351.527958594 456 l 1
 351 456 l 2
 197.434458716 456 176.844376656 411.647289994 168.741293949 313.99230952 c 0
 167.487023539 304.342625821 167.400390625 293.633589712 167.400390625 285 c 0
 167.400390625 198.142557454 216.146859907 164 332.799804688 164 c 0
 443.578274394 164 479.722781693 174.022906345 530.981112817 239.489529235 c 1
 574.328450865 185.305356675 l 1
 523.731256401 138.45113878 505.581808483 108.201622436 393.712154094 98.9592547657 c 2
 381.920650571 97.9850727005 l 1
 382.728177336 86.1809849952 l 2
 384.696234844 57.4127454345 389.528514471 6.32591849145 391.80582798 -17.3107460742 c 1
 291.229365757 -19.7054237462 l 1
 293.198144771 86.7781694777 l 1
 293.409454937 98.2071138161 l 1
 282.004246059 98.9730322975 l 2
EndSplineSet
EndChar

StartChar: quotesingle
Encoding: 39 39 8
Width: 269
VWidth: 1024
Flags: HW
LayerCount: 2
Fore
SplineSet
109.4751661 908.068079837 m 1
 189.605677776 901.962897995 l 1
 180.775644623 808.36454658 l 1
 168.239392704 715.238103754 l 1
 102.410198129 716.717411497 l 1
 107.694010779 806.542226543 l 1
 109.4751661 908.068079837 l 1
EndSplineSet
EndChar

StartChar: parenleft
Encoding: 40 40 9
Width: 381
VWidth: 1024
Flags: HW
LayerCount: 2
Fore
SplineSet
259.859465997 919.008857381 m 1
 300.773832391 862.472642 l 1
 198.256241185 801.039674874 169.099609375 803.066951329 169.099609375 441 c 0
 169.099609375 104.568516212 202.568524705 33.2633380747 323.442634246 -37.176877321 c 1
 286.443547647 -79.7607317084 l 1
 104.017128348 22.4560214274 99.099609375 24.8117286434 99.099609375 417 c 2
 99.099609375 572 l 2
 99.099609375 828.529564847 106.069795099 825.916648478 259.859465997 919.008857381 c 1
EndSplineSet
EndChar

StartChar: parenright
Encoding: 41 41 10
Width: 377
VWidth: 1024
Flags: HW
LayerCount: 2
Fore
SplineSet
131.796884388 -103.258817943 m 1
 78.0006405718 -43.3144319762 l 1
 203.485227084 40.9141847859 210.799804688 82.761807611 210.799804688 447.206835085 c 1
 199.217245456 783.10105281 192.07318019 822.104647245 82.6553885162 901.008043672 c 1
 131.616601202 955.995251765 l 1
 277.554334522 851.874101024 283.038849486 827.664457647 295.799804688 446.79902546 c 1
 295.799804688 27.4618118403 288.736523821 1.67519937729 131.796884388 -103.258817943 c 1
EndSplineSet
EndChar

StartChar: asterisk
Encoding: 42 42 11
Width: 601
VWidth: 1024
Flags: HW
LayerCount: 2
Fore
SplineSet
503.452209498 716.549407789 m 1
 532.057390244 628.414526569 l 1
 396.07818658 580.313039559 l 1
 379.631778469 574.49526254 l 1
 390.946335464 561.217022099 l 1
 503.577522312 429.038273898 l 1
 430.67608892 375.5255196 l 1
 330.676318434 545.095678068 l 1
 320.569656118 562.233600707 l 1
 310.125969033 545.298949378 l 1
 215.944951757 392.582511543 l 1
 143.026562644 448.251389253 l 1
 230.53317405 562.711749693 l 1
 242.313818391 578.121063068 l 1
 223.266171554 581.784076819 l 1
 85.6975503849 608.239615155 l 1
 124.173375106 730.216165868 l 1
 242.899475766 662.57349396 l 1
 264.225427675 650.423306594 l 1
 260.716586311 674.715513372 l 1
 241.89789273 805 l 1
 363.714611737 805 l 1
 339.659350179 635.687966727 l 1
 335.990630504 609.865824397 l 1
 357.987582414 623.879269556 l 1
 503.452209498 716.549407789 l 1
EndSplineSet
EndChar

StartChar: plus
Encoding: 43 43 12
Width: 885
VWidth: 1024
Flags: HW
LayerCount: 2
Fore
SplineSet
403.898473746 420.994645663 m 1
 80.900390625 430.64676204 l 1
 80.900390625 474.355961284 l 1
 401.301668097 484.005438449 l 1
 413.323456535 484.367496846 l 1
 412.93414135 496.388433465 l 1
 404.234772506 765 l 1
 490.79699442 765 l 1
 483.344598208 500.337763799 l 1
 482.992976987 487.850389795 l 1
 495.484394141 488.000870649 l 1
 815.379882812 491.854568409 l 1
 815.379882812 407.39935924 l 1
 491.833147163 417.993572153 l 1
 479.780908254 418.388210612 l 1
 479.445084034 406.334189527 l 1
 471.969311483 138 l 1
 424.26000099 138 l 1
 415.533840552 409.385649853 l 1
 415.171395448 420.657778177 l 1
 403.898473746 420.994645663 l 1
EndSplineSet
EndChar

StartChar: comma
Encoding: 44 44 13
Width: 272
VWidth: 1024
Flags: HW
LayerCount: 2
Fore
SplineSet
107.615578693 97.8671619005 m 1
 184.661226773 104.093072856 l 1
 194.258100534 10.5235536857 l 1
 191.752365977 7.13551822904 l 2
 120.675276923 -88.9687148584 128.13527013 -86.741993153 114.133363824 -86.982159177 c 1
 106.184780281 -49.2263873495 l 1
 113.11671729 -43.3889667103 119.630449304 -33.9198407086 139.115715946 -7.04361085753 c 2
 152.922333817 12 l 1
 129.400390625 12 l 1
 101.313401673 12 l 1
 107.615578693 97.8671619005 l 1
EndSplineSet
EndChar

StartChar: hyphen
Encoding: 45 45 14
Width: 425
VWidth: 1024
Flags: HW
LayerCount: 2
Fore
SplineSet
101.392515239 410.21837017 m 1
 98.2357131544 503.344031661 l 1
 345.799804688 490.601762244 l 1
 345.799804688 414.77820766 l 1
 101.392515239 410.21837017 l 1
EndSplineSet
EndChar

StartChar: period
Encoding: 46 46 15
Width: 276
VWidth: 1024
Flags: HW
LayerCount: 2
Fore
SplineSet
101.700195312 4.83380884895 m 1
 101.700195312 106.104009201 l 1
 189.477884567 99.777689255 l 1
 195.864443901 11.164178502 l 1
 101.700195312 4.83380884895 l 1
EndSplineSet
EndChar

StartChar: slash
Encoding: 47 47 16
Width: 452
VWidth: 1024
Flags: HW
LayerCount: 2
Fore
SplineSet
78.3476216507 7.84554748457 m 1
 333.997292084 924.086160222 l 1
 390.119137356 907.746888814 l 1
 147.331967248 -14.6493478192 l 1
 78.3476216507 7.84554748457 l 1
EndSplineSet
EndChar

StartChar: zero
Encoding: 48 48 17
Width: 835
VWidth: 1024
Flags: HW
LayerCount: 2
Fore
SplineSet
440.910043206 -3 m 0
 121.256835938 -3 113.099609375 9.0673828125 113.099609375 463 c 0
 113.099609375 895.7734375 133.8203125 929 440.910043206 929 c 0
 748.284179688 929 769 895.768554688 769 463 c 0
 769 9.041015625 761.838867188 -3 440.910043206 -3 c 0
212.099609375 463 m 0
 212.099609375 105.041015625 229.409179688 75 440.910043206 75 c 0
 653.653320312 75 671 105.008789062 671 463 c 0
 671 805.109375 645.221679688 852 440.910043206 852 c 0
 237.84375 852 212.099609375 805.077148438 212.099609375 463 c 0
EndSplineSet
EndChar

StartChar: one
Encoding: 49 49 18
Width: 424
VWidth: 1024
Flags: HW
LayerCount: 2
Fore
SplineSet
302.69921875 1 m 1
 293.58984375 -4.056640625 l 1
 294.225585938 5.90234375 l 1
 226.69921875 14.5595703125 l 1
 226.69921875 783.921875 l 1
 66.2998046875 760.010742188 l 1
 69.3857421875 833.3046875 l 1
 243.309570312 916.939453125 l 1
 319.69921875 915.260742188 l 1
 319.69921875 1 l 1
 302.69921875 1 l 1
EndSplineSet
EndChar

StartChar: two
Encoding: 50 50 19
Width: 607
VWidth: 1024
Flags: HW
LayerCount: 2
Fore
SplineSet
275.784660543 835.99609375 m 0
 196.719726562 833.848632812 158.317382812 794.147460938 163.022460938 665.583984375 c 1
 50 713.904296875 l 1
 51.63671875 873.84765625 95.095703125 934.727539062 300.973967323 934 c 0
 325.778181781 933.908203125 349.66368869 932.803710938 372.224051119 930.224609375 c 0
 506.932617188 915.421875 601.83203125 855.520507812 580.029296875 648.254882812 c 0
 567.26171875 526.881835938 491.821289062 493.528320312 361.976860047 382.354492188 c 0
 288.647455584 317.662109375 191.537109375 268.252929688 172.057617188 113.499023438 c 2
 170.32421875 99.73046875 l 1
 184.198242188 100.001953125 l 1
 603.166992188 108.6875 l 1
 576.797851562 12 l 1
 63.6630859375 12 l 1
 63.6630859375 61 l 2
 63.6630859375 309.942382812 151.456054688 325.509765625 228.597955398 397.080078125 c 0
 402.046916784 568.46484375 466.787109375 552.763671875 483.803710938 656.048828125 c 0
 487.495117188 678.456054688 489.08984375 698.204101562 488.653320312 715.727539062 c 0
 485.57421875 839.28125 387.08167775 839.044921875 275.784660543 835.99609375 c 0
EndSplineSet
EndChar

StartChar: three
Encoding: 51 51 20
Width: 724
VWidth: 1024
Flags: HW
LayerCount: 2
Fore
SplineSet
76.5126953125 747.064453125 m 1
 97.822265625 873.255859375 164.236328125 921.572265625 303.663634971 928.01171875 c 0
 490.405785289 936.966796875 600.354492188 915.69140625 635.208984375 740.65625 c 0
 637.416992188 729.567382812 634.127929688 714.495117188 632.055664062 696.362304688 c 0
 615.708007812 553.321289062 635.5625 530.125 524.98828125 504.694335938 c 2
 474.524013232 492.393554688 l 1
 525.241210938 481.25 l 2
 654.305664062 454.485351562 663.53515625 429.456054688 663.978515625 256.96875 c 0
 663.999023438 248.702148438 663.909179688 240.673828125 663.702148438 232.880859375 c 0
 658.671875 43.451171875 589.803710938 -9.240234375 370.529709257 -3.00390625 c 0
 134.467773438 3.6884765625 95.5517578125 32.357421875 75.400390625 224.282226562 c 1
 183.1953125 218.608398438 l 1
 187.7734375 95.189453125 278.346888566 79.171875 370.764481714 84.013671875 c 0
 513 91.453125 543.004882812 128.41015625 550.95703125 261.283203125 c 0
 551.735351562 274.290039062 552.162109375 286.41015625 552.166015625 297.73046875 c 0
 552.206054688 423.931640625 494.567824216 446 337.901734755 446 c 2
 271.122013557 446 l 1
 271.122013557 489 l 1
 271.122013557 489.416992188 l 1
 271.095028217 489.833984375 l 1
 268.325432829 533 l 1
 347.481530428 533 l 2
 480.776516493 533 512.387695312 547.41015625 533.96875 684.361328125 c 0
 535.150390625 694.364257812 539.227539062 706.376953125 536.447265625 720.342773438 c 0
 519.129882812 807.340820312 448.962599745 851.59375 346.125067341 849.999023438 c 0
 338.609650172 849.881835938 328.280561561 852.875 315.911381251 850.868164062 c 0
 254.833662379 840.958007812 200.66015625 798.361328125 182.609375 739.662109375 c 1
 76.5126953125 747.064453125 l 1
EndSplineSet
EndChar

StartChar: four
Encoding: 52 52 21
Width: 681
VWidth: 1024
Flags: HW
LayerCount: 2
Fore
SplineSet
156.740234375 357.650390625 m 1
 180.168945312 357.004882812 l 1
 415.689189815 350.004882812 l 1
 426.975771534 349.663085938 l 1
 426.930368815 362.048828125 l 1
 425.747227381 682.3359375 l 1
 427.769873986 701.62890625 l 1
 432.310145856 744.920898438 l 1
 408.206643724 710.28125 l 1
 170.9609375 376.28125 l 1
 156.740234375 357.650390625 l 1
515.440429688 901 m 1
 515.440429688 893.909179688 l 1
 515.440429688 893 l 1
 515.440429688 359 l 1
 515.440429688 347.420898438 l 1
 527.01171875 347.0078125 l 1
 627.440429688 343.420898438 l 1
 627.440429688 256.436523438 l 1
 527.869140625 259.9921875 l 1
 515.440429688 260.436523438 l 1
 515.440429688 248 l 1
 515.440429688 15.8544921875 l 1
 427.792130221 -2.3974609375 l 1
 426.930368815 252.044921875 l 1
 426.891197842 263.668945312 l 1
 416.298120395 263.995117188 l 1
 149.836914062 271.995117188 l 1
 149.53515625 272.00390625 l 1
 149.233398438 271.997070312 l 1
 71.5 270.26953125 l 1
 71.5 351.217773438 l 1
 446.831893844 918.119140625 l 1
 448.526038426 920.774414062 l 1
 448.751271521 923.740234375 l 1
 515.440429688 916.233398438 l 1
 515.440429688 901 l 1
EndSplineSet
EndChar

StartChar: five
Encoding: 53 53 22
Width: 664
VWidth: 1024
Flags: HW
LayerCount: 2
Fore
SplineSet
204.643554688 502.387695312 m 1
 103.892578125 505.595703125 l 1
 134.149414062 915 l 1
 566.858398438 915 l 1
 559.771484375 825.23046875 l 1
 251.292708467 831.997070312 l 1
 241.419241144 832.22265625 l 1
 240.29984241 821.359375 l 1
 216.419921875 593.359375 l 1
 214.896484375 580 l 1
 227.584213761 580 l 1
 367.322048036 580 l 2
 575.521484375 580 598.842773438 548.625976562 598.842773438 290 c 0
 598.842773438 29.4794921875 571.6640625 -3 327.396826513 -3 c 0
 162.610351562 -3 132.90625 19.3955078125 66.2998046875 196.326171875 c 1
 158.291992188 234.252929688 l 1
 207.983398438 109.237304688 239.267772655 84 327.396826513 84 c 0
 465.360351562 84 495.842773438 119.068359375 495.842773438 290 c 0
 495.842773438 468.90234375 467.770507812 507 340.314458558 507 c 2
 216.643554688 507 l 1
 204.643554688 507 l 1
 204.643554688 502.387695312 l 1
EndSplineSet
EndChar

StartChar: six
Encoding: 54 54 23
Width: 709
VWidth: 1024
Flags: HW
LayerCount: 2
Fore
SplineSet
377.593140878 929 m 0
 509.978515625 929 541.203125 912.623046875 616.901367188 787.736328125 c 1
 543.904296875 740.129882812 l 1
 471.532473034 837.59375 443.549954885 857 377.593140878 857 c 0
 185.83984375 857 181.099609375 768.432617188 181.099609375 510 c 2
 181.099609375 498 l 1
 193.099609375 498 l 2
 205.323242188 498 227.083007812 517 360.938390751 517 c 2
 378.720019663 517 l 2
 626.798828125 514.026367188 615.631835938 509.688476562 645.251953125 301.362304688 c 0
 651.188476562 256.83984375 654.139648438 219.251953125 654.139648438 186 c 0
 654.139648438 25.982421875 583.9140625 -3 363.317257781 -3 c 0
 94.666015625 -3 87.099609375 8.7294921875 87.099609375 490 c 0
 87.099609375 878.711914062 94.9111328125 929 377.593140878 929 c 0
390.678696821 440 m 2
 351.265642166 440 l 1
 218.923828125 435.971679688 172.099609375 401.181640625 172.099609375 327 c 2
 172.099609375 323.7578125 l 1
 180.197265625 123.333984375 216.015625 75 363.317257781 75 c 0
 475.793343807 75 551.139648438 90.9111328125 551.139648438 207 c 0
 551.139648438 234.170898438 547.096679688 266.91796875 539.201171875 305.384765625 c 0
 516.787109375 415.931640625 505.204101562 440 390.678696821 440 c 2
EndSplineSet
EndChar

StartChar: seven
Encoding: 55 55 24
Width: 569
VWidth: 1024
Flags: HW
LayerCount: 2
Fore
SplineSet
0 832.651367188 m 1
 20.1748046875 931.91015625 l 1
 514.255859375 927.1640625 l 1
 477.087890625 838.469726562 l 1
 283.920316544 311.936523438 279.480865095 177.513671875 279.480865095 36 c 2
 279.480865095 4 l 1
 182.757497359 4 l 1
 182.757497359 40 l 2
 182.757497359 217.09765625 179.502249469 226.5234375 347.296197224 808.321289062 c 2
 351.705037798 823.609375 l 1
 337.325797989 823.99609375 l 1
 0 832.651367188 l 1
EndSplineSet
EndChar

StartChar: eight
Encoding: 56 56 25
Width: 705
VWidth: 1024
Flags: HW
LayerCount: 2
Fore
SplineSet
169.911132812 206 m 0
 169.911132812 97.6103515625 180.901367188 75 364.829101562 75 c 0
 492.271484375 75 543.010742188 79.3876953125 543.010742188 200 c 0
 543.010742188 218.6328125 541.6953125 238.616210938 540.388671875 262.731445312 c 0
 529.870117188 417.481445312 520.028320312 451 364.829101562 451 c 0
 204.522460938 451 169.911132812 441.100585938 169.911132812 206 c 0
102.911132812 600 m 0
 102.911132812 625.104492188 105.8671875 657.969726562 108.873046875 697.047851562 c 0
 127.541992188 924.018554688 148.206054688 929 364.829101562 929 c 0
 605.676757812 929 608.010742188 905.419921875 608.010742188 706 c 0
 608.010742188 576.592773438 597.395507812 526.96484375 561.979492188 506.374023438 c 2
 539.595703125 493.360351562 l 1
 563.993164062 484.692382812 l 2
 631.158203125 460.831054688 635.905273438 405.015625 643.028320312 250.337890625 c 0
 645.033203125 219.267578125 646.010742188 192.752929688 646.010742188 168 c 0
 646.010742188 -5.5009765625 605.260742188 -3 364.829101562 -3 c 0
 75.6982421875 -3 81.9111328125 25.7626953125 81.9111328125 269 c 0
 81.9111328125 414.3359375 95.8701171875 464.375976562 145.499023438 484.912109375 c 2
 171.6015625 495.712890625 l 1
 145.706054688 507 l 2
 112.741210938 521.369140625 102.911132812 546.178710938 102.911132812 600 c 0
195.911132812 624 m 0
 195.911132812 551.235351562 240.720703125 538 364.829101562 538 c 0
 493.286132812 538 527.411132812 544.15625 527.411132812 664 c 0
 527.411132812 823.696289062 508.345703125 857 325.609375 857 c 0
 238.986328125 857 216.915039062 840.588867188 201.169921875 689.194335938 c 0
 198.583984375 663.334960938 195.911132812 642.198242188 195.911132812 624 c 0
EndSplineSet
EndChar

StartChar: nine
Encoding: 57 57 26
Width: 692
VWidth: 1024
Flags: HW
LayerCount: 2
Fore
SplineSet
341.869128725 405 m 2
 346.593171351 405 l 2
 363.577187113 405 382.522159713 403 402.109545322 403 c 0
 463.254131611 403 532 424.370117188 532 558 c 0
 532 576.614257812 530.663085938 596.000976562 528.016601562 619.408203125 c 0
 503.3828125 827.85546875 485.177734375 852 383.210712883 852 c 2
 343.050139381 852 l 2
 211.520507812 852 181 818.036132812 181 656 c 0
 181 446.762695312 229.248046875 405 341.869128725 405 c 2
536 349.134765625 m 1
 522.052734375 346.840820312 l 1
 522.052734375 346.840820312 385.457383794 323 295.802614629 323 c 0
 145.12890625 323 78 376.540039062 78 656 c 0
 78 896.515625 103.262695312 929 333.600279507 929 c 2
 356.043031226 929 l 2
 615.950195312 929 625 906.508789062 625 342 c 0
 625 36.0927734375 619.081054688 -2.015625 325.351838437 -3 c 0
 192.052734375 -2.0400390625 166.94140625 13.83984375 91.2294921875 139.2578125 c 1
 163.731445312 186.541992188 l 1
 231.145507812 88.9619140625 258.912668686 70 325.332317599 70 c 0
 508.99609375 70 536 125.978515625 536 335 c 2
 536 349.134765625 l 1
EndSplineSet
EndChar

StartChar: colon
Encoding: 58 58 27
Width: 272
VWidth: 1024
Flags: HW
LayerCount: 2
Fore
SplineSet
99.7998046875 12 m 1
 99.7998046875 108.579420661 l 1
 189.398361263 121.265941946 l 1
 194.25462535 12 l 1
 99.7998046875 12 l 1
98.0036238441 595.409595976 m 1
 99.5892947118 685 l 1
 194.799804688 685 l 1
 194.799804688 590.609785355 l 1
 98.0036238441 595.409595976 l 1
EndSplineSet
EndChar

StartChar: semicolon
Encoding: 59 59 28
Width: 270
VWidth: 1024
Flags: HW
LayerCount: 2
Fore
SplineSet
110.456324474 114.153295152 m 1
 192.799804688 107.879506183 l 1
 192.799804688 -25 l 2
 192.799804688 -113.091938646 198.791418377 -107 97.7998046875 -107 c 1
 97.7998046875 -71.9941427078 l 1
 137.57983252 -71.8236775995 144.799804688 -58.0339739518 144.799804688 -13 c 2
 144.799804688 0 l 1
 144.799804688 12 l 1
 132.799804688 12 l 1
 99.1953313072 12 l 1
 110.456324474 114.153295152 l 1
97.7998046875 589.559783953 m 1
 97.7998046875 685 l 1
 191.572099367 685 l 1
 181.953936936 586.413835084 l 1
 97.7998046875 589.559783953 l 1
EndSplineSet
EndChar

StartChar: less
Encoding: 60 60 29
Width: 679
VWidth: 1024
Flags: HW
LayerCount: 2
Fore
SplineSet
592.889538515 655.110194497 m 1
 613.665267568 574.315692624 l 1
 193.540702216 359.686256019 l 1
 172.041472074 348.702923852 l 1
 193.777519023 338.196033485 l 1
 595.468840325 144.024265078 l 1
 565.366639936 66.8391358752 l 1
 90 315.268626107 l 1
 90 381.863247363 l 1
 592.889538515 655.110194497 l 1
EndSplineSet
EndChar

StartChar: equal
Encoding: 61 61 30
Width: 753
VWidth: 1024
Flags: HW
LayerCount: 2
Fore
SplineSet
102.750572321 527.840861842 m 1
 669.394778526 522.101538595 l 1
 680.190365268 460.926547057 l 1
 121.312605304 458.047617825 l 1
 102.750572321 527.840861842 l 1
107.049822868 277.657617823 m 1
 671.777596815 260.29268392 l 1
 685.463392739 198.346449736 l 1
 101.187272903 211.703930709 l 1
 107.049822868 277.657617823 l 1
EndSplineSet
EndChar

StartChar: greater
Encoding: 62 62 31
Width: 676
VWidth: 1024
Flags: HW
LayerCount: 2
Fore
SplineSet
526.284876147 369.906601291 m 1
 91.3467038301 569.48231671 l 1
 116.835815445 649.811638164 l 1
 603.425570119 398.615177971 l 1
 605.132649136 313.261227073 l 1
 111.207042564 60.3261151766 l 1
 92.949667843 123.861779207 l 1
 526.794854407 348.342167353 l 1
 548.643520147 359.647114642 l 1
 526.284876147 369.906601291 l 1
EndSplineSet
EndChar

StartChar: question
Encoding: 63 63 32
Width: 606
VWidth: 1024
Flags: HW
LayerCount: 2
Fore
SplineSet
260.912832532 12 m 1
 268.664480537 88.7413152509 l 1
 360.33984375 104.726530091 l 1
 360.33984375 12 l 1
 260.912832532 12 l 1
438.132586752 679.10960802 m 0
 447.454043783 707.073979112 452.780273438 731.894157351 452.780273438 753 c 0
 452.780273438 823.805077514 398.432362943 851 332.639648438 851 c 0
 261.671414016 851 172.038115153 811.804932384 137.213962757 756.49291986 c 1
 78.5133546122 782.908193525 l 1
 138.677996922 905.913440987 193.825393088 929 291.639648438 929 c 2
 307.472443925 929 l 1
 550.843808529 922.216551276 524.737575019 841.510466247 532.806157111 686.190260975 c 0
 533.792940648 674.34885854 533.780273438 664.1027098 533.780273438 656 c 0
 533.780273438 594.46375934 516.212674682 618.20081183 401.047970468 446.03368137 c 1
 351.076529619 381.944811191 335.639647848 369.51665325 335.639648438 335 c 0
 335.639648438 310.177118645 342.749678603 276.301901766 343.399332869 195.304512979 c 1
 266.592366488 190.732705176 l 1
 265.67478112 296.395639521 255.639648438 333.866029839 255.639648438 361 c 0
 255.639648438 390.804250665 267.888434636 406.221803263 328.487110826 499.132207032 c 1
 411.653978273 610.815606783 412.957575401 607.612575289 438.132586752 679.10960802 c 0
328.487110826 499.132207032 m 0
 328.555004995 499.236302945 328.622959855 499.340496134 328.6909756 499.444786633 c 2
 328.264504864 498.833261635 l 2
 328.338771905 498.933001514 328.412973821 499.032649966 328.487110826 499.132207032 c 0
401.047970468 446.03368137 m 0
 400.9669489 445.912557013 400.885879027 445.791335694 400.804760229 445.670017708 c 2
 401.315494499 446.376852963 l 2
 401.226210243 446.262297914 401.137035798 446.147907391 401.047970468 446.03368137 c 0
EndSplineSet
EndChar

StartChar: at
Encoding: 64 64 33
Width: 1333
VWidth: 1024
Flags: HW
LayerCount: 2
Fore
SplineSet
814.832326164 330.936515795 m 2
 814.631302304 330.936515795 717.896230143 341 635.099609375 341 c 0
 544.871129296 341 486.599609375 313.200705369 486.599609375 168 c 0
 486.599609375 95.5731136784 516.494379564 67 596.099609375 67 c 0
 616.000970962 67 639.879616572 68.0264617728 668.823955761 71.0626227367 c 0
 764.838903308 80.9103096646 779.570719245 79.541287533 820.327760116 135.974113354 c 2
 822.533655314 139.028429782 l 1
 822.59786647 142.795484254 l 1
 825.59786647 318.795484254 l 1
 825.785534599 329.805347859 l 1
 814.832326164 330.936515795 l 2
726.099609375 934 m 0
 342.903591109 934 171.299804688 880.75284576 171.299804688 364 c 0
 171.299804688 -142.478851922 286.377108174 -203 713.099609375 -203 c 2
 774.200195312 -203 l 2
 922.0979562 -203 1110.02560526 -199.656933485 1223.78101572 -122.770229429 c 1
 1257.56635875 -208.769284421 l 1
 1059.12260009 -276.669481617 899.972553633 -282 713.099609375 -282 c 0
 220.710292154 -282 91.2998046875 -210.210740059 91.2998046875 352 c 0
 91.2998046875 915.800113793 209.688349555 1005 705.299804688 1005 c 0
 1159.50748409 1005 1260.29980469 936.011925311 1260.29980469 478 c 0
 1260.29980469 49.1653011719 1223.11325184 -21 1006.90039062 -21 c 0
 964.949801799 -21 889.384473616 -4.73374146084 879.142514911 5.42066222191 c 1
 878.436647715 8.77353140388 l 1
 874.966896737 11.4722266085 l 2
 869.525294284 15.7045840725 864.315795869 23.8957122862 861.489571392 44.6213584568 c 2
 856.966347461 77.7916672788 l 1
 839.387177221 49.3012879246 l 2
 815.598034476 10.7464703716 750.257035686 11.228222549 588.717421868 -3.03121148837 c 0
 572.190731111 -4.00915609018 556.424230461 -5 542.799804688 -5 c 0
 420.26244496 -5 404.599609375 62.1304321354 404.599609375 124 c 0
 404.599609375 136.44333937 405.553700135 148.953394366 406.564750286 161.08599618 c 0
 417.630487154 305.946551539 430.640471589 402.533593163 585.058742967 411.018073102 c 0
 639.450217462 414.006637038 683.428451919 415 718.299804688 415 c 0
 802.594635896 415 826.594786442 408.657834291 827.165197933 408.501799107 c 2
 843.945013548 403.395712193 l 1
 842.562536704 420.942533668 l 2
 829.829177948 582.558240964 843.489717386 675 670.200195312 675 c 0
 560.021376896 675 511.850875072 611.580917984 492.962965241 513.902801969 c 1
 408.880846049 535.926101637 l 1
 431.556372658 690.557771644 527.556480694 758 672.799804688 758 c 0
 679.375525644 758 689.332146793 757.072363737 698.438416735 756.998330045 c 0
 877.793256299 745.138209039 909.723958326 694.321302708 926.602108947 481.49816583 c 1
 928.599779131 105.936171116 l 1
 928.609074013 104.188733346 l 1
 929.116345063 102.516518876 l 2
 942.05113573 59.877097338 1032.07620386 51.942192679 1063.74473303 51.0052485323 c 2
 1065.97527822 50.9392556896 l 1
 1068.08043392 51.6795302217 l 2
 1169.18684054 87.2334314513 1185.29980469 203.57935073 1185.29980469 484 c 0
 1185.29980469 880.696256916 1016.05442436 934 726.099609375 934 c 0
EndSplineSet
EndChar

StartChar: A
Encoding: 65 65 34
Width: 867
VWidth: 1024
Flags: HW
LayerCount: 2
Fore
SplineSet
246.631415608 266.95703125 m 1
 263.10006212 267 l 1
 643.126500456 268 l 1
 660.332009528 268.044921875 l 1
 653.572338265 284.71484375 l 1
 451.220610409 783.71484375 l 1
 440.049959364 811.26171875 l 1
 430.080533324 783.208007812 l 1
 252.405822844 283.208007812 l 1
 246.631415608 266.95703125 l 1
144.10546875 -19.5146484375 m 1
 59.7998046875 2.3427734375 l 1
 367.374919722 903.950195312 l 1
 512.80934428 903.049804688 l 1
 815.861328125 0.513671875 l 1
 746.629882812 -22.814453125 l 1
 675.556640625 184.884765625 l 1
 672.723632812 193.165039062 l 1
 663.973632812 192.998046875 l 1
 215.968664375 183.998046875 l 1
 207.419921875 183.833007812 l 1
 204.845703125 175.567382812 l 1
 144.10546875 -19.5146484375 l 1
EndSplineSet
EndChar

StartChar: B
Encoding: 66 66 35
Width: 829
VWidth: 1024
Flags: HW
LayerCount: 2
Fore
SplineSet
186.177734375 85 m 1
 197.961914062 85 l 1
 463.09423635 85 l 2
 500.867272907 85 531.446881511 83.962890625 556.3922018 83.962890625 c 0
 633.434570312 83.962890625 665.264648438 98.4228515625 665.264648438 177.021484375 c 0
 665.264648438 212.071289062 664.6015625 239.14453125 660.930664062 286.864257812 c 0
 655.176757812 372.020507812 603.620117188 384 395.713083237 384 c 2
 192.961914062 384 l 1
 180.741210938 384 l 1
 180.963867188 371.782226562 l 1
 185.963867188 96.7822265625 l 1
 186.177734375 85 l 1
179.15234375 454.42578125 m 1
 190.520507812 454.0078125 l 1
 321.574439807 449 l 1
 538.401777551 449 582.882952995 479.41015625 582.882952995 649 c 2
 582.882952995 685 l 2
 582.882952995 828.813476562 568.10402739 842 418.173467608 842 c 2
 378.867794959 842 l 2
 296.276348182 842 268.190814649 840 184.961914062 840 c 2
 172.76171875 840 l 1
 172.963867188 827.80078125 l 1
 178.963867188 465.80078125 l 1
 179.15234375 454.42578125 l 1
567.773190023 429.470703125 m 1
 606.96484375 426.041015625 l 2
 722.15625 416.442382812 743.1328125 388.204101562 748.978515625 268.369140625 c 0
 752.318359375 204.911132812 749.188476562 160.3671875 749.188476562 116.192382812 c 0
 749.188476562 42.99609375 735.092773438 12 530.475389463 12 c 2
 92 12 l 1
 96.896484375 915 l 1
 439.69800263 915 l 2
 676.879882812 915 673.961914062 915.068359375 673.961914062 738 c 2
 673.961914062 690 l 2
 673.961914062 541.2109375 658.129882812 477.825195312 602.393554688 448.629882812 c 2
 567.773190023 429.470703125 l 1
EndSplineSet
EndChar

StartChar: C
Encoding: 67 67 36
Width: 744
VWidth: 1024
Flags: HW
LayerCount: 2
Fore
SplineSet
671.749023438 853.471679688 m 1
 661.094726562 852.173828125 637.77734375 851 589.83984375 851 c 0
 563.079101562 851 513.976158443 852 463.258010618 852 c 0
 231.283240198 852 186.237304688 755.765625 179.700195312 465.134765625 c 1
 179.700195312 414 l 2
 179.700195312 162.467773438 236.567304569 81 475.30690834 81 c 0
 602.881835938 81 653.810546875 81.5146484375 673.466796875 82.9169921875 c 1
 689.140625 6.11328125 l 1
 668.754882812 3.5859375 611.946289062 3 475.30690834 3 c 0
 127.516601562 3 76.7001953125 89.7763671875 76.7001953125 411 c 2
 76.7001953125 464.90234375 l 1
 82.6640625 830.697265625 125.033203125 929 456.028853008 929 c 0
 593.067382812 929 662.524414062 926.859375 688.845703125 925.744140625 c 1
 671.749023438 853.471679688 l 1
EndSplineSet
EndChar

StartChar: D
Encoding: 68 68 37
Width: 855
VWidth: 1024
Flags: HW
LayerCount: 2
Fore
SplineSet
788.063476562 463.23828125 m 0
 779.108398438 12.484375 779.7109375 12 381.350030252 12 c 2
 92.2998046875 12 l 1
 97.1962890625 915 l 1
 344.614390878 915 l 2
 749.366210938 915 790.061523438 901.737304688 790.061523438 589 c 0
 790.061523438 551.200195312 789.065429688 510.299804688 788.063476562 463.23828125 c 0
185.456054688 85 m 1
 197.26171875 85 l 2
 271.006052577 85 297.947913095 84 370.329154467 84 c 0
 660.72265625 84 675.315429688 102.024414062 684.456054688 462.620117188 c 0
 685.754882812 503.588867188 687.061523438 539.684570312 687.061523438 573 c 0
 687.061523438 822.306640625 628.327663421 842 350.73699744 842 c 2
 185.26171875 842 l 1
 173.063476562 842 l 1
 173.263671875 829.803710938 l 1
 185.263671875 96.8037109375 l 1
 185.456054688 85 l 1
EndSplineSet
EndChar

StartChar: E
Encoding: 69 69 38
Width: 694
VWidth: 1024
Flags: HW
LayerCount: 2
Fore
SplineSet
206.799804688 87 m 2
 396.518834186 87 464.690898176 95.56640625 617.553710938 95.984375 c 1
 620.7109375 6 l 1
 99.7998046875 6 l 1
 99.7998046875 927 l 1
 606.139648438 927 l 1
 606.139648438 848.009765625 l 1
 447.109995714 848.30078125 378.510605935 854.021484375 206.86328125 855 c 2
 194.799804688 855.063476562 l 1
 194.799804688 843 l 1
 194.799804688 461 l 1
 194.799804688 448.764648438 l 1
 207.033203125 449.001953125 l 1
 586.139648438 456.841796875 l 1
 586.139648438 382.137695312 l 1
 207.00390625 388.998046875 l 1
 194.799804688 389.206054688 l 1
 194.799804688 377 l 1
 194.799804688 99 l 1
 194.799804688 87 l 1
 206.799804688 87 l 2
EndSplineSet
EndChar

StartChar: F
Encoding: 70 70 39
Width: 626
VWidth: 1024
Flags: HW
LayerCount: 2
Fore
SplineSet
179.934570312 803.427734375 m 1
 179.796875 792.146484375 l 1
 175.896484375 472.146484375 l 1
 175.75 460.12109375 l 1
 187.775390625 460.000976562 l 1
 187.775390625 460.000976562 483.580078125 456.704101562 550.100585938 453.278320312 c 1
 543.1875 378 l 1
 534.135742188 378 l 2
 457.953125 378 371.836764316 366.989257812 187.598632812 361.99609375 c 2
 175.61328125 361.69921875 l 1
 175.899414062 349.713867188 l 1
 184.678710938 -17.841796875 l 1
 87.099609375 -9.05078125 l 1
 103.647460938 889.408203125 l 1
 110.376953125 889.084960938 114.604492188 889 121.895507812 889 c 0
 223.087890625 889 513.732421875 899.366210938 580.135742188 901.588867188 c 1
 580.135742188 824.420898438 l 1
 191.203125 803.985351562 l 1
 179.934570312 803.427734375 l 1
EndSplineSet
EndChar

StartChar: G
Encoding: 71 71 40
Width: 826
VWidth: 1024
Flags: HW
LayerCount: 2
Fore
SplineSet
665.700195312 378 m 1
 402.393546059 378 l 1
 402.393546059 455 l 1
 756.365234375 455 l 1
 757.254882812 437.279296875 758.700195312 402.061523438 758.700195312 358.537109375 c 0
 758.700195312 288.264648438 754.619140625 198.36328125 739.98828125 129.296875 c 0
 712.018554688 0.630859375 720.450195312 -15 446.104944444 -15 c 0
 137.926757812 -15 74.099609375 26.6689453125 74.099609375 282.388671875 c 0
 74.099609375 333.221679688 77.072265625 393.329101562 82.0712890625 462.029296875 c 0
 111.037109375 894.268554688 145.911132812 951 407.000060615 951 c 0
 665.448242188 951 701.693359375 924.061523438 748.3828125 732.243164062 c 1
 663.572265625 706.879882812 l 1
 618.20703125 847.288085938 573.981164281 873 407.000060615 873 c 0
 242.709609433 873 208.771484375 807.27734375 178.946289062 463.932617188 c 0
 173.725585938 402.881835938 171.099609375 351.017578125 171.099609375 306.206054688 c 0
 171.099609375 103.559570312 242.453487958 63 446.104944444 63 c 0
 610.153320312 63 633.244140625 79.9375 656.916992188 169.026367188 c 0
 676.91015625 254.737304688 677.694335938 364.861328125 677.69921875 365.401367188 c 2
 677.819335938 378 l 1
 665.700195312 378 l 1
EndSplineSet
EndChar

StartChar: H
Encoding: 72 72 41
Width: 816
VWidth: 1024
Flags: HW
LayerCount: 2
Fore
SplineSet
658.930664062 392.822265625 m 1
 646.919921875 392.999023438 l 1
 194.120117188 399.999023438 l 1
 182.127929688 400.174804688 l 1
 181.9453125 388.182617188 l 1
 176.141601562 6.06640625 l 1
 95.8740234375 13.0126953125 l 1
 92.9716796875 464.819335938 l 1
 92.9443359375 471.052734375 l 1
 91 916.294921875 l 1
 189.766601562 910.673828125 l 1
 182.946289062 473.1875 l 1
 182.752929688 460.8203125 l 1
 195.120117188 461.000976562 l 1
 648.919921875 468.000976562 l 1
 660.560546875 468.171875 l 1
 660.743164062 479.8125 l 1
 667.557617188 915 l 1
 737.80859375 915 l 1
 742.681640625 12.583984375 l 1
 652.940429688 9.435546875 l 1
 658.743164062 380.8125 l 1
 658.930664062 392.822265625 l 1
EndSplineSet
EndChar

StartChar: I
Encoding: 73 73 42
Width: 259
VWidth: 1024
Flags: HW
LayerCount: 2
Fore
SplineSet
97.6240234375 15.80078125 m 1
 85.7998046875 917.373046875 l 1
 179.8515625 912.590820312 l 1
 185.731445312 13 l 1
 156.77734375 13 l 2
 156.77734375 14 156.77734375 13.7978515625 156.77734375 14.7978515625 c 2
 144.98046875 14.998046875 l 1
 97.6240234375 15.80078125 l 1
EndSplineSet
EndChar

StartChar: J
Encoding: 74 74 43
Width: 587
VWidth: 1024
Flags: HW
LayerCount: 2
Fore
SplineSet
79.2998046875 205 m 2
 79.2998046875 257.947265625 l 1
 173.299804688 274.67578125 l 1
 173.299804688 235 l 2
 173.299804688 98.5625 189.552734375 83.37109375 296.05904441 72.0546875 c 0
 307.286476733 70.779296875 316.721210734 73.5634765625 318.741291748 74.193359375 c 0
 424.399414062 87.6796875 433.299804688 109.712890625 433.299804688 225 c 2
 433.299804688 271.943359375 l 1
 439.194335938 896.788085938 l 1
 517.174804688 902.139648438 l 1
 507.299804688 273.09375 l 1
 507.299804688 15.0068359375 503.28515625 -14.0263671875 297.024596999 -15 c 2
 271.800771387 -15 l 2
 132.377929688 -15 79.2998046875 -7.748046875 79.2998046875 205 c 2
EndSplineSet
EndChar

StartChar: K
Encoding: 75 75 44
Width: 746
VWidth: 1024
Flags: HW
LayerCount: 2
Fore
SplineSet
190.25390625 15.9501953125 m 1
 96.2060546875 23.123046875 l 1
 92.2998046875 927.434570312 l 1
 186.3203125 939.38671875 l 1
 188.25390625 542.94140625 l 1
 188.407226562 511.5390625 l 1
 209.235351562 535.041015625 l 1
 547.258105213 943.407226562 l 1
 676.771484375 929.479492188 l 1
 424.641402983 618.735351562 l 1
 419.924923597 612.697265625 l 1
 423.197416584 605.6328125 l 1
 703.0859375 25.9814453125 l 1
 603.892578125 35.3544921875 l 1
 351.308427031 514.859375 l 1
 343.955496287 529.043945312 l 1
 333.561689424 517.283203125 l 1
 193.571289062 363.283203125 l 1
 190.25390625 359.805664062 l 1
 190.25390625 355 l 1
 190.25390625 15.9501953125 l 1
EndSplineSet
EndChar

StartChar: L
Encoding: 76 76 45
Width: 610
VWidth: 1024
Flags: HW
LayerCount: 2
Fore
SplineSet
191.51171875 942 m 1
 201.275390625 934.48828125 208.10546875 928.983398438 219.634765625 920.114257812 c 0
 220.426757812 919.50390625 234.61328125 919.87890625 235.40625 920.489257812 c 2
 260.762556215 942 l 1
 228.088867188 942 l 1
 226.7890625 942 l 1
 191.51171875 942 l 1
200.942382812 10.37890625 m 1
 96.189453125 13.6357421875 l 1
 88.400390625 918.151367188 l 1
 182.505859375 911.771484375 l 1
 198.291992188 100.766601562 l 1
 198.520507812 89 l 1
 210.2890625 89 l 2
 433.536132812 89 522.521484375 88.6611328125 548.163085938 87.6796875 c 1
 564.215820312 12 l 1
 212.942382812 12 l 1
 200.942382812 12 l 1
 200.942382812 10.37890625 l 1
EndSplineSet
EndChar

StartChar: M
Encoding: 77 77 46
Width: 1000
VWidth: 1024
Flags: HW
LayerCount: 2
Fore
SplineSet
87.099609375 12.0595703125 m 1
 98.7587890625 914.708984375 l 1
 243.162934751 911.204101562 l 1
 483.272339661 198.016601562 l 1
 493.604629307 167.326171875 l 1
 504.814294607 197.678710938 l 1
 770.392821526 916.831054688 l 1
 859.813476562 915.00390625 l 1
 927.020507812 913.302734375 l 1
 919.633789062 12.1875 l 1
 831.9609375 27.060546875 l 1
 865.106445312 798.485351562 l 1
 868.006835938 865.994140625 l 1
 842.0390625 803.611328125 l 1
 523.760563114 12 l 1
 456.670758343 12 l 2
 455.66350493 14.427734375 455.244906109 16.0498046875 455.015984879 16.6015625 c 0
 454.31800872 18.6474609375 454.243258931 19.521484375 453.728419756 21.029296875 c 2
 195.219726562 773.029296875 l 1
 170.755859375 841.649414062 l 1
 171.918945312 768.80859375 l 1
 183.751953125 27.2373046875 l 1
 87.099609375 12.0595703125 l 1
EndSplineSet
EndChar

StartChar: N
Encoding: 78 78 47
Width: 823
VWidth: 1024
Flags: HW
LayerCount: 2
Fore
SplineSet
668.090820312 142.157226562 m 1
 657.864257812 920.977539062 l 1
 745.139648438 913.926757812 l 1
 749.041992188 10.6171875 l 1
 583.098278915 5.2255859375 l 1
 202.981445312 703.004882812 l 1
 179.720703125 743.249023438 l 1
 180.59375 696.774414062 l 1
 193.458007812 12 l 1
 93.599609375 12 l 1
 94.5771484375 920.965820312 l 1
 208.59375 903.016601562 l 1
 645.807617188 135.817382812 l 1
 668.673828125 97.7802734375 l 1
 668.090820312 142.157226562 l 1
EndSplineSet
EndChar

StartChar: O
Encoding: 79 79 48
Width: 868
VWidth: 1024
Flags: HW
LayerCount: 2
Fore
SplineSet
435.976983166 840 m 0
 229.86328125 840 179.700195312 762.283203125 179.700195312 451 c 0
 179.700195312 119.407226562 220.725585938 63 454.414071986 63 c 0
 637.729591975 63 698.400390625 110.28515625 698.400390625 322 c 0
 698.400390625 360.587890625 695.784179688 402.619140625 693.180664062 451.694335938 c 0
 673.633789062 762.434570312 625.113186644 840 435.976983166 840 c 0
801.400390625 309 m 0
 801.400390625 32.6572265625 747.612304688 -15 472.851160807 -15 c 0
 119.37890625 -15 76.7001953125 32.8505859375 76.7001953125 451 c 0
 76.7001953125 841.734375 128.802734375 917 435.976983166 917 c 0
 726.116210938 917 778.502929688 841.584960938 797.411132812 450.484375 c 0
 799.407226562 397.599609375 801.400390625 350.578125 801.400390625 309 c 0
EndSplineSet
EndChar

StartChar: P
Encoding: 80 80 49
Width: 692
VWidth: 1024
Flags: HW
LayerCount: 2
Fore
SplineSet
180.430664062 410 m 1
 192.053710938 410 l 1
 374.484361002 410 l 2
 507.168945312 410 547.954101562 423.587890625 547.954101562 557 c 0
 547.954101562 583.463867188 546.650390625 613.34765625 545.34375 649.533203125 c 0
 536.096679688 824.290039062 519.765625 842 362.710513455 842 c 2
 179.053710938 842 l 1
 166.666015625 842 l 1
 167.060546875 829.618164062 l 1
 180.060546875 421.618164062 l 1
 180.430664062 410 l 1
92.98046875 -8.328125 m 1
 87.099609375 915 l 1
 286.180504406 915 l 2
 559.311523438 915 612.208007812 911.049804688 621.961914062 652.586914062 c 0
 623.962890625 594.54296875 625.954101562 546.604492188 625.954101562 507 c 0
 625.954101562 345.094726562 602.778320312 337 368.597437228 337 c 2
 194.654296875 337 l 1
 182.280273438 337 l 1
 182.66015625 324.19140625 l 1
 192.6640625 -12.490234375 l 1
 92.98046875 -8.328125 l 1
EndSplineSet
EndChar

StartChar: Q
Encoding: 81 81 50
Width: 869
VWidth: 1024
Flags: HW
LayerCount: 2
Fore
SplineSet
537.515798852 67.9326171875 m 1
 523.120288232 85.7861328125 l 1
 460.83147061 163.0390625 l 1
 555.642008229 181.926757812 l 1
 616.523502855 107.168945312 l 1
 623.635839939 98.4365234375 l 1
 632.173968825 105.598632812 l 2
 674.790039062 140.131835938 720.299804688 196.157226562 720.299804688 302 c 0
 720.299804688 343.438476562 712.435546875 398.336914062 708.569335938 452.853515625 c 0
 686.348632812 764.5546875 615.86324305 840 437.041801958 840 c 0
 235.921124836 840 158.700195312 774.034179688 158.700195312 461 c 0
 158.700195312 133.754882812 225.286132812 63 437.041801958 63 c 0
 465.567795838 63 491.678993369 64.0078125 515.40217432 66.0390625 c 2
 537.515798852 67.9326171875 l 1
437.041801958 -15 m 0
 112.323242188 -15 76.7001953125 39.998046875 76.7001953125 451 c 0
 76.7001953125 841.74609375 127.787109375 917 437.041801958 917 c 0
 724.944335938 917 775.413085938 841.645507812 797.314453125 450.400390625 c 0
 800.310546875 390.479492188 802.299804688 338.659179688 802.299804688 292 c 0
 802.299804688 129.048828125 778.0859375 54.0859375 709.65234375 17.587890625 c 2
 698.065429688 11.408203125 l 1
 705.262695312 0.423828125 l 1
 736.145507812 -46.71484375 l 1
 663.060546875 -86.7509765625 l 1
 603.077288848 -12.2802734375 l 1
 599.204380288 -7.40625 l 1
 593.215870032 -8.064453125 l 2
 548.302504835 -13.001953125 497.03956423 -15 437.041801958 -15 c 0
EndSplineSet
EndChar

StartChar: R
Encoding: 82 82 51
Width: 704
VWidth: 1024
Flags: HW
LayerCount: 2
Fore
SplineSet
187.559570312 432 m 1
 199.599609375 432 l 1
 369.963196325 432 l 2
 524.45703125 432 539.900390625 452.12109375 539.900390625 649 c 0
 539.900390625 834.365234375 529.729492188 857 425.749943282 857 c 0
 325.4609455 857 276.210753627 848.950195312 200.295898438 844.984375 c 2
 188.938476562 844.412109375 l 1
 188.900390625 833.040039062 l 1
 187.599609375 444.040039062 l 1
 187.559570312 432 l 1
478.98216421 344.370117188 m 1
 653.9609375 11.306640625 l 1
 545.046875 7.2724609375 l 1
 377.312028271 352.533203125 l 1
 374.243922141 359 l 1
 367.589671617 359 l 1
 199.599609375 359 l 1
 187.599609375 359 l 1
 187.599609375 347 l 1
 187.599609375 5.1708984375 l 1
 93.599609375 13.93359375 l 1
 93.599609375 915 l 1
 365.216146909 915 l 2
 631.129882812 915 633.900390625 910.618164062 633.900390625 649 c 0
 633.900390625 409.79296875 628.623046875 371.409179688 487.929692551 361.973632812 c 2
 471.03950527 360.743164062 l 1
 478.98216421 344.370117188 l 1
EndSplineSet
EndChar

StartChar: S
Encoding: 83 83 52
Width: 731
VWidth: 1024
Flags: HW
LayerCount: 2
Fore
SplineSet
246.918220706 22 m 0
 126.807617188 22 104.78515625 36.595703125 77.203125 194.2109375 c 0
 75.9833984375 200.310546875 74.94921875 207.706054688 74.099609375 213.239257812 c 1
 152.338867188 234.154296875 l 1
 177.452148438 122.478515625 212.206054688 102 315.189101507 102 c 0
 348.924155208 102 389.679022452 103.002929688 441.145358579 104.001953125 c 0
 555.69921875 106.106445312 556.302734375 137.380859375 567.95703125 261.890625 c 0
 569.252929688 275.848632812 570.607421875 289.075195312 570.607421875 301 c 0
 570.607421875 387.533203125 517.001953125 400.366210938 348.161171116 429.834960938 c 0
 79.1181640625 478.534179688 81.3095703125 486.751953125 75.4072265625 702.1640625 c 0
 75.4072265625 715.385742188 74.4072265625 728.762695312 74.4072265625 740 c 0
 74.4072265625 916.4375 111.001953125 941 341.539944782 941 c 0
 388.394186033 941 426.78632188 942 458.918029293 942 c 0
 579.251953125 942 598.923828125 932.143554688 650.24609375 781.138671875 c 2
 650.34765625 780.837890625 l 1
 650.465820312 780.54296875 l 2
 650.8125 779.67578125 651.32421875 778.189453125 651.516601562 777.619140625 c 2
 565.229492188 748.856445312 l 1
 523.381835938 843.14453125 495.193064234 855 415.799530907 855 c 2
 341.539944782 855 l 2
 214.963867188 855 166.307617188 828.373046875 166.307617188 698 c 0
 166.307617188 685.092773438 166.313476562 668.444335938 167.633789062 652.192382812 c 0
 173.228515625 547.82421875 194.407226562 536.766601562 447.493062315 493.16796875 c 0
 644.609375 457.166992188 663.607421875 449.66015625 663.607421875 319 c 0
 663.607421875 305.692382812 662.607421875 290.23828125 662.607421875 273.17578125 c 0
 656.696289062 71.19921875 657.171875 29.9208984375 397.666962036 24.9990234375 c 0
 336.453684085 23.99609375 287.313189794 22 246.918220706 22 c 0
EndSplineSet
EndChar

StartChar: T
Encoding: 84 84 53
Width: 695
VWidth: 1024
Flags: HW
LayerCount: 2
Fore
SplineSet
344.088144612 11.2138671875 m 1
 344.088144612 8 l 1
 311.874400173 8 l 1
 311.874400173 835 l 1
 311.874400173 846.7265625 l 1
 301.084054135 846.997070312 l 1
 59.7998046875 852.7265625 l 1
 59.7998046875 872 l 2
 60.7998046875 872 60.2548828125 872 61.2548828125 872 c 2
 61.787109375 883.442382812 l 1
 63.2548828125 915 l 1
 645.6796875 915 l 1
 645.6796875 838.142578125 l 1
 409.656237332 842.998046875 l 1
 398.391313809 843.2421875 l 1
 398.391313809 831 l 1
 398.391313809 15.2138671875 l 1
 354.385936745 11.97265625 l 1
 344.088144612 11.2138671875 l 1
EndSplineSet
EndChar

StartChar: U
Encoding: 85 85 54
Width: 776
VWidth: 1024
Flags: HW
LayerCount: 2
Fore
SplineSet
88.0751953125 905.87890625 m 1
 180.109375 890.803710938 l 1
 181.099609375 368 l 2
 181.099609375 101.564453125 198.65625 77 396.859206361 77 c 0
 570.989257812 77 587.944335938 101.697265625 603.579101562 368.297851562 c 2
 603.606445312 368.763671875 l 1
 603.59765625 369.231445312 l 1
 593.419921875 897.696289062 l 1
 705.5546875 904.272460938 l 1
 703.600585938 347.291015625 l 1
 687.702148438 -6.44140625 681.483398438 -15 396.859206361 -15 c 0
 92.9853515625 -15 87.099609375 -6.6865234375 87.099609375 346.979492188 c 2
 88.0751953125 905.87890625 l 1
EndSplineSet
EndChar

StartChar: V
Encoding: 86 86 55
Width: 719
VWidth: 1024
Flags: HW
LayerCount: 2
Fore
SplineSet
306.060489633 12 m 1
 54.599609375 900.141601562 l 1
 149.260742188 921.80078125 l 1
 351.464208842 213.538085938 l 1
 361.829085473 176.435546875 l 1
 372.720038222 213.362304688 l 1
 587.421875 923.33203125 l 1
 668.66015625 900.678710938 l 1
 423.619034472 12 l 1
 412.203816538 12 l 1
 413.140069044 7.3408203125 l 1
 363.065047437 11.9560546875 l 1
 362.592393851 12 l 1
 362.117023865 12 l 1
 306.060489633 12 l 1
EndSplineSet
EndChar

StartChar: W
Encoding: 87 87 56
Width: 997
VWidth: 1024
Flags: HW
LayerCount: 2
Fore
SplineSet
253.950624553 -9.134765625 m 1
 55.900390625 913.416992188 l 1
 139.82421875 935.13671875 l 1
 302.319128544 225.193359375 l 1
 314.497769219 171.057617188 l 1
 324.820447328 225.631835938 l 1
 457.857982387 928.962890625 l 1
 563.357121883 933.340820312 l 1
 759.372653036 201.095703125 l 1
 775.395452662 141.239257812 l 1
 781.903982331 203.104492188 l 1
 862.852539062 945.455078125 l 1
 945.388671875 914.309570312 l 1
 816.40625 -14.716796875 l 1
 703.41148965 -0.6806640625 l 1
 538.140789642 659.961914062 l 1
 526.439503665 706.736328125 l 1
 515.804528672 659.671875 l 2
 466.152137488 439.9296875 416.136806681 218.125976562 366.719810446 -0.3115234375 c 1
 253.950624553 -9.134765625 l 1
EndSplineSet
EndChar

StartChar: X
Encoding: 88 88 57
Width: 715
VWidth: 1024
Flags: HW
LayerCount: 2
Fore
SplineSet
135.663085938 -14 m 1
 126.383789062 -19.037109375 l 1
 126.8984375 -8.80859375 l 1
 57.2001953125 -1.4130859375 l 1
 298.957129076 506.161132812 l 1
 95.5615234375 928.06640625 l 1
 174.1171875 934.263671875 l 1
 352.580835559 602.875976562 l 1
 535.099609375 942.1484375 l 1
 643.323242188 928.794921875 l 1
 424.250252919 470.176757812 l 1
 657.333984375 -16.2333984375 l 1
 567.369140625 -1.11328125 l 1
 371.891614021 363.193359375 l 1
 167.728515625 -14 l 1
 135.663085938 -14 l 1
EndSplineSet
EndChar

StartChar: Y
Encoding: 89 89 58
Width: 705
VWidth: 1024
Flags: HW
LayerCount: 2
Fore
SplineSet
551.8203125 948.59765625 m 1
 649.634765625 922.94140625 l 1
 401.06873701 454.84765625 l 1
 392.552058068 459.459960938 l 1
 392.633186466 439.946289062 l 1
 394.426124063 -4.1357421875 l 1
 306.835398397 2.244140625 l 1
 308.63464598 442.9453125 l 1
 308.715774378 462.4609375 l 1
 300.209912556 457.853515625 l 1
 53.2998046875 924.172851562 l 1
 146.348632812 942.309570312 l 1
 338.57372914 553.310546875 l 1
 348.360518224 533.623046875 l 1
 358.094123137 553.340820312 l 1
 551.8203125 948.59765625 l 1
EndSplineSet
EndChar

StartChar: Z
Encoding: 90 90 59
Width: 757
VWidth: 1024
Flags: HW
LayerCount: 2
Fore
SplineSet
154.118164062 94.3720703125 m 1
 177.610351562 94.001953125 l 1
 708.3984375 85.2490234375 l 1
 687.286132812 12.1103515625 l 1
 72.7998046875 19.85546875 l 1
 72.7998046875 102.365234375 l 1
 537.303682394 819.25390625 l 1
 549.174192156 838 l 1
 528.057113013 838 l 1
 97.5634765625 838 l 1
 89.177734375 915 l 1
 684.280273438 915 l 1
 684.280273438 835.33984375 l 1
 682.670898438 833.1875 l 1
 168.190429688 113.1875 l 1
 154.118164062 94.3720703125 l 1
EndSplineSet
EndChar

StartChar: bracketleft
Encoding: 91 91 60
Width: 378
VWidth: 1024
Flags: HW
LayerCount: 2
Fore
SplineSet
171.600735131 919.83563186 m 1
 184.600735131 -29.1643681403 l 1
 184.755173906 -40.4383987061 l 1
 196.016964043 -40.9858468377 l 1
 326.903683934 -47.3483957213 l 1
 319.154726376 -103 l 1
 109.557094008 -103 l 1
 105.642275907 1000 l 1
 318.970307853 1000 l 1
 310.053954211 930.155229806 l 1
 183.774773193 931.9987215 l 1
 171.431649087 932.178913093 l 1
 171.600735131 919.83563186 l 1
EndSplineSet
EndChar

StartChar: backslash
Encoding: 92 92 61
Width: 450
VWidth: 1024
Flags: HW
LayerCount: 2
Fore
SplineSet
350.085352769 19.3127564103 m 1
 77.9744375772 916.988266669 l 1
 157.926892244 927.751097105 l 1
 422.356265863 69.8246849171 l 1
 350.085352769 19.3127564103 l 1
EndSplineSet
EndChar

StartChar: bracketright
Encoding: 93 93 62
Width: 378
VWidth: 1024
Flags: HW
LayerCount: 2
Fore
SplineSet
183.796792049 -15.2688759174 m 1
 204.796792049 921.731124083 l 1
 205.060984709 933.519148962 l 1
 193.279421148 933.990411505 l 1
 78.7637975706 938.571036448 l 1
 72.9822480598 1000 l 1
 286.757138156 1000 l 1
 282.842320055 -103 l 1
 75.9401985244 -103 l 1
 82.7682971553 -27.8909150603 l 1
 171.919798688 -26.999400045 l 1
 183.536491621 -26.8832331157 l 1
 183.796792049 -15.2688759174 l 1
EndSplineSet
EndChar

StartChar: asciicircum
Encoding: 94 94 63
Width: 820
VWidth: 1024
Flags: HW
LayerCount: 2
Fore
SplineSet
685.690839712 353.090095436 m 1
 431.458269967 704.039871039 l 1
 421.772183652 717.410816476 l 1
 412.044285528 704.070259964 l 1
 153.748533918 349.850979797 l 1
 90.1214889564 368.134613407 l 1
 367.325262534 811.06294954 l 1
 459.52918192 811.938573807 l 1
 749.346328788 373.576919506 l 1
 685.690839712 353.090095436 l 1
EndSplineSet
EndChar

StartChar: underscore
Encoding: 95 95 64
Width: 876
VWidth: 1024
Flags: HW
LayerCount: 2
Fore
SplineSet
128.92882016 -120 m 1
 118.30382016 -80 l 1
 769.589109896 -80 l 1
 780.839109896 -120 l 1
 128.92882016 -120 l 1
EndSplineSet
EndChar

StartChar: grave
Encoding: 96 96 65
Width: 340
VWidth: 1024
Flags: HW
LayerCount: 2
Fore
SplineSet
92.7801495011 952.615338027 m 1
 158.473420951 999.211728242 l 1
 194.736231741 946.937924632 228.446241104 895.117006322 260.652863217 841.887937449 c 1
 208.867094082 801.199118843 l 1
 171.029900398 853.904065251 131.759089521 904.39397434 92.7801495011 952.615338027 c 1
EndSplineSet
EndChar

StartChar: a
Encoding: 97 97 66
Width: 662
VWidth: 1024
Flags: HW
LayerCount: 2
Fore
SplineSet
514.202148438 317.075195312 m 1
 503.463867188 318.166992188 l 2
 503.228515625 318.190429688 331.483269672 337 266.31826436 337 c 0
 180.458007812 337 162.0234375 298.162109375 151.633789062 155.420898438 c 2
 151.599609375 154.947265625 l 1
 151.599609375 154.47265625 l 2
 151.599609375 148.716796875 150.299804688 141.415039062 150.299804688 132.5703125 c 0
 150.299804688 66.8935546875 185.138671875 46 241.906057189 46 c 0
 268.263032214 46 296.392741296 49.1845703125 332.512852654 53.3662109375 c 0
 418.543723756 63.658203125 499.796875 85.5673828125 515.266601562 152.586914062 c 2
 515.612304688 154.086914062 l 1
 515.598632812 155.62890625 l 1
 514.298828125 305.822265625 l 1
 514.202148438 317.075195312 l 1
162.543945312 566.778320312 m 1
 90.0634765625 588.415039062 l 1
 106.259765625 672.444335938 126.418945312 714 277.943208086 714 c 0
 294.977173855 714 313.551584391 713.009765625 333.200114577 712.015625 c 0
 551.790039062 698.641601562 562.96484375 705.6796875 579.638671875 486.604492188 c 0
 588.590820312 372.430664062 590.599609375 238.216796875 590.599609375 136.024414062 c 0
 590.599609375 64.4072265625 589.5 7.5732421875 588.946289062 -16.5009765625 c 1
 541.799804688 -10.8955078125 530.748046875 -10.1640625 526.46484375 -8.8037109375 c 1
 525.486328125 -2.9169921875 525.739257812 10.8740234375 522.478515625 33.697265625 c 2
 518.409179688 62.185546875 l 1
 501.034179688 39.2451171875 l 2
 470.825195312 -0.6376953125 403.874567754 0.19921875 259.478829319 -14.0546875 c 0
 241.176005134 -16.0234375 222.9609375 -17 205.200195312 -17 c 0
 116.624023438 -17 79.2998046875 10.498046875 79.2998046875 157.330078125 c 0
 79.2998046875 403.790039062 104.247070312 409.609375 257.285180082 413.639648438 c 1
 433.042592498 408.478515625 500.29296875 404.318359375 500.29296875 404.318359375 c 1
 514.323242188 403.459960938 l 1
 512.942382812 417.97265625 l 2
 497.504882812 580.220703125 516.130859375 638.51171875 334.170315334 640.8828125 c 0
 307.13306453 643.061523438 290.290344455 644 273.293055942 644 c 0
 209.7265625 644 183.212890625 623.177734375 162.543945312 566.778320312 c 1
EndSplineSet
EndChar

StartChar: b
Encoding: 98 98 67
Width: 672
VWidth: 1024
Flags: HW
LayerCount: 2
Fore
SplineSet
337.439245068 641 m 0
 221.491210938 641 183.901367188 602.518554688 177.287109375 429.564453125 c 1
 177.287109375 279.013671875 l 2
 181.25 95.7451171875 218.58203125 56 337.439245068 56 c 0
 475.1328125 56 542.586914062 87.068359375 542.586914062 333.379882812 c 2
 542.586914062 333.833007812 l 1
 542.555664062 334.28515625 l 2
 525.499023438 579.5078125 460.877929688 641 337.439245068 641 c 0
382.913695245 711 m 0
 568.495117188 711 592.60546875 672.049804688 609.586914062 347.6640625 c 1
 609.586914062 24.4775390625 585.764648438 -15 382.913695245 -15 c 0
 289.672502801 -15 233.413085938 -5.31640625 196.294921875 27.9375 c 2
 176.287109375 45.8623046875 l 1
 176.287109375 19 l 1
 176.287109375 -0.611328125 l 1
 92.2998046875 -13.083984375 l 1
 95.2373046875 938.33984375 l 1
 178.586914062 915.8125 l 1
 178.586914062 915.06640625 l 1
 177.287109375 679.06640625 l 1
 177.14453125 653.1015625 l 1
 197.012695312 669.817382812 l 2
 234.495117188 701.352539062 290.912810633 711 382.913695245 711 c 0
EndSplineSet
EndChar

StartChar: c
Encoding: 99 99 68
Width: 632
VWidth: 1024
Flags: HW
LayerCount: 2
Fore
SplineSet
333.621042138 72 m 0
 438.071289062 72 486.639648438 73.5625 501.643554688 140.991210938 c 1
 568.961914062 128.415039062 l 1
 549.416015625 26.4765625 546.3046875 2 333.621042138 2 c 0
 103.03125 2 90.6416015625 -5.0361328125 78.6953125 355.352539062 c 0
 77.6943359375 389.36328125 76.7001953125 421.28125 76.7001953125 449 c 0
 76.7001953125 679.383789062 114.116210938 696 278.411466338 696 c 0
 295.209872747 696 313.93678667 695 333.476749685 695 c 0
 560.38671875 688.5546875 552.64453125 633.20703125 569.3671875 578.674804688 c 1
 502.009765625 562.958007812 l 1
 489.071289062 597.084960938 479.53515625 628.08984375 333.621042138 629 c 0
 314.389536643 629 297.206638368 630 280.712369345 630 c 0
 189.567382812 630 151.700195312 597.482421875 151.700195312 377 c 0
 151.700195312 105.00390625 206.813476562 72 333.621042138 72 c 0
EndSplineSet
EndChar

StartChar: d
Encoding: 100 100 69
Width: 663
VWidth: 1024
Flags: HW
LayerCount: 2
Fore
SplineSet
294.259717481 -15 m 0
 99.4697265625 -15 75.400390625 23.65234375 75.400390625 347.6640625 c 1
 92.361328125 671.646484375 116.754882812 711 294.259717481 711 c 0
 385.865925119 711 442.092773438 701.352539062 479.57421875 669.817382812 c 2
 499.442382812 653.1015625 l 1
 499.299804688 679.06640625 l 1
 498 915 l 1
 525.73046875 922.495117188 554.646484375 931.123046875 581.349609375 938.33984375 c 1
 584.287109375 -13.083984375 l 1
 500.299804688 -0.611328125 l 1
 500.299804688 19 l 1
 500.299804688 45.8623046875 l 1
 480.29296875 27.9375 l 2
 443.172851562 -5.3173828125 387.100900365 -15 294.259717481 -15 c 0
499.299804688 279.013671875 m 2
 499.299804688 429.564453125 l 1
 492.672851562 602.852539062 455.099609375 641 339.539526704 641 c 0
 215 641 187.319335938 591.678710938 170.431640625 348.883789062 c 2
 170.400390625 348.431640625 l 1
 170.400390625 347.978515625 l 2
 170.400390625 105.411132812 198.5078125 56 339.539526704 56 c 0
 458.004882812 56 495.338867188 95.74609375 499.299804688 279.013671875 c 2
EndSplineSet
EndChar

StartChar: e
Encoding: 101 101 70
Width: 637
VWidth: 1024
Flags: HW
LayerCount: 2
Fore
SplineSet
484.299804688 455 m 0
 484.299804688 608.802734375 448.309570312 648 313.195232032 648 c 2
 303.942272884 648 l 2
 190.091796875 648 156.700195312 635.307617188 156.700195312 430 c 2
 156.700195312 415 l 1
 156.700195312 403.254882812 l 1
 168.442382812 403.002929688 l 1
 470.7421875 396.002929688 l 1
 483 395.740234375 l 1
 483 408 l 2
 483 424.401367188 484.299804688 440.274414062 484.299804688 455 c 0
156.37109375 314.055664062 m 1
 156.705078125 301.766601562 l 2
 163.266601562 59.912109375 195.643554688 48 331.700281505 48 c 2
 338.639566454 48 l 2
 430.84765625 48 463.603515625 67.806640625 500.095703125 151.807617188 c 1
 578.637695312 131.588867188 l 1
 535.647460938 5.64453125 508.577148438 -12 340.95237183 -12 c 0
 107.66796875 -12 83.662109375 -21.8486328125 77.7001953125 361.40625 c 0
 77.7001953125 386.345703125 76.7001953125 408.302734375 76.7001953125 430.590820312 c 0
 76.7001953125 715.6640625 109.334960938 710.884765625 329.500423048 716 c 0
 350.35824373 716 369.154348725 717 386.059027235 717 c 0
 536.158203125 717 554.299804688 698.608398438 554.299804688 531.33984375 c 0
 554.299804688 480.493164062 552.408203125 412.342773438 549.698242188 332.657226562 c 1
 429.508789062 326.579101562 303.122104486 320.59375 168.21484375 314.552734375 c 2
 156.37109375 314.055664062 l 1
EndSplineSet
EndChar

StartChar: f
Encoding: 102 102 71
Width: 424
VWidth: 1024
Flags: HW
LayerCount: 2
Fore
SplineSet
231.444335938 695.384765625 m 1
 242.677734375 694.641601562 l 1
 357.516601562 687.05078125 l 1
 364.102539062 619.034179688 l 1
 244.159179688 626.4296875 l 1
 231.485351562 627.211914062 l 1
 231.444335938 614.098632812 l 1
 229.487304688 -17.626953125 l 1
 152.426757812 -8.9501953125 l 1
 151.444335938 621.971679688 l 1
 151.42578125 633.736328125 l 1
 140.0625 634.341796875 l 1
 55.900390625 638.827148438 l 1
 63.98828125 708.005859375 l 1
 138.609375 702.624023438 l 1
 151.444335938 701.698242188 l 1
 151.444335938 715 l 1
 151.444335938 773.775390625 l 1
 157.473632812 934.565429688 147.9140625 927 239.444335938 927 c 2
 358.099609375 927 l 1
 368.41796875 857.715820312 l 1
 303.043945312 860.985351562 l 1
 302.744140625 861 l 1
 302.444335938 861 l 2
 294.3203125 861 286.5703125 862 278.444335938 862 c 0
 233.321289062 862 234.294921875 832.250976562 231.444335938 738.181640625 c 2
 231.444335938 707.009765625 l 1
 231.444335938 695.384765625 l 1
EndSplineSet
EndChar

StartChar: g
Encoding: 103 103 72
Width: 622
VWidth: 1024
Flags: HW
LayerCount: 2
Fore
SplineSet
461.612304688 304 m 0
 461.612304688 534.2578125 451.090820312 625 317.66375317 625 c 2
 293.785065256 625 l 2
 179.86328125 625 152.8125 603.940429688 152.8125 344 c 0
 152.8125 107.4375 165.857421875 83 273.317130368 83 c 2
 333.583163174 83 l 2
 436.909179688 83 461.612304688 102.211914062 461.612304688 304 c 0
94.3564453125 -152.791015625 m 1
 124.233398438 -163.678710938 200.705078125 -188 285.825787346 -188 c 0
 437.828125 -188 459.612304688 -126.861328125 459.612304688 -48 c 2
 459.612304688 -12 l 1
 459.612304688 1.142578125 l 1
 446.922851562 0.3876953125 l 1
 446.922851562 0.3876953125 349.185671256 -5.7958984375 261.946245249 -5.7958984375 c 2
 250.575360129 -5.7958984375 l 2
 73.3603515625 -5.7958984375 78.8125 -16.1083984375 78.8125 339.552734375 c 2
 78.8125 351.9609375 l 2
 78.8125 691.799804688 101.844726562 700.412109375 233.51903245 700.412109375 c 2
 317.66375317 700.412109375 l 2
 393.749023438 700.412109375 404.51953125 700.176757812 439.708984375 668.328125 c 2
 459.612304688 650.313476562 l 1
 459.612304688 677.6640625 l 1
 459.612304688 698.73046875 l 1
 544.815429688 718.307617188 l 1
 544.61328125 703.6953125 l 1
 534.6171875 -18.5732421875 l 1
 522.643554688 -229.106445312 526.744140625 -231.028320312 385.405596265 -256.141601562 c 0
 366.987700761 -259 345.370035452 -261 324.486113405 -261 c 0
 229.930609344 -261 119.2421875 -234.71484375 68.900390625 -223.287109375 c 1
 79.53515625 -195.563476562 79.0576171875 -200.278320312 94.3564453125 -152.791015625 c 1
EndSplineSet
EndChar

StartChar: h
Encoding: 104 104 73
Width: 580
VWidth: 1024
Flags: HW
LayerCount: 2
Fore
SplineSet
510.681640625 18.015625 m 1
 435.470703125 24.0927734375 l 1
 422.759765625 504.159179688 l 1
 422.759765625 522 l 2
 422.759765625 614.3046875 393.506835938 624 305.068487115 624 c 0
 197.900390625 624 167.959960938 604.375976562 167.959960938 511 c 2
 167.959960938 30.279296875 l 1
 79 24.7685546875 l 1
 81.9111328125 953.302734375 l 1
 167.959960938 929.833984375 l 1
 167.959960938 685 l 1
 167.959960938 662.200195312 l 1
 186.75390625 675.108398438 l 2
 218.98828125 697.247070312 269.250400163 705 352.947733247 705 c 0
 494.219726562 705 507.759765625 703.673828125 507.759765625 503.927734375 c 2
 510.681640625 18.015625 l 1
EndSplineSet
EndChar

StartChar: i
Encoding: 105 105 74
Width: 257
VWidth: 1024
Flags: HW
LayerCount: 2
Fore
SplineSet
180.482421875 9.767578125 m 1
 91.564453125 15.275390625 l 1
 95.4326171875 693.110351562 l 1
 179.516601562 693.888671875 l 1
 180.482421875 9.767578125 l 1
187.66796875 806.825195312 m 1
 84.5 813.2734375 l 1
 84.5 909 l 1
 181.232421875 909 l 1
 187.66796875 806.825195312 l 1
EndSplineSet
EndChar

StartChar: j
Encoding: 106 106 75
Width: 305
VWidth: 1024
Flags: HW
LayerCount: 2
Fore
SplineSet
46.7998046875 -171.939453125 m 1
 46.7998046875 -103 l 1
 79.439453125 -112.51953125 l 1
 83.2431640625 -113.62890625 l 1
 86.9599609375 -112.255859375 l 2
 131.625 -95.7490234375 144.799804688 -92.302734375 144.799804688 -46 c 2
 144.799804688 -11.8623046875 l 1
 129.078125 673 l 1
 227.521484375 673 l 1
 211.799804688 -11.8623046875 l 1
 211.799804688 -84 l 2
 211.799804688 -161.376953125 212.31640625 -146.452148438 112.659179688 -183.611328125 c 1
 46.7998046875 -171.939453125 l 1
218.799804688 814 m 1
 123.799804688 814 l 1
 123.799804688 909 l 1
 218.799804688 909 l 1
 218.799804688 814 l 1
EndSplineSet
EndChar

StartChar: k
Encoding: 107 107 76
Width: 555
VWidth: 1024
Flags: HW
LayerCount: 2
Fore
SplineSet
165.991210938 -18.0263671875 m 1
 81.900390625 -4.4375 l 1
 108.27734375 908.224609375 l 1
 192.213867188 917.55078125 l 1
 178.596679688 414.42578125 l 1
 177.669921875 380.181640625 l 1
 199.629882812 405.981445312 l 1
 424.578125 698.465820312 l 1
 495.396484375 661.733398438 l 1
 316.713669579 444.813476562 l 1
 312.291406683 438.64453125 l 1
 315.227646015 431.251953125 l 1
 510.310546875 4.767578125 l 1
 417.694335938 -17.98046875 l 1
 277.05978996 344.751953125 l 1
 271.000947991 361.608398438 l 1
 260.565416687 348.186523438 l 1
 176.818359375 253.186523438 l 1
 173.727539062 249.874023438 l 1
 173.596679688 245.346679688 l 1
 165.991210938 -18.0263671875 l 1
EndSplineSet
EndChar

StartChar: l
Encoding: 108 108 77
Width: 255
VWidth: 1024
Flags: HW
LayerCount: 2
Fore
SplineSet
143.9921875 915 m 1
 186.9921875 915 l 1
 186.9921875 914.091796875 l 1
 173.174804688 -12 l 1
 87.099609375 -12 l 1
 100.801757812 917.337890625 l 1
 143.338867188 915.017578125 l 1
 143.665039062 915 l 1
 143.9921875 915 l 1
EndSplineSet
EndChar

StartChar: m
Encoding: 109 109 78
Width: 931
VWidth: 1024
Flags: HW
LayerCount: 2
Fore
SplineSet
861.768554688 15.8408203125 m 1
 772.1328125 28.4208984375 l 1
 776.046875 504 l 2
 776.046875 611.383789062 752.202148438 624 654.846164755 624 c 0
 541.838692163 624 514.813812986 604.080078125 514.813812986 511 c 2
 514.813812986 504.072265625 l 1
 509.253692605 16.9560546875 l 1
 433.952847584 23.1044921875 l 1
 433.952847584 504 l 2
 433.952847584 611.57421875 410.023427239 624 314.943975215 624 c 0
 202.525390625 624 174.247070312 603.969726562 174.247070312 511 c 2
 174.247070312 28.2646484375 l 1
 96.017578125 15.9931640625 l 1
 84.5 713.7890625 l 1
 103.499023438 709.319335938 l 1
 103.836914062 709.239257812 l 1
 104.178710938 709.1796875 l 1
 174.247070312 696.91796875 l 1
 174.247070312 685 l 1
 174.247070312 661.719726562 l 1
 193.208984375 675.225585938 l 2
 226.763671875 699.125976562 254.222072405 714 345.861403163 714 c 0
 439.403344872 714 486.702921992 698.846679688 501.409138471 661.418945312 c 2
 509.921650258 639.754882812 l 1
 521.664327219 659.680664062 l 2
 541.746720247 693.756835938 573.935961862 698 689.473126651 698 c 0
 833.619140625 698 852.046875 702.705078125 852.046875 503.880859375 c 2
 861.768554688 15.8408203125 l 1
EndSplineSet
EndChar

StartChar: n
Encoding: 110 110 79
Width: 610
VWidth: 1024
Flags: HW
LayerCount: 2
Fore
SplineSet
538.602539062 14.4951171875 m 1
 451.77734375 24.6552734375 l 1
 460.681640625 513.890625 l 1
 460.681640625 529 l 2
 460.681640625 632.061523438 422.065429688 641 299.517005762 641 c 0
 243.165039062 641 202.756835938 638.490234375 179.54296875 615.532226562 c 2
 176.006835938 612.03515625 l 1
 175.981445312 607.061523438 l 1
 173.03515625 28.625 l 1
 91 18.5634765625 l 1
 91.9619140625 725.4453125 l 1
 175.981445312 709.108398438 l 1
 175.981445312 703 l 1
 175.981445312 684.498046875 l 1
 192.875 692.04296875 l 2
 229.8984375 708.580078125 283.112004267 714 363.828443204 714 c 0
 520.967773438 714 534.697265625 712.869140625 535.681640625 513.9296875 c 2
 538.602539062 14.4951171875 l 1
EndSplineSet
EndChar

StartChar: o
Encoding: 111 111 80
Width: 643
VWidth: 1024
Flags: HW
LayerCount: 2
Fore
SplineSet
327.631835938 -15 m 0
 74.66015625 -15 79.3056640625 23.62890625 79.3056640625 348 c 0
 79.3056640625 719.081054688 103.478515625 711 327.631835938 711 c 0
 579.418945312 711 574.805664062 672.40234375 574.805664062 348 c 0
 574.805664062 -23.1474609375 551.592773438 -15 327.631835938 -15 c 0
161.305664062 347.979492188 m 0
 161.305664062 99.0625 166.735351562 47 327.631835938 47 c 0
 464.315429688 47 492.805664062 59.67578125 492.805664062 347.979492188 c 0
 492.805664062 597.8671875 487.448242188 650 327.631835938 650 c 0
 189.88671875 650 161.305664062 638.405273438 161.305664062 347.979492188 c 0
EndSplineSet
EndChar

StartChar: p
Encoding: 112 112 81
Width: 673
VWidth: 1024
Flags: HW
LayerCount: 2
Fore
SplineSet
176.553710938 -205.442382812 m 1
 89.7001953125 -201.530273438 l 1
 92.61328125 729.34375 l 1
 168.663085938 708.810546875 l 1
 168.663085938 670 l 1
 168.663085938 637.387695312 l 1
 189.801757812 662.221679688 l 2
 221.607421875 699.58984375 279.956676534 704.942382812 385.110237326 711.018554688 c 0
 401.439622331 712.017578125 417.641906535 713 431.194358173 713 c 0
 565.755859375 713 587.390625 659.184570312 603.483398438 360.694335938 c 0
 606.477539062 307.017578125 608.462890625 260.6796875 608.462890625 220.772460938 c 0
 608.462890625 14.6640625 569.685546875 -15 384.519437739 -15 c 0
 285.292280513 -15 228.625 -13.3828125 195.3203125 21.310546875 c 2
 174.40234375 43.099609375 l 1
 174.6640625 12.896484375 l 1
 176.553710938 -205.442382812 l 1
176.663085938 348 m 0
 176.663085938 67.71484375 205.091796875 55 336.677819607 55 c 0
 472.297851562 55 522.462890625 83.638671875 522.462890625 225.991210938 c 0
 522.462890625 250.416015625 521.13671875 278.981445312 518.525390625 310.388671875 c 0
 500.478515625 573.005859375 476.303710938 642 362.349551779 642 c 0
 354.400930639 642 347.537487373 641 340.178789262 641 c 2
 339.871994225 641 l 1
 339.566075744 640.979492188 l 2
 205.110351562 632.342773438 176.663085938 619.245117188 176.663085938 348 c 0
EndSplineSet
EndChar

StartChar: q
Encoding: 113 113 82
Width: 679
VWidth: 1024
Flags: HW
LayerCount: 2
Fore
SplineSet
301.463357053 64 m 0
 479.892578125 64 517.099609375 107.67578125 517.099609375 331.08984375 c 0
 517.099609375 576.106445312 493.890625 642 369.363426746 642 c 0
 360.35716305 642 352.264629261 641 343.608379524 641 c 2
 343.305854896 641 l 1
 343.003330268 640.98046875 l 2
 227.904296875 633.51171875 167.400390625 600.341796875 167.400390625 444.840820312 c 0
 167.400390625 416.317382812 168.731445312 383.336914062 172.665039062 346.499023438 c 0
 194.5546875 113.96875 220.037109375 64 301.463357053 64 c 0
299.121429486 -15 m 0
 132.045898438 -15 92.3544921875 36.9892578125 78.384765625 348.640625 c 0
 76.38671875 384.797851562 75.400390625 417.530273438 75.400390625 447.28125 c 0
 75.400390625 667.252929688 119.016601562 699.875976562 299.673712817 711.015625 c 0
 319.441586596 712.008789062 338.187560324 713 354.144854999 713 c 0
 423.739590266 713 467.357421875 700.8984375 496.192382812 668.958984375 c 2
 517.099609375 645.799804688 l 1
 517.099609375 677 l 1
 517.099609375 698.646484375 l 1
 601.099609375 711.090820312 l 1
 601.099609375 -179.87890625 l 1
 517.099609375 -203.211914062 l 1
 517.099609375 33 l 1
 517.099609375 65.955078125 l 1
 495.909179688 40.7158203125 l 2
 459.7265625 -2.3798828125 402.182072252 -15 299.121429486 -15 c 0
EndSplineSet
EndChar

StartChar: r
Encoding: 114 114 83
Width: 442
VWidth: 1024
Flags: HW
LayerCount: 2
Fore
SplineSet
370.661132812 708 m 0
 377.904296875 708 386.412109375 707.525390625 390.661132812 707.1796875 c 1
 390.661132812 633.020507812 l 1
 382.477539062 633.59375 373.91796875 634 364.661132812 634 c 0
 294.15234375 634 181.174804688 614.290039062 172.734375 538.325195312 c 2
 172.655273438 537.619140625 l 1
 172.661132812 536.909179688 l 1
 176.575195312 21.2490234375 l 1
 91.6259765625 15.79296875 l 1
 89.7001953125 722.541992188 l 1
 172.661132812 707.03515625 l 1
 172.661132812 687 l 1
 172.661132812 660.663085938 l 1
 192.53515625 677.944335938 l 2
 209.30859375 692.530273438 311.508789062 708 370.661132812 708 c 0
EndSplineSet
EndChar

StartChar: s
Encoding: 115 115 84
Width: 603
VWidth: 1024
Flags: HW
LayerCount: 2
Fore
SplineSet
265.66539312 5 m 2
 111.543945312 5 88.482421875 6.494140625 71.34765625 131.810546875 c 1
 71.34765625 132.91796875 l 1
 71.2080078125 133.82421875 l 2
 69.8515625 142.643554688 68.638671875 155.920898438 67.599609375 166.135742188 c 1
 155.392578125 173.973632812 l 1
 163.858398438 73.404296875 177.5 61 289.357112988 61 c 0
 397.767578125 61 447.547851562 87.6689453125 447.547851562 180 c 2
 447.547851562 202 l 2
 447.547851562 271.060546875 431.137695312 289.817382812 309.118292121 311.836914062 c 0
 113.745117188 346.599609375 101.34765625 364.927734375 101.34765625 507 c 0
 101.34765625 672.149414062 119.225585938 694 310.791187207 694 c 2
 338.994808511 694 l 2
 475.397460938 694 504.360351562 693.26953125 516.547851562 590.302734375 c 1
 516.547851562 589.275390625 l 1
 516.634765625 588.555664062 l 2
 518.65234375 571.915039062 519.61328125 560.225585938 520.104492188 552.8828125 c 1
 453.5 540.440429688 l 1
 451.588867188 623.56640625 406.932617188 627 325.457409271 627 c 2
 308.535236489 627 l 2
 210.967773438 627 169.34765625 614.844726562 169.34765625 518 c 0
 169.34765625 424.326171875 229.477807985 406.858398438 345.160113349 385.166992188 c 0
 533.229492188 351.3984375 533.547851562 334.053710938 533.547851562 231 c 2
 533.547851562 190 l 2
 533.547851562 25.4013671875 514.27734375 5 307.407261129 5 c 2
 265.66539312 5 l 2
EndSplineSet
EndChar

StartChar: t
Encoding: 116 116 85
Width: 413
VWidth: 1024
Flags: HW
LayerCount: 2
Fore
SplineSet
240.799804688 697 m 1
 347.799804688 697 l 1
 347.799804688 631.41015625 l 1
 241.203125 634.993164062 l 1
 228.799804688 635.41015625 l 1
 228.799804688 623 l 1
 228.799804688 162 l 1
 228.799804688 161.684570312 l 1
 228.81640625 161.369140625 l 2
 231.33984375 113.422851562 223.703125 84 252.799804688 84 c 0
 258.310546875 84 261.30078125 85 264.799804688 85 c 2
 265.373046875 85 l 1
 265.943359375 85.0546875 l 1
 346.927734375 92.80859375 l 1
 347.682617188 15 l 1
 180.799804688 15 l 2
 132.482421875 15 155.022460938 4.560546875 146.799804688 133.407226562 c 1
 146.799804688 626 l 1
 146.799804688 637.59375 l 1
 135.212890625 637.993164062 l 1
 59.7998046875 640.59375 l 1
 59.7998046875 697 l 1
 134.799804688 697 l 1
 146.799804688 697 l 1
 146.799804688 709 l 1
 146.799804688 878.975585938 l 1
 228.799804688 885.9375 l 1
 228.799804688 709 l 1
 228.799804688 697 l 1
 240.799804688 697 l 1
EndSplineSet
EndChar

StartChar: u
Encoding: 117 117 86
Width: 592
VWidth: 1024
Flags: HW
LayerCount: 2
Fore
SplineSet
295.407848738 66 m 0
 405.706054688 66 433.099609375 89.037109375 433.099609375 198 c 2
 433.099609375 670.646484375 l 1
 517.119140625 683.09375 l 1
 518.099609375 -17 l 1
 492.368164062 -22.74609375 462.16015625 -29.875 437.185546875 -35.4521484375 c 1
 433.099609375 -6.1669921875 l 1
 433.099609375 13 l 1
 433.099609375 42.498046875 l 1
 412.5078125 21.376953125 l 2
 383.372070312 -8.505859375 374.24609375 -15 291.058981444 -15 c 0
 88.818359375 -15 87.099609375 -13.4697265625 87.099609375 185.9765625 c 2
 88.072265625 675.095703125 l 1
 172.12109375 662.643554688 l 1
 173.099609375 186 l 1
 173.099609375 138 l 2
 173.099609375 72.6240234375 197.049804688 66 295.407848738 66 c 0
EndSplineSet
EndChar

StartChar: v
Encoding: 118 118 87
Width: 582
VWidth: 1024
Flags: HW
LayerCount: 2
Fore
SplineSet
254.97752866 -1.0537109375 m 1
 55.900390625 670.422851562 l 1
 140.811523438 658.182617188 l 1
 299.158710535 137.239257812 l 1
 310.135359573 98.91015625 l 1
 319.113634735 137.923828125 l 1
 451.690429688 665.751953125 l 1
 521.879882812 671.662109375 l 1
 364.183830264 -16.7509765625 l 1
 254.97752866 -1.0537109375 l 1
EndSplineSet
EndChar

StartChar: w
Encoding: 119 119 88
Width: 893
VWidth: 1024
Flags: HW
LayerCount: 2
Fore
SplineSet
644.403635093 24.12109375 m 0
 621.986246349 24.12109375 590.944712569 24.0546875 576.349719732 24.0205078125 c 1
 454.729114873 522.978515625 l 1
 442.950927783 571.301757812 l 1
 432.532834232 522.633789062 l 1
 323.411340363 12.83203125 l 1
 205.23046875 23.2158203125 l 1
 59.7998046875 694.133789062 l 1
 136.969726562 706.359375 l 1
 254.407960796 133.548828125 l 1
 265.228322449 79.0322265625 l 1
 276.726872822 133.395507812 l 1
 395.993326703 697.26171875 l 1
 481.892895623 699.7421875 l 1
 620.981040604 134.9921875 l 1
 632.736002053 87.263671875 l 1
 643.162456835 135.33203125 l 1
 773.801757812 717.224609375 l 1
 837.23828125 700.454101562 l 1
 662.236282293 24.0986328125 l 1
 655.582600644 24.119140625 651.523687614 24.12109375 644.403635093 24.12109375 c 0
EndSplineSet
EndChar

StartChar: x
Encoding: 120 120 89
Width: 644
VWidth: 1024
Flags: HW
LayerCount: 2
Fore
SplineSet
339.429749583 458.727539062 m 1
 503.823242188 720.30859375 l 1
 579.282226562 689.2734375 l 1
 392.803199068 388.829101562 l 1
 389.322111982 382.708984375 l 1
 392.294863779 376.245117188 l 1
 578.116210938 5.7978515625 l 1
 500.975585938 -20.5107421875 l 1
 342.27783193 287.877929688 l 1
 333.705490365 305.380859375 l 1
 323.932985862 288.729492188 l 1
 323.932985862 288.729492188 174.420898438 40.302734375 146.819335938 -2.375 c 1
 57.2001953125 11.9970703125 l 1
 275.174061906 353.353515625 l 1
 279.076566849 359.934570312 l 1
 275.49275916 366.751953125 l 1
 88.8525390625 698.286132812 l 1
 187.802734375 698.286132812 l 1
 321.41501417 459.13671875 l 1
 330.152411062 443.21484375 l 1
 339.429749583 458.727539062 l 1
EndSplineSet
EndChar

StartChar: y
Encoding: 121 121 90
Width: 584
VWidth: 1024
Flags: HW
LayerCount: 2
Fore
SplineSet
242.206030422 4.3271484375 m 1
 57.2001953125 692.58984375 l 1
 153.180664062 715.564453125 l 1
 267.274011319 171.369140625 l 1
 276.442211847 124.583984375 l 1
 287.571802605 170.806640625 l 1
 425.9609375 718.497070312 l 1
 529.2578125 691.80859375 l 1
 257.679977045 -250.728515625 l 1
 158.883789062 -236.180664062 l 1
 241.899430126 -3.44921875 l 1
 243.153936338 0.37890625 l 1
 242.206030422 4.3271484375 l 1
EndSplineSet
EndChar

StartChar: z
Encoding: 122 122 91
Width: 506
VWidth: 1024
Flags: HW
LayerCount: 2
Fore
SplineSet
99.2001953125 609.500976562 m 1
 99.2001953125 684.90234375 l 1
 444.374023438 682.1015625 l 1
 441.151367188 619.264648438 l 1
 168.392578125 103.611328125 l 1
 159.001953125 85.857421875 l 1
 179.0859375 86 l 1
 447.200195312 87.9140625 l 1
 447.200195312 12 l 1
 70.2001953125 12 l 1
 70.2001953125 67.3486328125 l 1
 318.083007812 600.944335938 l 1
 326.375976562 618.794921875 l 1
 306.709960938 617.990234375 l 1
 99.2001953125 609.500976562 l 1
EndSplineSet
EndChar

StartChar: braceleft
Encoding: 123 123 92
Width: 383
VWidth: 1024
Flags: HW
LayerCount: 2
Fore
SplineSet
308.895383732 1023 m 1
 302.585751745 936.242560181 l 1
 255.95976531 932.970561133 l 1
 254.280722211 932.852733547 l 1
 252.698887931 932.277521082 l 2
 222.414113185 921.26487572 217.799804688 891.254467553 217.799804688 850 c 0
 217.799804688 817.27838583 220.799804688 775.610049174 220.799804688 718 c 0
 220.799804688 592.444224561 222.330918734 574.135198888 224.553541468 562.890717924 c 1
 218.450945461 526.536379855 230.190294792 475.666499348 188.196374185 462.446191009 c 2
 152.476327047 451.200990984 l 1
 188.07955749 439.591241926 l 2
 229.516566762 426.079173685 228.799804688 420.946047554 228.799804688 372 c 2
 228.800129069 340.088232909 l 1
 226.800129069 68.088232909 l 1
 226.795611816 67.4738864948 l 1
 226.853859017 66.8622908885 l 2
 230.162196026 32.1247522916 219.460861138 -24.9828898619 273.924097028 -28.9680046831 c 2
 274.266288957 -28.9930431169 l 1
 274.609352488 -28.9984885698 l 1
 323.425563469 -29.7733490616 l 1
 308.972030598 -108.126711467 l 1
 248.722685184 -103.035217488 l 2
 210.420549479 -100.362975462 151.799804688 -79.9249111982 151.799804688 32.0851021026 c 2
 147.799804688 314.085102103 l 2
 147.799804688 373.250310916 137.077711848 445.374768396 71.7998046875 446.97698314 c 1
 71.7998046875 475.017853925 l 1
 131.477426513 477.079654132 145.799804688 534.623427796 145.799804688 554 c 2
 145.799804688 578 l 2
 145.799804688 622.950933546 144.73402706 716.755938685 139.799956032 798.364688527 c 0
 139.768320856 855.143944109 137.799804688 895.110583557 137.799804688 928 c 0
 137.799804688 1013.45085523 143.082944372 1023 247.799804688 1023 c 2
 308.895383732 1023 l 1
EndSplineSet
EndChar

StartChar: bar
Encoding: 124 124 93
Width: 247
VWidth: 1024
Flags: HW
LayerCount: 2
Fore
SplineSet
93.4817215383 966.415469162 m 1
 179.543872004 977.368833767 l 1
 174.635331648 -225.223553454 l 1
 79.7851784674 -255.511837663 l 1
 93.4817215383 966.415469162 l 1
EndSplineSet
EndChar

StartChar: braceright
Encoding: 125 125 94
Width: 434
VWidth: 1024
Flags: HW
LayerCount: 2
Fore
SplineSet
75.3685707183 997 m 1
 151.400390625 997 l 2
 263.038763738 997 259.334910066 908.357272164 261.402526046 798.773625197 c 2
 261.410272447 798.363065942 l 1
 261.446066015 797.953996597 l 1
 282.40023134 558.477821454 l 1
 282.536092428 487.576989 304.08621228 482 374.400390625 482 c 1
 374.400390625 440 l 1
 305.825595258 440 282.132069083 406.383221109 273.563663539 354.972787848 c 2
 273.410284807 354.052515457 l 1
 273.400986601 353.119595389 l 1
 270.400390625 52.0597991794 l 2
 270.400390625 -67.2670933467 213.946070226 -75.202432455 150.482269197 -85 c 1
 74.6670247395 -85 l 1
 76.1429251417 -17.8465317031 l 1
 138.962026964 -17.0199645739 l 2
 141.113217152 -17.4980068379 144.25144991 -18 148.400390625 -18 c 0
 168.316518602 -18 208.400390625 -6.47075806935 208.400390625 53 c 2
 208.400390625 53.5043705626 l 1
 208.358067116 54.0069622308 l 1
 184.350184283 339.100570871 l 2
 183.405794461 348.54446909 183.400390625 357.956363202 183.400390625 366 c 0
 183.400390625 418.529179822 194.949113209 424.806591921 251.591538603 440.432088582 c 2
 292.632730306 451.753796638 l 1
 251.720114095 463.531671001 l 2
 192.017104822 480.718900944 191.400390625 497.709568469 191.400390625 580.145609626 c 2
 186.400390625 786.145609626 l 2
 186.400390625 850.814200491 186.39128085 931 123.400390625 931 c 2
 121.95018638 931 l 1
 120.541732291 930.654530129 l 1
 81.2697909284 921.021789795 l 1
 75.3685707183 997 l 1
EndSplineSet
EndChar

StartChar: asciitilde
Encoding: 126 126 95
Width: 676
VWidth: 1024
Flags: HW
LayerCount: 2
Fore
SplineSet
161.004645214 375.256305933 m 1
 97.8596205097 365.09503759 l 1
 99.0098446612 487.414494417 109.710872682 499 224.799804688 499 c 0
 414.623437863 499 330.564472154 400 477 400 c 0
 517.549881046 400 531.782727752 426.663604033 533.073611939 480.510321215 c 1
 600.145064169 483.458516917 l 1
 598.913618858 359.719217518 585.815385208 348 470.5 348 c 0
 280.724559523 348 374.296037831 443 228.700195312 443 c 0
 193.887562896 443 163.50131957 433.978903589 161.004645214 375.256305933 c 1
EndSplineSet
EndChar

StartChar: exclamdown
Encoding: 161 161 96
Width: 285
VWidth: 1024
Flags: HW
LayerCount: 2
Fore
SplineSet
199.259704556 -166.76611971 m 1
 103 -157.140149255 l 1
 103 209.650442639 l 1
 122.351761108 541.533145647 l 1
 182.908306988 544.451533401 l 1
 206.991090289 223.668859832 l 1
 199.259704556 -166.76611971 l 1
104.409918332 658.409918332 m 1
 107.61609985 757 l 1
 203 757 l 1
 203 661.61609985 l 1
 104.409918332 658.409918332 l 1
EndSplineSet
EndChar

StartChar: cent
Encoding: 162 162 97
Width: 679
VWidth: 1024
Flags: HW
LayerCount: 2
Fore
SplineSet
334.991919522 82.4403023669 m 1
 315.091528897 624.440302367 l 1
 314.653834441 636.361193747 l 1
 302.730553266 635.994323557 l 2
 195.860278102 632.706007398 168.900390625 584.85961119 168.900390625 348 c 0
 168.900390625 113.887725685 217.001400751 73.2392337385 322.632825063 70.0056187085 c 2
 335.462899388 69.6128613312 l 1
 334.991919522 82.4403023669 l 1
506.063833101 518.810984173 m 1
 499.580660182 578.189041512 490.476832012 633 401.099609375 633 c 0
 395.585799048 633 387.829440299 631.934054492 387.643776215 631.911362215 c 2
 377.01042978 630.611730984 l 1
 377.100029123 619.899631764 l 1
 381.600029123 81.8996317637 l 1
 381.704098009 69.4576182855 l 1
 394.134194011 70.0119134443 l 2
 477.017839966 73.7079431203 531.30438639 82.1976973776 543.979528807 155.022275396 c 1
 613.467784635 126.931278359 l 1
 584.327714958 27.5475654368 572.846099279 12.3474883403 392.578779012 -3.04349945134 c 2
 378.572518642 -4.23933562424 l 1
 381.951428307 -17.8844198376 l 1
 393.731734514 -65.4569465404 l 1
 334.599609375 -63.4085034093 l 1
 334.599609375 -15 l 1
 334.599609375 -3.11336585042 l 1
 322.713510694 -3.00054057511 l 2
 117.777528977 -1.05524639763 93.900390625 10.2009419812 93.900390625 348 c 0
 93.900390625 687.053904288 103.769755527 702.066063976 303.215996194 704.000564425 c 2
 314.710009156 704.11204897 l 1
 315.092948259 715.600222037 l 1
 316.687427571 763.434601395 l 1
 377.099609375 760.557830833 l 1
 377.099609375 711 l 1
 377.099609375 699 l 1
 389.099609375 699 l 2
 565.624831836 699 575.629667435 583.047594473 576.138285176 554.384177693 c 1
 561.849475646 547.023929314 525.534433759 528.41290001 506.063833101 518.810984173 c 1
EndSplineSet
EndChar

StartChar: sterling
Encoding: 163 163 98
Width: 665
VWidth: 1024
Flags: HW
LayerCount: 2
Fore
SplineSet
308.659250966 372.476835247 m 0
 308.659250966 195.054393145 282.16215076 158.722533155 253.468582871 87.4833301197 c 2
 246.738659843 70.7745557055 l 1
 264.750426914 71.0009477845 l 1
 573.26230096 74.8786708468 l 1
 589.847308701 1 l 1
 118.44491591 1 l 1
 124.510917799 15.8280046171 133.473368677 37.5756792806 140.629349735 54.272968417 c 2
 147.798077556 71 l 1
 145.328614804 71 l 1
 182.936126547 163.057788824 187.050933677 146.171232416 212.523764704 371.652958916 c 0
 213.086058286 376.63044334 213.33520713 381.497549431 213.33520713 386.23728367 c 0
 213.33520713 402.417429061 210.447103915 417.087289351 207.241319377 429.910427501 c 2
 204.968926251 439 l 1
 195.599609375 439 l 1
 80.8169602156 439 l 1
 87.4980506319 508.037934302 l 1
 102.292741864 508.119814421 127.310922314 508.337206997 159.249945764 509.002603319 c 2
 178.105742108 509.39543241 l 1
 169.761670617 526.309090838 l 2
 132.253305854 602.339559953 100.824229151 645.606658375 99.6058715567 749.398515298 c 1
 122.139549003 950.669077655 181.89869888 956.037464207 264.048099368 956.037464207 c 0
 276.24356673 956.037464207 289.015600487 955.777322613 302.264390713 955.777322613 c 0
 314.853173432 955.777322613 329.192327555 956.107204916 341.781836788 956.995686927 c 0
 351.255572242 957.184875024 356.912636931 958.306167263 361.375289033 958.028386507 c 0
 486.406596345 949.413080761 572.370758173 900.319790884 600.485298174 880.597341069 c 1
 591.147421989 872.498162745 572.330062946 856.574804459 540.211201923 830.038381391 c 1
 512.8544253 849.39909682 468.809952784 880 346.599609375 880 c 2
 329.562441719 880 l 2
 241.559508992 877.979280351 186.599609375 870.495140611 186.599609375 751 c 2
 186.599609375 740 l 2
 186.599609375 631.085383672 229.376944659 605.429945947 270.749904733 517.873216488 c 2
 274.448764002 510.045398036 l 1
 283.043585785 511.087194616 l 2
 297.61761117 512.853743147 360.505730506 513.5 418.094726562 513.5 c 0
 461.489326071 513.5 504.137469704 513.206637957 520.311466668 513.07944837 c 1
 537.697459653 439 l 1
 315.599609375 439 l 1
 301.556208915 439 l 1
 303.746453791 425.128449119 l 2
 306.465731623 407.906356179 308.659250966 391.239953471 308.659250966 372.476835247 c 0
EndSplineSet
EndChar

StartChar: currency
Encoding: 164 164 99
Width: 911
VWidth: 1024
Flags: HW
LayerCount: 2
Fore
SplineSet
79.082548517 380.232080041 m 1
 82.3629912438 416.973038581 l 1
 126.406183215 421.051111911 l 1
 137.299804688 422.059780566 l 1
 137.299804688 433 l 1
 137.299804688 493 l 1
 137.299804688 505 l 1
 125.299804688 505 l 1
 89.1675118676 505 l 1
 94.7523299142 543.473190987 l 1
 127.85734148 545.012958967 l 1
 138.958845872 545.529308009 l 1
 139.294335703 556.637749063 l 2
 148.122657644 848.953297787 253.258704933 919.055234839 529.885361836 923 c 2
 557.682617188 923 l 2
 793.560526675 923 833.560834815 865.631569105 845.228675366 846.665522229 c 1
 821.398718888 830.925440275 799.3135166 805.105772797 787.359227658 790.223456695 c 1
 761.768954945 824.031448025 714.375913688 860 557.682617188 860 c 0
 360.793603144 860 230.249152582 806.0275089 222.30587446 556.381625053 c 2
 221.912997319 544.034057772 l 1
 234.266766516 544.00004548 l 1
 581.233448366 543.04477978 l 1
 573.949690547 519.605845819 l 1
 251.75591503 504.987667998 l 1
 240.299804688 504.467895517 l 1
 240.299804688 493 l 2
 240.299804688 487.644176727 234.299804688 477.644176727 234.299804688 463 c 0
 234.299804688 448.355823273 240.299804688 438.355823273 240.299804688 433 c 2
 240.299804688 421.249405138 l 1
 252.047808333 421.002646215 l 1
 577.616591324 414.164292698 l 1
 588.85363392 388.245847846 l 1
 230.788961924 372.989121722 l 1
 218.810554853 372.478735498 l 1
 219.310231015 360.499876879 l 2
 225.389489463 214.760329862 324.633987609 82 538.740234375 82 c 0
 699.354010743 82 734.187443988 104.370626008 747.839000588 124.152202232 c 1
 818.382971917 96.0863211653 l 1
 805.793479125 70.6701223097 767.005166054 -3 533.540039062 -3 c 0
 201.601572173 -3 173.931405723 121.203544152 135.136531774 353.972787848 c 2
 133.969761619 360.973408777 l 1
 127.272857244 363.323199786 l 1
 79.082548517 380.232080041 l 1
EndSplineSet
EndChar

StartChar: yen
Encoding: 165 165 100
Width: 766
VWidth: 1024
Flags: HW
LayerCount: 2
Fore
SplineSet
604.090605875 936.991414505 m 1
 701.910210966 911.333813169 l 1
 445.185723769 454.326439541 l 1
 435.796777473 458.408936783 l 1
 436.041077708 439.84211893 l 1
 437.041077708 363.84211893 l 1
 437.200890933 351.696313862 l 1
 449.343853695 352.003846589 l 1
 594.98046875 355.692240126 l 1
 594.98046875 294 l 1
 449.040039062 294 l 1
 437.040039062 294 l 1
 437.040039062 282 l 1
 437.040039062 239 l 1
 437.040039062 226.762305855 l 1
 449.275379555 227.002307936 l 1
 591.30988395 229.788382973 l 1
 597.49571696 176.177830217 l 1
 572.344006045 176.477865561 519.299636823 177 449.040039062 177 c 2
 436.947937388 177 l 1
 437.040389806 164.908251763 l 1
 438.241349468 7.83608202593 l 1
 342.756216244 14.2230683195 l 1
 342.810128079 38.5437972415 343.040517745 98.4733279498 344.03875951 166.824764123 c 2
 344.216573315 179 l 1
 332.040039062 179 l 2
 261.807627947 179 206.879963377 179.574532354 185.400390625 179.840025679 c 1
 185.400390625 222.224783884 l 1
 332.266927894 225.002145131 l 1
 344.040039062 225.224783884 l 1
 344.040039062 237 l 1
 344.040039062 282 l 1
 344.040039062 294 l 1
 332.040039062 294 l 1
 186.066557531 294 l 1
 188.784861475 344.288622959 l 1
 333.348341966 348.003961099 l 1
 345.040039062 348.304442299 l 1
 345.040039062 360 l 1
 345.040039062 443 l 1
 345.040039062 461.303161896 l 1
 335.906085196 457.331540341 l 1
 80.9758029988 912.394804394 l 1
 174.029787022 930.532445348 l 1
 377.478189633 553.30374363 l 1
 388.07702814 533.651654754 l 1
 398.618467778 553.334592168 l 1
 604.090605875 936.991414505 l 1
EndSplineSet
EndChar

StartChar: brokenbar
Encoding: 166 166 101
Width: 247
VWidth: 1024
Flags: HW
LayerCount: 2
Fore
SplineSet
114.79877408 447.062530996 m 1
 164.901541806 451.801981997 l 1
 161.081474869 -61.9970210412 l 1
 105.245889959 -66.8826347208 l 1
 114.79877408 447.062530996 l 1
103.20157316 1028.68560535 m 1
 157.083676382 1023.15923579 l 1
 160.916200971 528.763563823 l 1
 110.800669953 523.345668578 l 1
 103.20157316 1028.68560535 l 1
EndSplineSet
EndChar

StartChar: section
Encoding: 167 167 102
Width: 755
VWidth: 1024
Flags: HW
LayerCount: 2
Fore
SplineSet
393.447814741 370.395420264 m 2
 455.731820446 384.486842719 485.870117188 417.571432979 485.870117188 454.099609375 c 0
 485.870117188 498.944338766 442.301347166 538.886473606 390.918188029 539.900390625 c 2
 386.120117188 539.900390625 l 2
 307.781244175 539.900390625 277.009765625 498.424024844 277.009765625 459.5 c 0
 277.009765625 438.956892565 284.860780609 419.23079465 298.547192835 408.961687556 c 0
 320.050190286 384.133712752 352.380127375 370.099609375 390.799804688 370.099609375 c 2
 392.140332326 370.099609375 l 1
 393.447814741 370.395420264 l 2
118.750572397 147.429785025 m 1
 259.479188184 100.719680013 300.784851751 94.9257598982 456.832168989 91.9980321484 c 1
 577.054366724 94.0998116455 589.740234375 124.396752084 589.740234375 251 c 0
 589.740234375 307.119894904 587.563469064 344.28974442 550.416537998 368.102475991 c 2
 541.778684617 373.639700145 l 1
 534.966731685 365.966978358 l 2
 501.052717102 327.767536703 445.869900846 302 381.440429688 302 c 0
 282.212321508 302 212.413141952 363.458831654 206.968004683 437.87570766 c 2
 206.37549647 445.973319902 l 1
 198.638443887 448.43510936 l 2
 95.1963786103 481.348493766 90 518.357558274 90 690 c 0
 90 902.693194477 114.391287523 929 348.940429688 929 c 2
 390.540039062 929 l 2
 444.888784339 929 524.347101307 925.04853808 653.676836792 889.335465858 c 1
 613.377115789 806.365452029 l 1
 534.808423839 829.55604103 501.773714003 843 348.940429688 843 c 0
 202.672204838 843 178 807.326610971 178 641 c 0
 178 591.349531143 181.113238475 558.388207374 217.494477562 534.916440221 c 2
 226.339636249 529.20988623 l 1
 233.149992741 537.236132868 l 2
 264.318156821 573.968919538 319.377227997 598 381.440429688 598 c 0
 476.02810391 598 552.984395383 541.487359476 565.936950444 470.836094168 c 2
 567.31469818 463.321003874 l 1
 574.706913871 461.389704279 l 2
 680.019336428 433.875647936 683.740234375 410.809200709 683.740234375 261 c 0
 683.740234375 43.5055938704 679.054130486 17.9344316163 410.000334344 13.0012889056 c 1
 202.864591613 15.4282813028 120.941141753 51.7028439692 99.5892614797 63.5990497606 c 1
 118.750572397 147.429785025 l 1
EndSplineSet
EndChar

StartChar: dieresis
Encoding: 168 168 103
Width: 480
VWidth: 1024
Flags: HW
LayerCount: 2
Fore
SplineSet
275.299804688 1052 m 1
 387.299804688 1052 l 1
 387.299804688 940 l 1
 275.299804688 940 l 1
 275.299804688 1052 l 1
117.299804688 1062.76176295 m 1
 215.776938583 1053.07548748 l 1
 220.750467873 942 l 1
 117.299804688 942 l 1
 117.299804688 1062.76176295 l 1
EndSplineSet
EndChar

StartChar: copyright
Encoding: 169 169 104
Width: 1021
VWidth: 1024
Flags: HMW
LayerCount: 2
Fore
SplineSet
636.403102367 242.696378284 m 1
 674.707420355 232.811392997 l 1
 641.312659277 149.903915461 659.161533876 160.250891003 522.188995349 150.972563278 c 0
 511.605209328 150.255632452 501.647649576 149.81045811 492.291703072 149.651899592 c 0
 363.209836914 147.464303783 345.663709298 193.762200697 342.798185846 368.197103 c 0
 339.311298831 580.456679927 364.602487702 591.617073806 462.758911334 597.018125317 c 0
 488.169438071 598.416338075 509.729730889 598.196771783 527.870306567 598.00070087 c 0
 638.169481492 596.808541354 663.15214592 582.888336023 683.813140094 529.657861651 c 0
 686.878339272 521.760841558 696.773150537 493.178894437 694.889216208 455.247269637 c 1
 645.824585288 451.792013938 l 1
 641.845224752 493.14932053 l 2
 635.923415685 554.694403197 518.123014561 535 514.19921875 535 c 2
 496 535 l 2
 489.705631768 535 483.69016918 534.929349963 477.912250801 534.658798242 c 0
 416.963690304 531.804874593 394.481108634 500.474350591 400.813373324 367.429506221 c 0
 402.411539395 333.851036809 404.125464695 306.314358436 406.733319158 283.612099492 c 0
 416.81480413 195.849348282 446.937443461 178.267659232 522.392176445 187.081030047 c 0
 597.06289829 195.802825681 619.042218937 199.444049432 636.403102367 242.696378284 c 1
162 369 m 0
 162 183.042342856 316.777266223 30 516.799804688 30 c 0
 717.768620507 30 850 184.1281842 850 369 c 0
 850 554.626774841 703.304421968 708 499.900390625 708 c 0
 299.329015489 708 162 555.128730253 162 369 c 0
520.700195312 750 m 0
 761.296055436 750 904 581.114632267 904 369 c 0
 904 156.828137046 761.21647632 -14 520.700195312 -14 c 0
 281.07733642 -14 122 153.630879709 122 365 c 0
 122 576.539952631 281.318275465 750 520.700195312 750 c 0
EndSplineSet
EndChar

StartChar: ordfeminine
Encoding: 170 170 105
Width: 705
VWidth: 1024
Flags: HW
LayerCount: 2
Fore
SplineSet
323.426757812 667.049804688 m 0
 371.264830813 667.049804688 452.36058668 673.029459254 463.20960893 718.091564017 c 2
 463.555853363 719.529712319 l 1
 463.542478204 721.008893461 l 1
 462.956540704 785.808698148 l 1
 462.858921216 796.604600019 l 1
 452.112767431 797.644410392 l 2
 451.905380089 797.664477433 368.729440964 805.799804688 335.712890625 805.799804688 c 0
 291.021287866 805.799804688 280.446331823 782.863758642 275.776625319 721.358667481 c 2
 275.7421875 720.90508412 l 1
 275.7421875 720.450195312 l 2
 275.7421875 718.780578959 275.157226562 715.631164896 275.157226562 711 c 0
 275.157226562 678.833150605 295.666972501 667.049804688 323.426757812 667.049804688 c 0
262.354490615 908.486876679 m 1
 269.190331666 939.336786397 276.350162898 953.700195312 341.5625 953.700195312 c 0
 349.885986301 953.700195312 359.219865689 953.259366062 369.035552671 952.814994885 c 0
 472.22738355 947.033101754 471.86295101 953.7684564 479.181825475 860.780259805 c 0
 483.183960434 811.418021791 484.092773438 753.124913087 484.092773438 708.75 c 0
 484.092773438 683.402475984 483.736974651 660.970908846 483.509866807 649.768181207 c 1
 473.608218321 650.882082055 470.386317196 651.194780161 467.976657308 651.476974631 c 0
 467.640809901 656.850229477 467.457989632 659.693761317 466.571776736 665.897251587 c 2
 462.501948011 694.386052661 l 1
 445.126516906 671.445484089 l 2
 434.417951652 657.30709673 406.357930336 656.139106087 332.224046824 649.595255584 c 0
 323.613239286 648.766965073 314.643283988 648.75 306.462890625 648.75 c 0
 270.093332411 648.75 256.407226562 656.006649004 256.407226562 717.75 c 0
 256.407226562 823.261443799 263.755308002 820.619568898 331.331168345 822.303528857 c 0
 419.190975942 820.080353635 449.669270094 818.27065535 449.669270094 818.27065535 c 1
 463.695634501 817.446617819 l 1
 462.314971474 831.42916787 l 2
 455.455770376 900.895156897 460.801143302 932.851388438 370.116030696 934.046328271 c 0
 355.629446105 935.043959933 348.179135724 935.400390623 339.22265625 935.400390625 c 0
 309.772791141 935.400390625 293.468513787 926.330018256 283.277535073 902.464192079 c 1
 262.354490615 908.486876679 l 1
EndSplineSet
EndChar

StartChar: guillemotleft
Encoding: 171 171 106
Width: 591
VWidth: 1024
Flags: HW
LayerCount: 2
Fore
SplineSet
237.220738664 634.736310332 m 1
 319.108616931 621.075731345 l 1
 157.53470723 354.215124631 l 1
 153.472421574 347.505724476 l 1
 157.987429533 341.092229461 l 1
 331.68568759 94.3566927007 l 1
 262.052311313 76.7466384148 l 1
 86.6829870445 348.615110432 l 1
 237.220738664 634.736310332 l 1
457.542706263 641.781977992 m 1
 519.960473707 622.91149016 l 1
 363.271755417 354.042085262 l 1
 359.791061569 348.06940201 l 1
 363.211718044 342.062132731 l 1
 502.146790249 98.0679178538 l 1
 447.375991827 81.2153644934 l 1
 284.923136882 348.107564063 l 1
 457.542706263 641.781977992 l 1
EndSplineSet
EndChar

StartChar: logicalnot
Encoding: 172 172 107
Width: 645
VWidth: 1024
Flags: HW
LayerCount: 2
Fore
SplineSet
556.157181053 140.251879857 m 1
 463.639648438 149.822659093 l 1
 463.639648438 278 l 1
 463.639648438 290.908246074 l 1
 450.765682374 289.96813199 l 1
 95.3677985268 264.015402705 l 1
 105.692763302 360.116997925 l 1
 461.911897577 364.002255657 l 1
 565.145031985 367.562018912 l 1
 562.184281779 291.787786985 559.111258749 214.530030827 556.157181053 140.251879857 c 1
EndSplineSet
EndChar

StartChar: registered
Encoding: 174 174 109
Width: 1069
VWidth: 1024
Flags: HMW
LayerCount: 2
Fore
SplineSet
524.900390625 748 m 0
 785.06114325 748 934.600851595 574.183539733 934.999769199 363.543018876 c 1
 915.296486888 149.995218044 788.307584695 -16 524.900390625 -16 c 0
 280.91420726 -16 135 155.017003479 135 367 c 0
 135 578.925977501 280.834550599 748 524.900390625 748 c 0
431.299804688 357 m 1
 534 357 l 2
 628.006461484 357 642.200195312 370.66865533 642.200195312 463 c 0
 642.200195312 549.91310547 631.747601852 565 567.799804688 565 c 0
 506.283445429 565 474.591431715 561.971166865 430.757375674 559.98773418 c 2
 419.299804688 559.469294345 l 1
 419.299804688 548 l 1
 419.299804688 369 l 1
 419.299804688 357 l 1
 431.299804688 357 l 1
711.309616326 177.271003446 m 1
 643.127630386 175.200696136 l 1
 542.798385668 331.48278887 l 1
 539.25647235 337 l 1
 532.700195312 337 l 1
 431.299804688 337 l 1
 419.299804688 337 l 1
 419.299804688 325 l 1
 419.299804688 174.749291094 l 1
 399.206195191 175.967085609 l 1
 377.299804688 177.958575655 l 1
 377.299804688 579 l 1
 531.400390625 579 l 2
 687.717386773 579 684.200195312 580.292023294 684.200195312 463 c 0
 684.200195312 354.140554136 683.42929207 342.560679405 606.090151694 337.978997981 c 2
 582.836471499 336.601416667 l 1
 597.458300349 318.467649989 l 1
 711.309616326 177.271003446 l 1
185 363 m 0
 185 177.866404683 318.381945019 28 523.599609375 28 c 0
 747.811458916 28 864.662097131 186.473664202 884.927254878 369.68068538 c 2
 885 370.338337159 l 1
 885 371 l 2
 885 558.015055645 710.811463342 706 506.700195312 706 c 0
 300.534788238 706 185 547.961120122 185 363 c 0
EndSplineSet
EndChar

StartChar: macron
Encoding: 175 175 110
Width: 651
VWidth: 1024
Flags: HW
LayerCount: 2
Fore
SplineSet
117.494524307 1114 m 1
 558.48046875 1114 l 1
 558.48046875 1010.70611876 l 1
 126.740977383 1035.40514886 l 1
 117.494524307 1114 l 1
EndSplineSet
EndChar

StartChar: degree
Encoding: 176 176 111
Width: 397
VWidth: 1024
Flags: HMW
LayerCount: 2
Fore
SplineSet
93.900390625 808.398489202 m 1
 93.900390625 822 l 2
 93.900390625 879.808468195 117.577034705 953 206.900390625 953 c 0
 318.182818096 953 311.694414695 879.889707958 317.944230836 806.975186304 c 2
 317.973134021 806.637982487 l 1
 318.020996701 806.302943725 l 2
 318.86231894 800.41368805 318.900390625 794.007111737 318.900390625 787 c 0
 318.900390625 724.875169933 295.164315559 663 206.900390625 663 c 0
 95.0260436817 663 97.959720215 746.596247703 93.900390625 808.398489202 c 1
202.900390625 696 m 0
 267.928924546 696 281.860842012 724.374568742 283.900390625 799.83786744 c 2
 283.900390625 806 l 2
 283.900390625 870.376237238 257.076255773 917 215.900390625 917 c 0
 212.942037284 917 208.383669336 916.834170524 203.251394386 915.482460249 c 0
 169.716762266 908.002147684 123.900390625 885.693614148 123.900390625 818 c 0
 123.900390625 812.145168083 124.013623934 805.017885812 125.014947735 798.282337478 c 0
 132.931369557 722.90263134 137.710964595 696 202.900390625 696 c 0
EndSplineSet
EndChar

StartChar: plusminus
Encoding: 177 177 112
Width: 794
VWidth: 1024
Flags: HW
LayerCount: 2
Fore
SplineSet
229.900390625 36.7961525993 m 1
 229.900390625 64.7942846297 l 1
 556.080078125 87.1494148084 l 1
 556.080078125 31.2073700546 l 1
 229.900390625 36.7961525993 l 1
346.728913214 393.993691048 m 1
 80.900390625 402.617038147 l 1
 80.900390625 437.344211804 l 1
 344.089380829 445.005080377 l 1
 356.128293456 445.355507374 l 1
 355.733795424 457.393056444 l 1
 348.340139559 683 l 1
 417.132931665 683 l 1
 408.847101083 459.444461107 l 1
 408.379990593 446.841604184 l 1
 420.990494199 447.000957986 l 1
 725.379882812 450.847402821 l 1
 725.379882812 383.303710944 l 1
 417.639712547 390.996252694 l 1
 404.546908564 391.323531844 l 1
 405.363172884 378.252099622 l 1
 419.366916662 154 l 1
 364.519243985 154 l 1
 358.335445128 382.324880871 l 1
 358.029343072 393.627110637 l 1
 346.728913214 393.993691048 l 1
EndSplineSet
EndChar

StartChar: Superscripttwo
Encoding: 178 178 113
Width: 352
VWidth: 1024
Flags: HMW
LayerCount: 2
Fore
SplineSet
92.599609375 620 m 1
 92.599609375 634 l 2
 92.599609375 725.467462233 89.8139081509 701.054065842 154.287475625 744.036444158 c 0
 226.904247978 792.779209162 243.599609375 811.891241746 243.599609375 858 c 0
 243.599609375 920.813873702 232.615140059 942 183.599609375 942 c 0
 138.376808798 942 122.599609375 928.651093798 122.599609375 885 c 0
 122.599609375 880.878597449 122.539417358 876.524715819 122.494551562 874.20664969 c 2
 93.6028777397 886.846756988 l 1
 93.8653963657 950.610339752 98.6548191607 955 182.599609375 955 c 0
 264.842008008 955 271.599609375 948.827656966 271.599609375 853.115373949 c 0
 270.663180197 804.421056706 266.192651218 795.479866503 205.834686602 754.911398482 c 0
 145.445221523 713.693192159 127.677958438 713.647686258 126.601392568 651.206865807 c 2
 126.394047228 639.180836043 l 1
 138.420524843 639.001336377 l 1
 264.535227668 637.11902738 l 1
 271.633360972 620 l 1
 92.599609375 620 l 1
EndSplineSet
EndChar

StartChar: Superscriptthree
Encoding: 179 179 114
Width: 371
VWidth: 1024
Flags: HMW
LayerCount: 2
Fore
SplineSet
230.058255538 825.633880761 m 1
 247.357463527 837.056962118 251.523702487 857.748014526 254.930033894 886.701831491 c 0
 255.92622391 896.663731642 257 903.735066326 257 912 c 0
 257 950.700538684 230.167888685 958 183 958 c 0
 147.339135455 958 127.002606122 954.091113219 120.890761172 928.390021637 c 1
 91.9929752069 929.480504126 l 1
 99.3086597414 968.036264608 107.177288652 973 185 973 c 0
 271.044892631 973 284 965.949222922 284 926 c 0
 284 917.464267988 282.179854902 906.086735489 280.117880903 892.683904494 c 0
 273.287489725 839.992315408 270.15151304 835.657195137 230.058255538 825.633880761 c 1
196.59251995 817.267446864 m 2
 179.418365871 812.973908345 l 1
 230.537421868 802.255396603 l 2
 288.981715269 790.000947987 293 783.765132546 293 724 c 0
 293 637.431845484 286.606896406 631 192 631 c 0
 107.085653513 631 98.3100888165 637.929268754 91.2570847685 703.244991039 c 1
 121.12595784 701.585609202 l 1
 126.60435 658.840286829 146.297480056 649 192 649 c 0
 245.832059405 649 261 666.914987337 261 725 c 0
 261 786.092168304 243.717779976 803 181 803 c 2
 166 803 l 1
 166 812 l 1
 166 812.352636391 l 1
 165.979292478 812.704664263 l 1
 165.72662567 817 l 1
 184 817 l 2
 188.255466177 817 192.639775635 817.086722081 196.59251995 817.267446864 c 2
EndSplineSet
EndChar

StartChar: acute
Encoding: 180 180 115
Width: 294
VWidth: 1024
Flags: HW
LayerCount: 2
Fore
SplineSet
135.829069619 905.784160529 m 1
 218.672059907 866.29824927 l 1
 145.694826573 710.672101076 l 1
 94.601762282 732.980340414 l 1
 135.829069619 905.784160529 l 1
EndSplineSet
EndChar

StartChar: mu
Encoding: 181 181 116
Width: 638
VWidth: 1024
Flags: HW
LayerCount: 2
Fore
SplineSet
472 210 m 2
 472 682.646805276 l 1
 556 695.091249721 l 1
 556 -5.40458976606 l 1
 478 -22.9928250602 l 1
 478 27 l 1
 478 57.7977657563 l 1
 457.163379849 35.1187526325 l 2
 430.359731383 5.94510110386 412.952905813 -3 315.700195312 -3 c 0
 236.515273174 -3 214.539783384 12.0005243889 200.154667586 23.4037674957 c 2
 179.900348676 39.4595939309 l 1
 180.706026889 13.6259360472 l 1
 186.74072862 -179.873673855 l 1
 112.494274661 -208.575310236 l 1
 101.866151926 687.085578466 l 1
 186.700195312 674.63287485 l 1
 186.700195312 198 l 2
 186.700195312 88.8569427592 226.631619578 76 318.299804688 76 c 0
 415.377696573 76 472 98.5994574214 472 210 c 2
EndSplineSet
EndChar

StartChar: paragraph
Encoding: 182 182 117
Width: 689
VWidth: 1024
Flags: HW
LayerCount: 2
Fore
SplineSet
104.253808961 492.671327244 m 0
 89.9656724246 526.962854931 82.2001953125 566.515356337 82.2001953125 608 c 0
 82.2001953125 756.162438303 168.68815632 914.000324381 281.288428221 914.000324381 c 2
 417.200195312 915 l 1
 433.265269527 915 l 1
 608.757645651 916.903394075 l 1
 624.102675941 866.865251827 l 1
 618.533761911 866.999766659 618.122000367 867 614.599609375 867 c 0
 607.567120498 867 598.169133719 867.039577165 589.11119256 865.907334521 c 2
 578.490468033 864.579743955 l 1
 578.600240489 853.87692955 l 2
 580.438553661 674.641395241 583.974672941 83.4202566751 584.525239172 -9.44952610332 c 1
 518.952834172 -6.52485146349 l 1
 521.599554162 865.963597806 l 1
 521.63991448 879.268334151 l 1
 508.401587779 877.940047917 l 2
 478.495205514 874.939348752 449.865094105 871.947939992 433.491351452 870.979045888 c 2
 422.109367059 870.305532336 l 1
 422.200579294 858.904003072 l 1
 429.100803231 -3.62398910591 l 1
 355.514087632 -1.37133454676 l 1
 364.19594352 324.680586586 l 1
 364.504704867 336.276290515 l 1
 352.926136037 336.97802196 l 1
 321.027893047 338.911248807 l 1
 186.82384502 372.490233877 132.57379232 426.591366072 104.253808961 492.671327244 c 0
EndSplineSet
EndChar

StartChar: periodcentered
Encoding: 183 183 118
Width: 276
VWidth: 1024
Flags: HW
LayerCount: 2
Fore
SplineSet
102.616362076 300.025862042 m 1
 109.829371932 390.589208016 l 1
 196.297639209 395.305658958 l 1
 193.098856846 292.944623321 l 1
 102.616362076 300.025862042 l 1
EndSplineSet
EndChar

StartChar: cedilla
Encoding: 184 184 119
Width: 671
VWidth: 1024
Flags: HW
LayerCount: 2
Fore
SplineSet
377.299804688 -92 m 0
 359.212216201 -92 347.460415083 -93.7927746822 339.791901411 -103.603041988 c 1
 323.53980916 -94.3161321298 l 1
 329.777382165 -73.6064035744 343.144327365 -29.4887654735 348.773735691 -12.0261110736 c 0
 349.773271927 -11.9956592528 349.299804688 -12 350.299804688 -12 c 2
 364.262125761 -12 l 1
 353.787418669 -47.6140041121 l 1
 346.815636725 -71.3180627223 l 1
 369.756492804 -62.1417202906 l 2
 371.256673755 -61.5416479102 377.127812844 -61 387.299804688 -61 c 0
 462.798019554 -61 460.299804688 -52.6628663612 460.299804688 -136 c 0
 460.299804688 -219.214876892 456.708568431 -236 377.299804688 -236 c 0
 322.734015419 -236 316.222468331 -232.070377819 303.019273824 -198.227481321 c 1
 325.017281535 -192.361345931 l 1
 329.591977969 -202.663842494 336.344957631 -212 348.299804688 -212 c 0
 360.456881123 -212 365.332584037 -207 374.299804688 -207 c 0
 413.847226597 -207 427.299804688 -192.355055274 427.299804688 -150 c 0
 427.299804688 -107.530812855 415.585731506 -92 377.299804688 -92 c 0
EndSplineSet
EndChar

StartChar: Superscriptone
Encoding: 185 185 120
Width: 270
VWidth: 1024
Flags: HW
LayerCount: 2
Fore
SplineSet
183.5 534.209191895 m 1
 155.5 536.901499588 l 1
 155.5 787 l 1
 155.5 800.407180184 l 1
 142.174821687 798.926604816 l 1
 84.3673869383 792.503556511 l 1
 84.9895895981 802.458799067 l 1
 156.508902828 828.947433597 l 1
 183.5 828.289114154 l 1
 183.5 534.209191895 l 1
EndSplineSet
EndChar

StartChar: ordmasculine
Encoding: 186 186 121
Width: 407
VWidth: 1024
Flags: HW
LayerCount: 2
Fore
SplineSet
91.2998046875 562 m 1
 328.299804688 562 l 1
 328.299804688 550.417174908 l 1
 91.2998046875 538.612577206 l 1
 91.2998046875 562 l 1
211.299804688 636 m 0
 276.464608241 636 289.266871295 664.619331894 291.299804688 739.83786744 c 2
 291.299804688 746 l 2
 291.299804688 810.376237238 264.475669836 857 223.299804688 857 c 0
 220.341451347 857 215.783083399 856.834170524 210.650808449 855.482460249 c 0
 177.116176329 848.002147684 131.299804688 825.693614148 131.299804688 758 c 0
 131.299804688 752.145708841 131.413201542 745.016785706 132.414234974 738.283190579 c 0
 140.370459358 662.640471559 146.238784738 636 211.299804688 636 c 0
102.299804688 748.398374901 m 1
 102.299804688 762 l 2
 102.299804688 819.961149161 125.057914328 893 214.299804688 893 c 0
 325.582232159 893 319.093828758 819.889707958 325.343644899 746.975186304 c 2
 325.372548084 746.637982487 l 1
 325.420410764 746.302943725 l 2
 326.105029629 741.510611671 325.299804688 735.181999098 325.299804688 727 c 0
 325.299804688 664.721967533 302.478518898 603 214.299804688 603 c 0
 102.493043246 603 106.362279396 686.435635893 102.299804688 748.398374901 c 1
EndSplineSet
EndChar

StartChar: guillemotright
Encoding: 187 187 122
Width: 601
VWidth: 1024
Flags: HW
LayerCount: 2
Fore
SplineSet
295.562156971 615.035300286 m 1
 394.311328708 602.86656454 l 1
 533.435846028 332.29336534 l 1
 388.582006872 78.0796741067 l 1
 302.274067665 66.1792383738 l 1
 456.554356726 342.144277347 l 1
 459.993983315 348.296824062 l 1
 456.295101982 354.297085643 l 1
 295.562156971 615.035300286 l 1
95.774647297 617.258360361 m 1
 184.788070573 614.240956182 l 1
 327.561338814 347.930179424 l 1
 184.963292508 75.2488016374 l 1
 95.2442327016 78.2901256986 l 1
 256.432459393 337.666079478 l 1
 260.306448233 343.899906668 l 1
 256.521565397 350.188233384 l 1
 95.774647297 617.258360361 l 1
EndSplineSet
EndChar

StartChar: onequarter
Encoding: 188 188 123
Width: 857
VWidth: 1024
Flags: HW
LayerCount: 2
Fore
SplineSet
236.489722751 10.9072308525 m 1
 562.465312012 928.170938266 l 1
 634.046050828 906.297040677 l 1
 280.373290491 -6.4063654775 l 1
 236.489722751 10.9072308525 l 1
224.656905717 466.981735035 m 1
 225.524151074 483.937377263 l 1
 197.299804688 486.832182021 l 1
 197.299804688 813.425698738 l 1
 118.008157442 804.505388422 l 1
 118.897038572 821.838570464 l 1
 200.579217796 855.947612337 l 1
 232.299804688 855.258034361 l 1
 232.299804688 482 l 1
 231.299804688 482 l 1
 224.656905717 466.981735035 l 1
749.200195312 414.583592135 m 1
 749.200195312 181.420920806 l 1
 805.200195312 179.420920806 l 1
 805.200195312 156.216198827 l 1
 749.200195312 157.216198827 l 1
 749.200195312 53.0780095126 l 1
 716.075510831 47.2666613581 l 1
 715.097449165 158.765691299 l 1
 552.519742367 162 l 1
 505.900390625 162 l 1
 505.900390625 186.326231862 l 1
 724.355049403 424.22780995 l 1
 749.200195312 422.019352535 l 1
 749.200195312 414.583592135 l 1
571.626280493 185.00313109 m 1
 702.92608518 182.00313109 l 1
 715.200195312 181.72268642 l 1
 715.200195312 194 l 1
 715.200195312 328.335378342 l 1
 716.126800128 336.674821687 l 1
 720.106203383 372.489450984 l 1
 695.44922742 346.211002433 l 1
 563.149422733 205.211002433 l 1
 544.764331733 185.616885593 l 1
 571.626280493 185.00313109 l 1
EndSplineSet
EndChar

StartChar: onehalf
Encoding: 189 189 124
Width: 821
VWidth: 1024
Flags: HMW
LayerCount: 2
Fore
SplineSet
164.990509397 466.894876752 m 1
 164.700190755 800.010458299 l 1
 164.688501812 813.422511166 l 1
 151.36031197 811.924961745 l 1
 76.7229154894 803.538737422 l 1
 78.1239587967 822.686329289 l 1
 169.927361024 859.953056926 l 1
 205.708628764 859.237431571 l 1
 205.991470058 464.888491791 l 1
 191.597423692 464.894438305 174.147803387 465.261536005 164.990509397 466.894876752 c 1
512.740217296 307.379699712 m 1
 499.023849493 310.112087267 483.531528204 313.531726569 475.970579953 315.707599455 c 1
 475.873365387 327.950662714 475.695581108 335.549129555 475.693333231 344.507747569 c 0
 475.680172965 396.956243502 475.084726028 413 579.700195312 413 c 0
 707.3168968 413 715.599609375 402.580380378 715.599609375 290.096767901 c 0
 714.657339801 231.67605429 707.354314437 220.58758779 635.246531701 171.948326281 c 2
 634.837757694 171.672593689 l 1
 634.452983041 171.3642544 l 2
 572.907322318 122.04461982 557.751996817 122.603954477 556.102815727 51.2773845039 c 2
 555.825472178 39.2823621356 l 1
 567.820453463 39.0032474404 l 1
 731.67284353 35.1905186974 l 1
 740.554318776 12 l 1
 506.051892126 12 l 1
 506 25 l 2
 506 140.6210177 502.133561786 109.96501155 584.043616431 162.922752534 c 2
 584.532644478 163.238926425 l 1
 584.988760215 163.600966195 l 2
 657.852551053 221.436265433 673.599609375 242.824960754 673.599609375 295 c 0
 673.599609375 373.159463381 655.850537133 394 582.299804688 394 c 0
 565.17192686 394 552.310926091 392.294905267 542.302076252 389.234938641 c 0
 512.201364936 380.032365565 512.141775775 357.069243072 514.883478929 348.101670728 c 2
 512.740217296 307.379699712 l 1
226.836306557 2.85254691447 m 1
 422.689306899 918.715354701 l 1
 474.535729857 898.587349469 l 1
 260.782262181 -12.9080753394 l 1
 226.836306557 2.85254691447 l 1
EndSplineSet
EndChar

StartChar: threequarters
Encoding: 190 190 125
Width: 850
VWidth: 1024
Flags: HW
LayerCount: 2
Fore
SplineSet
531.907721319 181.004607757 m 1
 676.207526006 177.004607757 l 1
 688.540039062 176.66274969 l 1
 688.540039062 189 l 1
 688.540039062 326.335378342 l 1
 689.466643878 334.674821687 l 1
 693.196739175 368.245679357 l 1
 669.122713683 344.552697438 l 1
 523.822908996 201.552697438 l 1
 503.737784536 181.785480242 l 1
 531.907721319 181.004607757 l 1
729.540039062 414.583592135 m 1
 729.540039062 175.19510895 l 1
 790.540039062 174.19510895 l 1
 790.540039062 150.198333673 l 1
 729.540039062 151.198333673 l 1
 729.540039062 45.2706010555 l 1
 689.540039062 39.0206010555 l 1
 689.540039062 152.7166876 l 1
 510.188814555 157.002250467 l 1
 458.440429688 156.189863975 l 1
 458.440429688 181.056672342 l 1
 699.746212415 424.241094894 l 1
 729.540039062 421.904324177 l 1
 729.540039062 414.583592135 l 1
214.796805794 34.9198360072 m 1
 541.002856662 952.171700517 l 1
 612.586089891 930.297040677 l 1
 258.907920801 17.5796764578 l 1
 214.796805794 34.9198360072 l 1
219.276815713 726.773047284 m 1
 236.358339505 737.621196327 241.172198195 756.990207298 246.382348163 785.046065299 c 0
 247.718456536 794.297436268 249.139648438 801.317818588 249.139648438 810 c 0
 249.139648438 850.465077491 218.33172026 857 171.599609375 857 c 0
 135.939012504 857 115.601122397 853.086516594 109.492177437 827.397619842 c 1
 81.3991400637 828.478121279 l 1
 88.2939705629 866.545354458 96.0543840581 871 173.599609375 871 c 0
 270.787510124 871 288.83984375 863.372507492 288.83984375 826 c 0
 288.83984375 816.92510363 287.686029086 805.918118913 285.141253808 793.192330603 c 0
 276.467809427 742.679917957 272.288509068 737.215741779 219.276815713 726.773047284 c 1
154.571168061 713.836138731 m 2
 219.656883219 703.15830185 l 2
 296.903891635 690.485306656 303.139648438 682.808707077 303.139648438 626 c 0
 303.139648438 543.177533311 292.485340201 535 180.599609375 535 c 0
 95.7200033453 535 87.8240562069 541.838995372 80.854992438 605.500832254 c 1
 110.549928668 604.401019802 l 1
 115.055210131 563.216937953 135.085855195 553 180.599609375 553 c 0
 236.004738125 553 253.040039062 569.186610103 253.040039062 628 c 0
 253.040039062 689.130648562 232.207637649 704 169.599609375 704 c 2
 154.599609375 704 l 1
 154.599609375 713 l 1
 154.599609375 713.352636391 l 1
 154.578901853 713.704664263 l 2
 154.578901853 713.748489086 154.571168061 713.792313908 154.571168061 713.836138731 c 2
154.571168061 713.836138731 m 1
 154.560082433 714.024594412 l 1
 154.043149149 713.922764495 l 1
 154.571168061 713.836138731 l 1
154.560082433 714.024594412 m 1
 154.326235045 718 l 1
 172.599609375 718 l 2
 173.599609375 718 172.935294034 718.004916018 174.765939122 718.004916018 c 2
 154.560082433 714.024594412 l 1
EndSplineSet
EndChar

StartChar: questiondown
Encoding: 191 191 126
Width: 696
VWidth: 1024
Flags: HW
LayerCount: 2
Fore
SplineSet
394.6525363 685.960976652 m 1
 377.928568512 599.155620039 l 1
 285.933785556 591.014488804 l 1
 277.146546476 694.064838019 l 1
 394.6525363 685.960976652 l 1
635.929898969 -4.85879491083 m 1
 617.915469835 -203.424383565 588.432019131 -233 364.900390625 -233 c 2
 354.564515197 -233.000173427 l 2
 170.547589726 -232.010835118 83.5 -203.500129182 83.5 1 c 2
 83.5 49 l 2
 83.5 136.244118437 87.766495575 130.784940352 203.549731512 211.796703388 c 1
 268.855891363 247.850381183 295.841189088 279.28901112 297.240234375 343.870034778 c 2
 297.240234375 365 l 2
 297.240234375 393.739348631 296.13582861 431.16050566 295.962351494 477 c 1
 377.240234375 477 l 1
 377.240234375 467 l 2
 377.240234375 396.990375748 396 343.236950289 396 311 c 2
 396 308.921882046 l 1
 396.698805137 306.964780717 l 2
 402.378187392 291.058877947 403.861233652 279.099355886 403.861233652 269.203762121 c 0
 403.861233652 255.796291859 400.663287121 245.913562806 400.663287121 233.516954477 c 0
 400.663287121 210.14579227 378.622149491 208.560339756 291.618178387 161.569726703 c 0
 184.898773961 104.204026338 173.5 98.0594830124 173.5 25 c 2
 173.5 10 l 2
 173.5 -144.487626823 271.094049959 -159.905527461 352.885816952 -170.890938276 c 0
 375.354096949 -173.940984946 397.791393383 -176 415.599609375 -176 c 0
 518.508996549 -176 542.373033989 -114.476181646 554.573393186 9.86285851654 c 1
 635.929898969 -4.85879491083 l 1
EndSplineSet
EndChar

StartChar: Agrave
Encoding: 192 192 127
Width: 867
VWidth: 1024
Flags: HW
LayerCount: 2
Fore
SplineSet
475.482389511 1031 m 1
 379.319508173 1031 l 1
 279.717934886 1152.0859375 l 1
 408.323160056 1130.92578125 l 1
 475.482389511 1031 l 1
144.10546875 -19.5146484375 m 1
 59.7998046875 2.3427734375 l 1
 367.374919722 903.950195312 l 1
 512.80934428 903.049804688 l 1
 815.861328125 0.513671875 l 1
 746.629882812 -22.814453125 l 1
 675.556640625 184.884765625 l 1
 672.723632812 193.165039062 l 1
 663.973632812 192.998046875 l 1
 215.968664375 183.998046875 l 1
 207.419921875 183.833007812 l 1
 204.845703125 175.567382812 l 1
 144.10546875 -19.5146484375 l 1
246.631415608 266.95703125 m 1
 263.10006212 267 l 1
 643.126500456 268 l 1
 660.332009528 268.044921875 l 1
 653.572338265 284.71484375 l 1
 451.220610409 783.71484375 l 1
 440.049959364 811.26171875 l 1
 430.080533324 783.208007812 l 1
 252.405822844 283.208007812 l 1
 246.631415608 266.95703125 l 1
EndSplineSet
EndChar

StartChar: Aacute
Encoding: 193 193 128
Width: 867
VWidth: 1024
Flags: HW
LayerCount: 2
Fore
SplineSet
491.788833573 1030.41015625 m 1
 382.753565767 1017.78613281 l 1
 459.58098814 1135.76367188 l 1
 591.803791391 1153.22753906 l 1
 491.788833573 1030.41015625 l 1
144.10546875 -19.5146484375 m 1
 59.7998046875 2.3427734375 l 1
 367.374919722 903.950195312 l 1
 512.80934428 903.049804688 l 1
 815.861328125 0.513671875 l 1
 746.629882812 -22.814453125 l 1
 675.556640625 184.884765625 l 1
 672.723632812 193.165039062 l 1
 663.973632812 192.998046875 l 1
 215.968664375 183.998046875 l 1
 207.419921875 183.833007812 l 1
 204.845703125 175.567382812 l 1
 144.10546875 -19.5146484375 l 1
246.631415608 266.95703125 m 1
 263.10006212 267 l 1
 643.126500456 268 l 1
 660.332009528 268.044921875 l 1
 653.572338265 284.71484375 l 1
 451.220610409 783.71484375 l 1
 440.049959364 811.26171875 l 1
 430.080533324 783.208007812 l 1
 252.405822844 283.208007812 l 1
 246.631415608 266.95703125 l 1
EndSplineSet
EndChar

StartChar: Acircumflex
Encoding: 194 194 129
Width: 867
VWidth: 1024
Flags: HW
LayerCount: 2
Fore
SplineSet
434.789038743 1098.2734375 m 1
 428.126688949 1091.85644531 l 1
 346.912385445 1013.63378906 l 1
 251.152693055 1027.06640625 l 1
 391.021256384 1139.57421875 l 1
 499.709874382 1156.26464844 l 1
 620.265223654 1031 l 1
 528.170379773 1031 l 1
 442.239229009 1092.90625 l 1
 434.789038743 1098.2734375 l 1
144.10546875 -19.5146484375 m 1
 59.7998046875 2.3427734375 l 1
 367.374919722 903.950195312 l 1
 512.80934428 903.049804688 l 1
 815.861328125 0.513671875 l 1
 746.629882812 -22.814453125 l 1
 675.556640625 184.884765625 l 1
 672.723632812 193.165039062 l 1
 663.973632812 192.998046875 l 1
 215.968664375 183.998046875 l 1
 207.419921875 183.833007812 l 1
 204.845703125 175.567382812 l 1
 144.10546875 -19.5146484375 l 1
246.631415608 266.95703125 m 1
 263.10006212 267 l 1
 643.126500456 268 l 1
 660.332009528 268.044921875 l 1
 653.572338265 284.71484375 l 1
 451.220610409 783.71484375 l 1
 440.049959364 811.26171875 l 1
 430.080533324 783.208007812 l 1
 252.405822844 283.208007812 l 1
 246.631415608 266.95703125 l 1
EndSplineSet
EndChar

StartChar: Atilde
Encoding: 195 195 130
Width: 867
VWidth: 1024
Flags: HW
LayerCount: 2
Fore
SplineSet
359.312994499 1105 m 0
 328.336960819 1105 322.554211743 1080.02148438 322.06667752 1031 c 1
 244.89353221 1031 l 1
 245.973337094 1155.09667969 256.572108642 1157 350.675482295 1157 c 0
 477.778249339 1157 403.653583225 1078 511.076095238 1078 c 0
 535.826335434 1078 567.978568598 1086.16699219 571.453408522 1143.32714844 c 1
 650.179989872 1138.65820312 l 1
 649.285559217 1014.56054688 640.196660765 1014 544.390624818 1014 c 0
 416.79012797 1014 465.75487684 1105 359.312994499 1105 c 0
144.10546875 -19.5146484375 m 1
 59.7998046875 2.3427734375 l 1
 367.374919722 903.950195312 l 1
 512.80934428 903.049804688 l 1
 815.861328125 0.513671875 l 1
 746.629882812 -22.814453125 l 1
 675.556640625 184.884765625 l 1
 672.723632812 193.165039062 l 1
 663.973632812 192.998046875 l 1
 215.968664375 183.998046875 l 1
 207.419921875 183.833007812 l 1
 204.845703125 175.567382812 l 1
 144.10546875 -19.5146484375 l 1
246.631415608 266.95703125 m 1
 263.10006212 267 l 1
 643.126500456 268 l 1
 660.332009528 268.044921875 l 1
 653.572338265 284.71484375 l 1
 451.220610409 783.71484375 l 1
 440.049959364 811.26171875 l 1
 430.080533324 783.208007812 l 1
 252.405822844 283.208007812 l 1
 246.631415608 266.95703125 l 1
EndSplineSet
EndChar

StartChar: Adieresis
Encoding: 196 196 131
Width: 867
VWidth: 1024
Flags: HW
LayerCount: 2
Fore
SplineSet
595.927441117 1031.70996094 m 1
 486.684554175 1038.33007812 l 1
 486.684554175 1133.29003906 l 1
 595.927441117 1126.66992188 l 1
 595.927441117 1031.70996094 l 1
398.511302111 1031 m 1
 277.580570025 1031 l 1
 299.192424522 1124.1484375 l 1
 398.511302111 1125.80859375 l 1
 398.511302111 1031 l 1
144.10546875 -19.5146484375 m 1
 59.7998046875 2.3427734375 l 1
 367.374919722 903.950195312 l 1
 512.80934428 903.049804688 l 1
 815.861328125 0.513671875 l 1
 746.629882812 -22.814453125 l 1
 675.556640625 184.884765625 l 1
 672.723632812 193.165039062 l 1
 663.973632812 192.998046875 l 1
 215.968664375 183.998046875 l 1
 207.419921875 183.833007812 l 1
 204.845703125 175.567382812 l 1
 144.10546875 -19.5146484375 l 1
246.631415608 266.95703125 m 1
 263.10006212 267 l 1
 643.126500456 268 l 1
 660.332009528 268.044921875 l 1
 653.572338265 284.71484375 l 1
 451.220610409 783.71484375 l 1
 440.049959364 811.26171875 l 1
 430.080533324 783.208007812 l 1
 252.405822844 283.208007812 l 1
 246.631415608 266.95703125 l 1
EndSplineSet
EndChar

StartChar: Aring
Encoding: 197 197 132
Width: 867
VWidth: 1024
Flags: HW
LayerCount: 2
Fore
SplineSet
246.631415608 266.95703125 m 1
 263.10006212 267 l 1
 643.126500456 268 l 1
 660.332009528 268.044921875 l 1
 653.572338265 284.71484375 l 1
 451.220610409 783.71484375 l 1
 440.049959364 811.26171875 l 1
 430.080533324 783.208007812 l 1
 252.405822844 283.208007812 l 1
 246.631415608 266.95703125 l 1
144.10546875 -19.5146484375 m 1
 59.7998046875 2.3427734375 l 1
 367.374919722 903.950195312 l 1
 512.80934428 903.049804688 l 1
 815.861328125 0.513671875 l 1
 746.629882812 -22.814453125 l 1
 675.556640625 184.884765625 l 1
 672.723632812 193.165039062 l 1
 663.973632812 192.998046875 l 1
 215.968664375 183.998046875 l 1
 207.419921875 183.833007812 l 1
 204.845703125 175.567382812 l 1
 144.10546875 -19.5146484375 l 1
387.691008359 1038 m 2
 342.683999279 1038 346.025369759 1036.1015625 346.025369759 1098 c 0
 346.025369759 1171.66992188 346.223720184 1174 443.214297454 1174 c 0
 533.765900878 1174 526.831977839 1173.66796875 526.831977839 1109 c 2
 526.831977839 1071 l 2
 526.831977839 1033.90136719 531.924207912 1038 496.270255561 1038 c 2
 387.691008359 1038 l 2
389.73105175 1066.98828125 m 0
 399.58739951 1055.50097656 414.062346189 1057 433.344046627 1057 c 0
 473.059548337 1057 487.91821967 1065.60839844 487.91821967 1106 c 0
 487.91821967 1116.07910156 489.151885164 1122.24316406 489.151885164 1130 c 0
 489.151885164 1153.36035156 469.16947014 1154 448.149886304 1154 c 0
 410.885031902 1154 382.470870068 1149.64453125 382.470870068 1106 c 0
 382.470870068 1090.48339844 380.782110841 1077.41699219 389.73105175 1066.98828125 c 0
EndSplineSet
EndChar

StartChar: AE
Encoding: 198 198 133
Width: 1298
VWidth: 1024
Flags: HW
LayerCount: 2
Fore
SplineSet
320.407030866 283.943359375 m 1
 340.98809507 283.01171875 l 1
 672.404138583 268.01171875 l 1
 684.416015059 267.467773438 l 1
 684.592758119 279.823242188 l 1
 692.377054622 822.823242188 l 1
 692.966198156 863.869140625 l 1
 670.95788623 829.611328125 l 1
 331.757546214 301.611328125 l 1
 320.407030866 283.943359375 l 1
141.283203125 -20.1005859375 m 1
 58.5 3.3291015625 l 1
 568.339535128 894.053710938 l 1
 685.567695645 895 l 1
 1218.01074219 895 l 1
 1218.01074219 816.009765625 l 1
 1057.38283167 816.30078125 983.095632936 822.021484375 802.392958003 823 c 2
 790.655698433 823.063476562 l 1
 790.655698433 811 l 1
 790.655698433 429 l 1
 790.655698433 416.763671875 l 1
 802.559248517 417.001953125 l 1
 1198.01074219 424.861328125 l 1
 1198.01074219 350.12109375 l 1
 802.530741572 356.998046875 l 1
 790.655698433 357.206054688 l 1
 790.655698433 345 l 1
 790.655698433 67 l 1
 790.655698433 55 l 1
 802.332143187 55 l 2
 1004.59367054 55 1076.02162267 62.7529296875 1233.01074219 62.9951171875 c 1
 1233.01074219 -25.998046875 l 1
 1072.08481354 -25.9521484375 1004.8606856 -25 800.386069061 -25 c 2
 788.709624307 -25 l 2
 788.709624307 -26 788.709624307 -25 788.709624307 -26 c 2
 698.217177462 -26 l 1
 698.217177462 181 l 1
 698.217177462 193.366210938 l 1
 686.189147051 192.994140625 l 2
 588.962409518 189.991210938 280.364275174 177.9921875 280.34241985 177.991210938 c 2
 274.454785434 177.762695312 l 1
 271.135626782 172.758789062 l 1
 141.283203125 -20.1005859375 l 1
EndSplineSet
EndChar

StartChar: Ccedilla
Encoding: 199 199 134
Width: 723
VWidth: 1024
Flags: HW
LayerCount: 2
Fore
SplineSet
382.832355256 -105.715820312 m 1
 409.570172896 -34.6455078125 l 1
 418.264937082 -34.7734375 426.787768359 -34.916015625 433.960341195 -35.044921875 c 1
 425.346592516 -58.5703125 l 1
 418.215427605 -78.046875 l 1
 437.308081956 -74.8603515625 l 2
 442.844141562 -73.9365234375 450.563118981 -73 461.989005905 -73 c 0
 529.697265625 -73 534.599609375 -77.94921875 534.599609375 -162 c 0
 534.599609375 -242.881835938 529.990234375 -248 450.005912331 -248 c 0
 382.159926552 -248 372.637003857 -242.784179688 356.368189992 -206.760742188 c 1
 391.282272577 -184.098632812 l 1
 404.659733034 -212.4921875 419.417157618 -219 446.411524362 -219 c 0
 485.869676686 -219 498.860063056 -204.891601562 498.860063056 -162 c 0
 498.860063056 -119.084960938 487.567401632 -104 450.005912331 -104 c 0
 428.632221389 -104 414.428402766 -104.403320312 405.631919111 -116.588867188 c 1
 382.832355256 -105.715820312 l 1
471.206770193 81 m 2
 585.875976562 81 633.290039062 81.5078125 652.233398438 82.8837890625 c 1
 667.913085938 6.0517578125 l 1
 648.838867188 3.6103515625 595.490234375 3 471.206770193 3 c 0
 127.569335938 3 76.7001953125 89.7333984375 76.7001953125 411 c 2
 76.7001953125 464.90234375 l 1
 82.6640625 830.697265625 125.033203125 929 454.799329795 929 c 2
 471.117653136 929 l 2
 591.551757812 926.999023438 646.872070312 926.302734375 667.759765625 925.821289062 c 1
 650.661132812 850.431640625 l 1
 645.440429688 850.16015625 638.11328125 850 626.599609375 850 c 0
 599.828125 850 551.836914062 850.998046875 471.27248277 852 c 2
 461.989005905 852 l 2
 231.281148227 852 186.237304688 755.765625 179.700195312 465.134765625 c 1
 179.700195312 414 l 2
 179.700195312 159.637695312 277.060310397 131.384765625 468.616974504 81.333984375 c 2
 469.893418816 81 l 1
 471.206770193 81 l 2
EndSplineSet
EndChar

StartChar: Egrave
Encoding: 200 200 135
Width: 670
VWidth: 1024
Flags: HW
LayerCount: 2
Fore
SplineSet
614.940429688 116.985351562 m 1
 614.940429688 28 l 1
 93.599609375 28 l 1
 93.599609375 949 l 1
 599.940429688 949 l 1
 599.940429688 870.009765625 l 1
 440.949350501 870.30078125 372.33678881 876.021484375 200.663085938 877 c 2
 188.599609375 877.063476562 l 1
 188.599609375 865 l 1
 188.599609375 483 l 1
 188.599609375 470.255859375 l 1
 201.3203125 471.021484375 l 1
 579.78515625 495.247070312 l 1
 579.245117188 471.397460938 577.577148438 444.564453125 577.063476562 420.520507812 c 1
 200.10546875 403.990234375 l 1
 188.599609375 403.515625 l 1
 188.599609375 392 l 1
 188.599609375 121 l 1
 188.599609375 109 l 1
 200.599609375 109 l 2
 390.182830272 109 462.245117188 116.58203125 614.940429688 116.985351562 c 1
417.150240325 1031 m 1
 322.519880899 1031 l 1
 223.588867188 1157 l 1
 362.192085689 1157 l 1
 417.150240325 1031 l 1
EndSplineSet
EndChar

StartChar: Eacute
Encoding: 201 201 136
Width: 671
VWidth: 1024
Flags: HW
LayerCount: 2
Fore
SplineSet
435.951159976 1034.80859375 m 1
 346.180323103 1031.5390625 l 1
 379.342154353 1155.09375 l 1
 527.3125 1156.74121094 l 1
 435.951159976 1034.80859375 l 1
614.940429688 12 m 1
 93.599609375 12 l 1
 93.599609375 915 l 1
 599.940429688 915 l 1
 599.940429688 838.009765625 l 1
 440.949350501 838.30078125 372.33678881 844.021484375 200.663085938 845 c 2
 188.599609375 845.063476562 l 1
 188.599609375 833 l 1
 188.599609375 458 l 1
 188.599609375 445.764648438 l 1
 200.833007812 446.001953125 l 1
 579.940429688 453.841796875 l 1
 579.940429688 381.137695312 l 1
 200.803710938 387.998046875 l 1
 188.599609375 388.206054688 l 1
 188.599609375 376 l 1
 188.599609375 103 l 1
 188.599609375 91 l 1
 200.599609375 91 l 2
 388.708386009 91 459.256155795 98.7529296875 614.940429688 98.9951171875 c 1
 614.940429688 12 l 1
EndSplineSet
EndChar

StartChar: Ecircumflex
Encoding: 202 202 137
Width: 671
VWidth: 1024
Flags: HW
LayerCount: 2
Fore
SplineSet
390.118762158 1097.45996094 m 1
 384.05598777 1093.03027344 l 1
 292.10595738 1025.84472656 l 1
 214.290039062 1044.93261719 l 1
 338.789671231 1147.08398438 l 1
 417.478479702 1148.90429688 l 1
 543.659179688 1031 l 1
 478.672851562 1031 l 1
 396.092016717 1092.88378906 l 1
 390.118762158 1097.45996094 l 1
614.940429688 12 m 1
 93.599609375 12 l 1
 93.599609375 915 l 1
 599.940429688 915 l 1
 599.940429688 838.009765625 l 1
 440.949350501 838.30078125 372.33678881 844.021484375 200.663085938 845 c 2
 188.599609375 845.063476562 l 1
 188.599609375 833 l 1
 188.599609375 458 l 1
 188.599609375 445.764648438 l 1
 200.833007812 446.001953125 l 1
 579.940429688 453.841796875 l 1
 579.940429688 381.137695312 l 1
 200.803710938 387.998046875 l 1
 188.599609375 388.206054688 l 1
 188.599609375 376 l 1
 188.599609375 103 l 1
 188.599609375 91 l 1
 200.599609375 91 l 2
 392.191760581 91 458.164364924 98.7529296875 614.940429688 98.9951171875 c 1
 614.940429688 12 l 1
EndSplineSet
EndChar

StartChar: Edieresis
Encoding: 203 203 138
Width: 671
VWidth: 1024
Flags: HW
LayerCount: 2
Fore
SplineSet
530.940429688 1032.44042969 m 1
 433.730717127 1043.82910156 l 1
 426.41554276 1126 l 1
 530.940429688 1126 l 1
 530.940429688 1032.44042969 l 1
355.824768349 1031 m 1
 237.99609375 1031 l 1
 249.849964547 1109.24511719 l 1
 355.824768349 1124.36328125 l 1
 355.824768349 1031 l 1
614.940429688 12 m 1
 93.599609375 12 l 1
 93.599609375 915 l 1
 599.940429688 915 l 1
 599.940429688 838.009765625 l 1
 440.949350501 838.30078125 372.33678881 844.021484375 200.663085938 845 c 2
 188.599609375 845.063476562 l 1
 188.599609375 833 l 1
 188.599609375 458 l 1
 188.599609375 445.764648438 l 1
 200.833007812 446.001953125 l 1
 579.940429688 453.841796875 l 1
 579.940429688 381.137695312 l 1
 200.803710938 387.998046875 l 1
 188.599609375 388.206054688 l 1
 188.599609375 376 l 1
 188.599609375 103 l 1
 188.599609375 91 l 1
 200.599609375 91 l 2
 392.191760581 91 458.164364924 98.7529296875 614.940429688 98.9951171875 c 1
 614.940429688 12 l 1
EndSplineSet
EndChar

StartChar: Igrave
Encoding: 204 204 139
Width: 286
VWidth: 1024
Flags: HW
LayerCount: 2
Fore
SplineSet
184.50390625 1031 m 1
 108.877929688 1031 l 1
 46.7998046875 1140.05664062 l 1
 137.190429688 1155.5078125 l 1
 184.50390625 1031 l 1
104.747070312 15.80078125 m 1
 92.9228515625 917.373046875 l 1
 187.048828125 912.586914062 l 1
 198.80859375 13 l 1
 163.901367188 13 l 2
 163.901367188 14 163.901367188 13.7978515625 163.901367188 14.7978515625 c 2
 152.104492188 14.998046875 l 1
 104.747070312 15.80078125 l 1
EndSplineSet
EndChar

StartChar: Iacute
Encoding: 205 205 140
Width: 271
VWidth: 1024
Flags: HW
LayerCount: 2
Fore
SplineSet
160.834960938 1031 m 1
 84.1669921875 1031 l 1
 130.193359375 1154.28515625 l 1
 230.0546875 1124.40527344 l 1
 160.834960938 1031 l 1
93.724609375 15.80078125 m 1
 81.900390625 917.373046875 l 1
 176.026367188 912.586914062 l 1
 187.78515625 13 l 1
 152.877929688 13 l 2
 152.877929688 14 152.877929688 13.7978515625 152.877929688 14.7978515625 c 2
 141.081054688 14.998046875 l 1
 93.724609375 15.80078125 l 1
EndSplineSet
EndChar

StartChar: Icircumflex
Encoding: 206 206 141
Width: 399
VWidth: 1024
Flags: HW
LayerCount: 2
Fore
SplineSet
185.671875 1099.09667969 m 1
 177.604492188 1092.0234375 l 1
 107.2578125 1030.34960938 l 1
 46.7998046875 1021.34472656 l 1
 144.171875 1144.08300781 l 1
 214.216796875 1157.91894531 l 1
 329.791015625 1031.53515625 l 1
 258.26171875 1032.91113281 l 1
 193.600585938 1091.8671875 l 1
 185.671875 1099.09667969 l 1
138.361328125 15.80078125 m 1
 126.537109375 917.373046875 l 1
 220.663085938 912.586914062 l 1
 232.422851562 13 l 1
 197.515625 13 l 2
 197.515625 14 197.515625 13.7978515625 197.515625 14.7978515625 c 2
 185.71875 14.998046875 l 1
 138.361328125 15.80078125 l 1
EndSplineSet
EndChar

StartChar: Idieresis
Encoding: 207 207 142
Width: 341
VWidth: 1024
Flags: HW
LayerCount: 2
Fore
SplineSet
301.24609375 1031 m 1
 206.02734375 1031 l 1
 204.450195312 1116.96777344 l 1
 301.24609375 1124.96777344 l 1
 301.24609375 1031 l 1
141.24609375 1031 m 1
 48.099609375 1031 l 1
 60.7529296875 1118.78027344 l 1
 141.24609375 1125.03222656 l 1
 141.24609375 1031 l 1
127.091796875 15.80078125 m 1
 115.268554688 917.373046875 l 1
 209.393554688 912.586914062 l 1
 221.153320312 13 l 1
 186.24609375 13 l 2
 186.24609375 14 186.24609375 13.7978515625 186.24609375 14.7978515625 c 2
 174.44921875 14.998046875 l 1
 127.091796875 15.80078125 l 1
EndSplineSet
EndChar

StartChar: Eth
Encoding: 208 208 143
Width: 922
VWidth: 1024
Flags: HW
LayerCount: 2
Fore
SplineSet
849.801757812 463.23828125 m 0
 840.846679688 12.484375 841.44921875 12 440.308010964 12 c 2
 154.037109375 12 l 1
 156 383.936523438 l 1
 156.063476562 396 l 1
 144 396 l 1
 65 396 l 1
 65 475.330078125 l 1
 144.348632812 471.017578125 l 1
 156.943359375 470.333007812 l 1
 157 482.946289062 l 1
 158.946289062 915 l 1
 403.171069014 915 l 2
 811.104492188 915 851.799804688 901.737304688 851.799804688 589 c 0
 851.799804688 551.200195312 850.803710938 510.299804688 849.801757812 463.23828125 c 0
245.827269211 85 m 1
 257.098725376 85 l 2
 328.758628312 85 355.994803512 84 429.166742397 84 c 0
 722.459960938 84 737.052734375 102.024414062 746.194335938 462.620117188 c 0
 747.493164062 503.588867188 748.799804688 539.684570312 748.799804688 573 c 0
 748.799804688 822.306640625 689.983644282 842 409.360559339 842 c 2
 245.671974006 842 l 1
 234.039712216 842 l 1
 234.247082459 829.786132812 l 1
 234.247082459 829.786132812 237.103770302 661.796875 239.960458144 476.805664062 c 2
 240.135281489 465.469726562 l 1
 250.921323899 465.009765625 l 1
 404.123298294 458.477539062 l 1
 404.123298294 396 l 1
 252.337578972 396 l 1
 240.698807801 396 l 1
 240.912687425 383.780273438 l 2
 242.817145986 274.77734375 244.721604548 169.778320312 245.672903917 96.8359375 c 2
 245.827269211 85 l 1
EndSplineSet
EndChar

StartChar: Ntilde
Encoding: 209 209 144
Width: 826
VWidth: 1024
Flags: HW
LayerCount: 2
Fore
SplineSet
326.883612093 1105 m 2
 301.836746246 1105 254.258486955 1101.48632812 248.059383088 1044.50390625 c 1
 181.755859375 1041.55273438 l 1
 185.124023438 1160.44433594 229.364257812 1167 326.883612093 1167 c 0
 451.590533053 1167 396.032595679 1064 502.101072675 1064 c 0
 531.952198317 1064 550.415144206 1094.43847656 553.139934626 1147.21289062 c 1
 600.458007812 1136.32226562 l 1
 599.427734375 1011.42285156 588.159112947 1016 493.583931738 1016 c 0
 368.72619212 1016 440.855900818 1105 335.401667083 1105 c 2
 326.883612093 1105 l 2
669.9921875 130.116210938 m 1
 662.319335938 920.975585938 l 1
 749.040039062 913.931640625 l 1
 752.939453125 11.330078125 l 1
 728.31640625 11.99609375 l 1
 727.87109375 12.0078125 l 1
 727.42578125 11.986328125 l 1
 587.369371611 5.3251953125 l 1
 200.881835938 688.173828125 l 1
 177.276367188 727.517578125 l 1
 178.596679688 681.654296875 l 1
 197.885742188 12 l 1
 93.599609375 12 l 1
 94.5751953125 919.485351562 l 1
 129.572265625 910.385742188 l 1
 130.524414062 910.138671875 l 1
 131.504882812 910.049804688 l 1
 213.274414062 902.607421875 l 1
 647.651367188 123.912109375 l 1
 670.427734375 85.2197265625 l 1
 669.9921875 130.116210938 l 1
EndSplineSet
EndChar

StartChar: Ograve
Encoding: 210 210 145
Width: 868
VWidth: 1024
Flags: HW
LayerCount: 2
Fore
SplineSet
520.457223632 1031 m 1
 415.380221331 1031 l 1
 315.930926181 1153.58984375 l 1
 501.455979099 1131.07421875 l 1
 520.457223632 1031 l 1
179.700195312 451 m 0
 179.700195312 127.830078125 220.05859375 66.0908203125 435.900346629 63 c 2
 454.414071986 63 l 2
 637.729591975 63 698.400390625 110.28515625 698.400390625 322 c 0
 698.400390625 360.587890625 695.784179688 402.619140625 693.180664062 451.694335938 c 0
 673.633789062 762.434570312 625.113186644 840 435.976983166 840 c 0
 229.86328125 840 179.700195312 762.283203125 179.700195312 451 c 0
436.077626329 -15 m 1
 114.443359375 -9.099609375 76.7001953125 46.12109375 76.7001953125 451 c 0
 76.7001953125 841.734375 128.802734375 917 435.976983166 917 c 0
 726.116210938 917 778.502929688 841.584960938 797.411132812 450.484375 c 0
 799.407226562 397.599609375 801.400390625 350.578125 801.400390625 309 c 0
 801.400390625 32.6572265625 747.612304688 -15 472.851160807 -15 c 2
 436.077626329 -15 l 1
EndSplineSet
EndChar

StartChar: Oacute
Encoding: 211 211 146
Width: 868
VWidth: 1024
Flags: HW
LayerCount: 2
Fore
SplineSet
455.498063487 1031 m 1
 355.76438215 1031 l 1
 413.076508561 1155.89746094 l 1
 544.831335745 1136.25976562 l 1
 455.498063487 1031 l 1
179.700195312 451 m 0
 179.700195312 127.830078125 220.05859375 66.0908203125 435.900346629 63 c 2
 454.414071986 63 l 2
 637.729591975 63 698.400390625 110.28515625 698.400390625 322 c 0
 698.400390625 360.587890625 695.784179688 402.619140625 693.180664062 451.694335938 c 0
 673.633789062 762.434570312 625.113186644 840 435.976983166 840 c 0
 229.86328125 840 179.700195312 762.283203125 179.700195312 451 c 0
436.077626329 -15 m 1
 114.443359375 -9.099609375 76.7001953125 46.12109375 76.7001953125 451 c 0
 76.7001953125 841.734375 128.802734375 917 435.976983166 917 c 0
 726.116210938 917 778.502929688 841.584960938 797.411132812 450.484375 c 0
 799.407226562 397.599609375 801.400390625 350.578125 801.400390625 309 c 0
 801.400390625 32.6572265625 747.612304688 -15 472.851160807 -15 c 2
 436.077626329 -15 l 1
EndSplineSet
EndChar

StartChar: Ocircumflex
Encoding: 212 212 147
Width: 868
VWidth: 1024
Flags: HW
LayerCount: 2
Fore
SplineSet
407.345388253 1097.59863281 m 1
 401.369585025 1091.94140625 l 1
 336.997663887 1031 l 1
 246.082724303 1031 l 1
 366.882220015 1157 l 1
 494.009308359 1157 l 1
 614.809727402 1031 l 1
 522.459006913 1031 l 1
 414.381176354 1093.52832031 l 1
 407.345388253 1097.59863281 l 1
179.700195312 451 m 0
 179.700195312 127.830078125 220.05859375 66.0908203125 435.900346629 63 c 2
 454.414071986 63 l 2
 637.729591975 63 698.400390625 110.28515625 698.400390625 322 c 0
 698.400390625 360.587890625 695.784179688 402.619140625 693.180664062 451.694335938 c 0
 673.633789062 762.434570312 625.113186644 840 435.976983166 840 c 0
 229.86328125 840 179.700195312 762.283203125 179.700195312 451 c 0
436.077626329 -15 m 1
 114.443359375 -9.099609375 76.7001953125 46.12109375 76.7001953125 451 c 0
 76.7001953125 841.734375 128.802734375 917 435.976983166 917 c 0
 726.116210938 917 778.502929688 841.584960938 797.411132812 450.484375 c 0
 799.407226562 397.599609375 801.400390625 350.578125 801.400390625 309 c 0
 801.400390625 32.6572265625 747.612304688 -15 472.851160807 -15 c 2
 436.077626329 -15 l 1
EndSplineSet
EndChar

StartChar: Otilde
Encoding: 213 213 148
Width: 868
VWidth: 1024
Flags: HW
LayerCount: 2
Fore
SplineSet
327.813282752 1105 m 0
 296.955534937 1105 291.193944681 1080.02246094 290.708272169 1031 c 1
 212.799804688 1031 l 1
 212.799804688 1082 l 2
 212.799804688 1158.41210938 212.212890625 1161 292.1680597 1161 c 0
 419.899007023 1161 375.067556172 1078 478.99685708 1078 c 0
 510.37813401 1078 516.744506577 1101.234375 517.331745584 1152 c 1
 594.208348908 1152 l 1
 593.150210698 1026.75585938 581.414663878 1016 487.601385862 1016 c 0
 361.59060563 1016 435.495003981 1105 327.813282752 1105 c 0
179.700195312 451 m 0
 179.700195312 127.830078125 220.05859375 66.0908203125 435.900346629 63 c 2
 454.414071986 63 l 2
 637.729591975 63 698.400390625 110.28515625 698.400390625 322 c 0
 698.400390625 360.587890625 695.784179688 402.619140625 693.180664062 451.694335938 c 0
 673.633789062 762.434570312 625.113186644 840 435.976983166 840 c 0
 229.86328125 840 179.700195312 762.283203125 179.700195312 451 c 0
436.077626329 -15 m 1
 114.443359375 -9.099609375 76.7001953125 46.12109375 76.7001953125 451 c 0
 76.7001953125 841.734375 128.802734375 917 435.976983166 917 c 0
 726.116210938 917 778.502929688 841.584960938 797.411132812 450.484375 c 0
 799.407226562 397.599609375 801.400390625 350.578125 801.400390625 309 c 0
 801.400390625 32.6572265625 747.612304688 -15 472.851160807 -15 c 2
 436.077626329 -15 l 1
EndSplineSet
EndChar

StartChar: Odieresis
Encoding: 214 214 149
Width: 868
VWidth: 1024
Flags: HW
LayerCount: 2
Fore
SplineSet
600.398365107 1031.34375 m 1
 487.935631964 1034.70117188 l 1
 478.176938467 1126 l 1
 600.398365107 1126 l 1
 600.398365107 1031.34375 l 1
403.736084357 1031 m 1
 281.422324539 1031 l 1
 291.284431194 1129.69140625 l 1
 403.736084357 1126.33398438 l 1
 403.736084357 1031 l 1
179.700195312 451 m 0
 179.700195312 127.830078125 220.05859375 66.0908203125 435.900346629 63 c 2
 454.414071986 63 l 2
 637.729591975 63 698.400390625 110.28515625 698.400390625 322 c 0
 698.400390625 360.587890625 695.784179688 402.619140625 693.180664062 451.694335938 c 0
 673.633789062 762.434570312 625.113186644 840 435.976983166 840 c 0
 229.86328125 840 179.700195312 762.283203125 179.700195312 451 c 0
436.077626329 -15 m 1
 114.443359375 -9.099609375 76.7001953125 46.12109375 76.7001953125 451 c 0
 76.7001953125 841.734375 128.802734375 917 435.976983166 917 c 0
 726.116210938 917 778.502929688 841.584960938 797.411132812 450.484375 c 0
 799.407226562 397.599609375 801.400390625 350.578125 801.400390625 309 c 0
 801.400390625 32.6572265625 747.612304688 -15 472.851160807 -15 c 2
 436.077626329 -15 l 1
EndSplineSet
EndChar

StartChar: multiply
Encoding: 215 215 150
Width: 646
VWidth: 1024
Flags: HW
LayerCount: 2
Fore
SplineSet
328.712072602 508.157226562 m 1
 472.057617188 686.786132812 l 1
 538.875976562 661.259765625 l 1
 384.239518161 431.846679688 l 1
 379.83904087 424.8125 l 1
 384.399567495 417.905273438 l 1
 581.5 142.587890625 l 1
 489.498046875 107.387695312 l 1
 326.728164375 331.359375 l 1
 318.285122315 343.435546875 l 1
 309.727759302 331.458984375 l 1
 309.727759302 331.458984375 183.564453125 158.603515625 157.489257812 125.927734375 c 1
 55.900390625 141.801757812 l 1
 251.966658203 413.876953125 l 1
 256.617762198 420.87890625 l 1
 252.071305844 427.963867188 l 1
 87.7841796875 665 l 1
 183.135742188 665 l 1
 312.484653048 507.993164062 l 1
 320.683224148 497.831054688 l 1
 328.712072602 508.157226562 l 1
EndSplineSet
EndChar

StartChar: Oslash
Encoding: 216 216 151
Width: 940
VWidth: 1024
Flags: HW
LayerCount: 2
Fore
SplineSet
243.468516471 123.815429688 m 2
 288.462732443 73.1904296875 362.211292861 63 476.069078669 63 c 0
 723.358398438 63 769.900390625 123.899414062 769.900390625 451 c 0
 769.900390625 567.486328125 762.290039062 650.599609375 740.572265625 710.11328125 c 2
 733.608398438 729.200195312 l 1
 720.254882812 713.88671875 l 1
 243.211656612 139.88671875 l 1
 236.433720547 131.729492188 l 1
 243.468516471 123.815429688 l 2
134.91796875 67.755859375 m 2
 90.90625 132.368164062 78 248.993164062 78 451 c 0
 78 841.01953125 134.3515625 917 476.069078669 917 c 0
 619.366168546 917 716.34751709 902.419921875 775.354492188 863.942382812 c 2
 785.260742188 857.49609375 l 1
 791.857421875 867.301757812 l 1
 825.290039062 917 l 1
 862.478515625 917 l 1
 810.916015625 839.65625 l 1
 806.400390625 832.883789062 l 1
 811.024414062 826.18359375 l 2
 857.18359375 759.299804688 872.900390625 643.807617188 872.900390625 451 c 0
 872.900390625 40.7099609375 831.96484375 -15 476.069078669 -15 c 0
 326.325364719 -15 227.641601562 -4.2177734375 170.307617188 31.2080078125 c 2
 160.4453125 37.3017578125 l 1
 154.015625 27.65625 l 1
 125.578125 -15 l 1
 88.4931640625 -15 l 1
 134.966796875 54.3173828125 l 1
 139.483398438 61.052734375 l 1
 134.91796875 67.755859375 l 2
214.782226562 180.890625 m 1
 228.047851562 196.1171875 l 1
 703.974503224 769.1171875 l 1
 710.703114751 777.221679688 l 1
 703.764175948 785.12890625 l 2
 657.922136311 837.368164062 585.484864087 852 476.069078669 852 c 0
 238.463471825 852 181 775.354492188 181 463 c 0
 181 342.7265625 185.870117188 258.731445312 207.750976562 199.822265625 c 2
 214.782226562 180.890625 l 1
EndSplineSet
EndChar

StartChar: Ugrave
Encoding: 217 217 152
Width: 776
VWidth: 1024
Flags: HW
LayerCount: 2
Fore
SplineSet
412.858106547 1016 m 1
 315.141635392 1016 l 1
 214.009765625 1142 l 1
 356.099218685 1142 l 1
 412.858106547 1016 l 1
88.0751953125 905.87890625 m 1
 180.109375 890.803710938 l 1
 181.099609375 368 l 2
 181.099609375 101.564453125 198.65625 77 396.859206361 77 c 0
 570.989257812 77 587.944335938 101.697265625 603.579101562 368.297851562 c 2
 603.606445312 368.763671875 l 1
 603.59765625 369.231445312 l 1
 593.419921875 897.696289062 l 1
 705.5546875 904.272460938 l 1
 703.600585938 347.291015625 l 1
 687.702148438 -6.44140625 681.483398438 -15 396.859206361 -15 c 0
 92.9853515625 -15 87.099609375 -6.6865234375 87.099609375 346.979492188 c 2
 88.0751953125 905.87890625 l 1
EndSplineSet
EndChar

StartChar: Uacute
Encoding: 218 218 153
Width: 778
VWidth: 1024
Flags: HW
LayerCount: 2
Fore
SplineSet
451.744071436 1016 m 1
 354.011227097 1016 l 1
 410.75751786 1142 l 1
 552.192382812 1142 l 1
 451.744071436 1016 l 1
87.099609375 903 m 1
 182.086914062 903 l 1
 181.099609375 368 l 2
 181.099609375 101.587890625 198.34375 77 396.545571549 77 c 0
 587.3046875 77 604.599609375 101.799804688 604.599609375 369 c 2
 604.599609375 903 l 1
 704.599609375 903 l 1
 704.599609375 347 l 2
 704.599609375 -6.736328125 698.678710938 -15 396.545571549 -15 c 0
 92.9912109375 -15 87.099609375 -6.708984375 87.099609375 347 c 2
 87.099609375 903 l 1
EndSplineSet
EndChar

StartChar: Ucircumflex
Encoding: 219 219 154
Width: 776
VWidth: 1024
Flags: HW
LayerCount: 2
Fore
SplineSet
370.313413502 1083.609375 m 1
 363.960442486 1078.85644531 l 1
 279.950581077 1016 l 1
 193.213867188 1016 l 1
 308.704368998 1142 l 1
 432.136368858 1142 l 1
 551.764648438 1016 l 1
 460.67715233 1016 l 1
 376.666384518 1078.85644531 l 1
 370.313413502 1083.609375 l 1
88.0751953125 905.87890625 m 1
 180.109375 890.803710938 l 1
 181.099609375 368 l 2
 181.099609375 101.564453125 198.65625 77 396.859206361 77 c 0
 570.989257812 77 587.944335938 101.697265625 603.579101562 368.297851562 c 2
 603.606445312 368.763671875 l 1
 603.59765625 369.231445312 l 1
 593.419921875 897.696289062 l 1
 705.5546875 904.272460938 l 1
 703.600585938 347.291015625 l 1
 687.702148438 -6.44140625 681.483398438 -15 396.859206361 -15 c 0
 92.9853515625 -15 87.099609375 -6.6865234375 87.099609375 346.979492188 c 2
 88.0751953125 905.87890625 l 1
EndSplineSet
EndChar

StartChar: Udieresis
Encoding: 220 220 155
Width: 776
VWidth: 1024
Flags: HW
LayerCount: 2
Fore
SplineSet
528.099858711 1016 m 1
 406.789745732 1016 l 1
 406.789745732 1112 l 1
 528.099858711 1112 l 1
 528.099858711 1016 l 1
335.043502221 1016 m 1
 211.599609375 1016 l 1
 211.599609375 1112 l 1
 335.043502221 1112 l 1
 335.043502221 1016 l 1
88.0751953125 905.87890625 m 1
 180.109375 890.803710938 l 1
 181.099609375 368 l 2
 181.099609375 101.564453125 198.65625 77 396.859206361 77 c 0
 570.989257812 77 587.944335938 101.697265625 603.579101562 368.297851562 c 2
 603.606445312 368.763671875 l 1
 603.59765625 369.231445312 l 1
 593.419921875 897.696289062 l 1
 705.5546875 904.272460938 l 1
 703.600585938 347.291015625 l 1
 687.702148438 -6.44140625 681.483398438 -15 396.859206361 -15 c 0
 92.9853515625 -15 87.099609375 -6.6865234375 87.099609375 346.979492188 c 2
 88.0751953125 905.87890625 l 1
EndSplineSet
EndChar

StartChar: Yacute
Encoding: 221 221 156
Width: 704
VWidth: 1024
Flags: HW
LayerCount: 2
Fore
SplineSet
322.864566998 1031 m 1
 372.193337291 1137.79003906 l 1
 487.435325292 1153.23730469 l 1
 392.103147599 1031 l 1
 322.864566998 1031 l 1
551.8203125 948.59765625 m 1
 649.634765625 922.94140625 l 1
 401.06873701 454.84765625 l 1
 392.552058068 459.459960938 l 1
 392.633186466 439.946289062 l 1
 394.426124063 -2.361328125 l 1
 306.836299823 2.4228515625 l 1
 308.63464598 442.9453125 l 1
 308.715774378 462.4609375 l 1
 300.209912556 457.853515625 l 1
 53.2998046875 924.172851562 l 1
 146.348632812 942.309570312 l 1
 338.57372914 553.310546875 l 1
 348.360518224 533.623046875 l 1
 358.094123137 553.340820312 l 1
 551.8203125 948.59765625 l 1
EndSplineSet
EndChar

StartChar: Thorn
Encoding: 222 222 157
Width: 688
VWidth: 1024
Flags: HW
LayerCount: 2
Fore
SplineSet
125.733398438 12 m 1
 125.37109375 11.9775390625 l 1
 104.8828125 10.736328125 l 1
 79.2998046875 915 l 1
 174.096679688 915 l 1
 174.096679688 742 l 1
 174.096679688 730 l 1
 186.096679688 730 l 1
 414.472129944 730 l 2
 619.079101562 730 620.896484375 729.690429688 620.896484375 489 c 0
 620.896484375 226.912109375 626.422851562 201 361.315706379 201 c 1
 185.842773438 196.997070312 l 1
 174.096679688 196.748046875 l 1
 174.096679688 185 l 1
 174.096679688 12 l 1
 126.096679688 12 l 1
 125.733398438 12 l 1
174.096679688 270 m 1
 186.096679688 270 l 1
 354.358814952 270 l 2
 511.80078125 270 532.896484375 344.165039062 532.896484375 517 c 0
 532.896484375 632.331054688 523.862304688 665 456.905006089 665 c 0
 429.911523583 665 396.477360378 661 345.981679939 661 c 2
 185.817382812 656.997070312 l 1
 174.096679688 656.723632812 l 1
 174.096679688 645 l 1
 174.096679688 282 l 1
 174.096679688 270 l 1
EndSplineSet
EndChar

StartChar: germandbls
Encoding: 223 223 158
Width: 813
VWidth: 1024
Flags: HW
LayerCount: 2
Fore
SplineSet
392.928127906 991 m 0
 491.633594016 991 598.038850143 943.604492188 670.291992188 796.6640625 c 0
 676.469726562 784.30859375 679.040039062 772.26953125 679.040039062 760 c 0
 679.040039062 680.120117188 543.180707708 599.563476562 473.607899369 565.9296875 c 1
 481.047641775 543.375976562 l 2
 482.776408995 543.848632812 491.061306138 545 503.851253453 545 c 2
 507.507486244 545 l 2
 589.165183232 545 755.040039062 515.333007812 755.040039062 353 c 2
 755.040039062 349.071289062 l 2
 752.252929688 113.084960938 456.45849192 28.2255859375 330.006678193 24.146484375 c 1
 329.797907576 30.748046875 329.825377394 35.615234375 329.825377394 43 c 2
 329.825377394 74 l 2
 329.825377394 83.029296875 329.704510194 94.3818359375 329.444462583 99.142578125 c 1
 621.51953125 105.0859375 664.697265625 285.170898438 670.849609375 333 c 1
 675.516601562 333 l 1
 671.662109375 347.98828125 l 2
 633.580078125 496.084960938 511.592248197 502.80859375 308.020751435 502.997070312 c 1
 299.103132814 529.0546875 288.206771629 572.423828125 284.138491566 592.346679688 c 1
 336.647964553 598.680664062 593.113511755 631.953125 593.113511755 762 c 2
 593.113511755 767 l 1
 593.113511755 767.416992188 l 1
 593.086041937 767.833984375 l 2
 588.831882772 832.999023438 494.087564434 920 400.242424809 920 c 0
 373.414484778 920 347.550735362 913.243164062 328.079212622 905.255859375 c 0
 280.269825515 887.153320312 260.743363139 873.6953125 233.283203125 851.51171875 c 2
 231.7421875 850.326171875 l 1
 230.655273438 848.715820312 l 2
 176.571289062 768.629882812 168.799804688 683.357421875 168.799804688 578 c 0
 168.799804688 530.778320312 170.099609375 479.8203125 170.099609375 422 c 0
 170.099609375 298.655273438 177.57421875 159.661132812 189.758789062 24 c 1
 90.70703125 24 l 1
 89.5703125 160.443359375 85.7998046875 295.111328125 85.7998046875 430 c 2
 85.7998046875 549 l 2
 85.7998046875 643.834960938 87.9873046875 749.0625 109.381835938 826.859375 c 0
 123.350585938 878.37109375 243.723063835 991 392.928127906 991 c 0
EndSplineSet
EndChar

StartChar: agrave
Encoding: 224 224 159
Width: 666
VWidth: 1024
Flags: HW
LayerCount: 2
Fore
SplineSet
509.209960938 330.689453125 m 1
 495.2734375 328.90234375 l 2
 488.615234375 328.048828125 479.887695312 328 470.799804688 328 c 0
 435.650882982 328 383.750937349 332.97265625 307.450962838 338.96484375 c 0
 295.197973956 340.006835938 284.282589782 340 273.710656587 340 c 0
 184.702148438 340 166.900390625 294.149414062 166.900390625 158.407226562 c 2
 166.900390625 141.708984375 l 2
 166.900390625 82.6201171875 177.21875 53 252.554429493 53 c 0
 271.680852477 53 296.746593533 54.0693359375 328.660164376 57.224609375 c 0
 435.474301502 67.333984375 484.694335938 62.263671875 503.127929688 128.985351562 c 2
 503.549804688 130.510742188 l 1
 503.594726562 132.096679688 l 1
 508.794921875 316.127929688 l 1
 509.209960938 330.689453125 l 1
167.254882812 525.927734375 m 1
 83.0537109375 547.961914062 l 1
 100.001953125 685.034179688 122.029296875 716 238.450866703 716 c 0
 264.979585319 716 296.570894961 714.020507812 332.808946244 711.036132812 c 0
 549.594726562 692.44140625 568.137695312 703.603515625 584.802734375 486.041992188 c 1
 586.799804688 97.6083984375 l 1
 586.806640625 96.279296875 l 1
 587.0859375 94.982421875 l 2
 593.698242188 64.2041015625 596.2578125 52.1484375 596.799804688 49.22265625 c 0
 596.799804688 48.1884765625 596.799804688 49.1181640625 596.799804688 48.083984375 c 2
 597.416015625 46.1728515625 l 1
 616.553710938 -13.208984375 l 1
 505.34765625 -3.4970703125 529.325195312 -32.19140625 519.668945312 32.7646484375 c 2
 515.373046875 61.666015625 l 1
 498.116210938 38.0869140625 l 2
 469.1015625 -1.5546875 405.65145538 -0.80859375 259.915228479 -15.0380859375 c 0
 221.141601562 -18.0166015625 188.59765625 -20 164.900390625 -20 c 0
 82.65625 -20 81.900390625 2.880859375 81.900390625 119.8671875 c 2
 81.900390625 154.833984375 l 2
 81.900390625 373.58203125 98.2890625 414 195.799804688 414 c 0
 214.958007812 414 233.845703125 413.038085938 255.262306486 411.033203125 c 0
 425.037453139 398.6796875 483.87109375 393.670898438 492.052734375 390.072265625 c 2
 510.359375 376.99609375 l 1
 510.797851562 399.76953125 l 1
 511.797851562 453.8671875 l 1
 511.810546875 454.577148438 l 1
 511.748046875 455.284179688 l 2
 496.65234375 626.55078125 464.670898438 629.241210938 334.550039635 639.846679688 c 0
 315.516321928 641.983398438 299.469479952 642 285.463919882 642 c 0
 208.348632812 642 182.311523438 610.203125 167.254882812 525.927734375 c 1
348.060288654 801 m 1
 253.386128263 801 l 1
 173.828125 913.208007812 l 1
 293.12579029 926.197265625 l 1
 348.060288654 801 l 1
EndSplineSet
EndChar

StartChar: aacute
Encoding: 225 225 160
Width: 658
VWidth: 1024
Flags: HW
LayerCount: 2
Fore
SplineSet
511.602539062 317.08203125 m 1
 500.857421875 318.16796875 l 2
 500.620117188 318.19140625 327.89599418 337 263.717781717 337 c 0
 177.858398438 337 159.423828125 298.162109375 149.034179688 155.420898438 c 2
 149 154.947265625 l 1
 149 154.47265625 l 2
 149 148.716796875 147.700195312 141.415039062 147.700195312 132.5703125 c 0
 147.700195312 66.8935546875 182.5390625 46 239.305574546 46 c 0
 265.663422839 46 293.792258653 49.1845703125 329.913243279 53.3662109375 c 0
 415.944114381 63.658203125 497.197265625 85.5673828125 512.666992188 152.586914062 c 2
 513.012695312 154.086914062 l 1
 512.999023438 155.62890625 l 1
 511.69921875 305.822265625 l 1
 511.602539062 317.08203125 l 1
159.944335938 566.778320312 m 1
 87.4638671875 588.415039062 l 1
 103.66015625 672.444335938 123.819335938 714 275.342725443 714 c 0
 292.376691212 714 310.951975016 713.009765625 330.600505202 712.015625 c 0
 549.190429688 698.641601562 560.365234375 705.6796875 577.0390625 486.604492188 c 0
 585.991210938 372.430664062 588 238.216796875 588 136.024414062 c 0
 588 64.4072265625 586.900390625 7.5732421875 586.346679688 -16.5009765625 c 1
 539.200195312 -10.8955078125 528.1484375 -10.1640625 523.865234375 -8.8037109375 c 1
 522.88671875 -2.9169921875 523.139648438 10.8740234375 519.87890625 33.697265625 c 2
 515.809570312 62.185546875 l 1
 498.434570312 39.2451171875 l 2
 468.194335938 -0.6787109375 402.429418686 0.1982421875 258.041539663 -14.0546875 c 0
 239.78150561 -16.0185546875 220.36328125 -17 202.599609375 -17 c 0
 114.024414062 -17 76.7001953125 10.498046875 76.7001953125 157.330078125 c 0
 76.7001953125 403.790039062 101.647460938 409.609375 254.685570707 413.639648438 c 1
 430.442109855 408.478515625 497.693359375 404.318359375 497.693359375 404.318359375 c 1
 511.723632812 403.459960938 l 1
 510.342773438 417.97265625 l 2
 494.904296875 580.220703125 513.53125 638.51171875 331.570705959 640.8828125 c 0
 304.533455155 643.061523438 287.689861812 644 270.693446567 644 c 0
 207.126953125 644 180.612304688 623.177734375 159.944335938 566.778320312 c 1
371.548042109 801 m 1
 277.366960686 801 l 1
 332.050130095 927 l 1
 472.29296875 927 l 1
 371.548042109 801 l 1
EndSplineSet
EndChar

StartChar: acircumflex
Encoding: 226 226 161
Width: 658
VWidth: 1024
Flags: HW
LayerCount: 2
Fore
SplineSet
511.602539062 317.08203125 m 1
 500.857421875 318.16796875 l 2
 500.620117188 318.19140625 327.89599418 337 263.717781717 337 c 0
 177.858398438 337 159.423828125 298.162109375 149.034179688 155.420898438 c 2
 149 154.947265625 l 1
 149 154.47265625 l 2
 149 148.716796875 147.700195312 141.415039062 147.700195312 132.5703125 c 0
 147.700195312 66.8935546875 182.5390625 46 239.305574546 46 c 0
 265.663422839 46 293.792258653 49.1845703125 329.913243279 53.3662109375 c 0
 415.944114381 63.658203125 497.197265625 85.5673828125 512.666992188 152.586914062 c 2
 513.012695312 154.086914062 l 1
 512.999023438 155.62890625 l 1
 511.69921875 305.822265625 l 1
 511.602539062 317.08203125 l 1
159.944335938 566.778320312 m 1
 87.4638671875 588.415039062 l 1
 103.66015625 672.444335938 123.819335938 714 275.342725443 714 c 0
 292.376691212 714 310.951975016 713.009765625 330.600505202 712.015625 c 0
 549.190429688 698.641601562 560.365234375 705.6796875 577.0390625 486.604492188 c 0
 585.991210938 372.430664062 588 238.216796875 588 136.024414062 c 0
 588 64.4072265625 586.900390625 7.5732421875 586.346679688 -16.5009765625 c 1
 539.200195312 -10.8955078125 528.1484375 -10.1640625 523.865234375 -8.8037109375 c 1
 522.88671875 -2.9169921875 523.139648438 10.8740234375 519.87890625 33.697265625 c 2
 515.809570312 62.185546875 l 1
 498.434570312 39.2451171875 l 2
 468.194335938 -0.6787109375 402.429418686 0.1982421875 258.041539663 -14.0546875 c 0
 239.78150561 -16.0185546875 220.36328125 -17 202.599609375 -17 c 0
 114.024414062 -17 76.7001953125 10.498046875 76.7001953125 157.330078125 c 0
 76.7001953125 403.790039062 101.647460938 409.609375 254.685570707 413.639648438 c 1
 430.442109855 408.478515625 497.693359375 404.318359375 497.693359375 404.318359375 c 1
 511.723632812 403.459960938 l 1
 510.342773438 417.97265625 l 2
 494.904296875 580.220703125 513.53125 638.51171875 331.570705959 640.8828125 c 0
 304.533455155 643.061523438 287.689861812 644 270.693446567 644 c 0
 207.126953125 644 180.612304688 623.177734375 159.944335938 566.778320312 c 1
318.35554119 867.537109375 m 1
 312.298554284 862.90625 l 1
 231.337877238 801 l 1
 145.247070312 801 l 1
 259.092954345 927 l 1
 377.758724184 927 l 1
 493.6015625 801 l 1
 405.372331873 801 l 1
 324.412528095 862.905273438 l 1
 318.35554119 867.537109375 l 1
EndSplineSet
EndChar

StartChar: atilde
Encoding: 227 227 162
Width: 658
VWidth: 1024
Flags: HW
LayerCount: 2
Fore
SplineSet
511.602539062 317.08203125 m 1
 500.857421875 318.16796875 l 2
 500.620117188 318.19140625 327.89599418 337 263.717781717 337 c 0
 177.858398438 337 159.423828125 298.162109375 149.034179688 155.420898438 c 2
 149 154.947265625 l 1
 149 154.47265625 l 2
 149 148.716796875 147.700195312 141.415039062 147.700195312 132.5703125 c 0
 147.700195312 66.8935546875 182.5390625 46 239.305574546 46 c 0
 265.663422839 46 293.792258653 49.1845703125 329.913243279 53.3662109375 c 0
 415.944114381 63.658203125 497.197265625 85.5673828125 512.666992188 152.586914062 c 2
 513.012695312 154.086914062 l 1
 512.999023438 155.62890625 l 1
 511.69921875 305.822265625 l 1
 511.602539062 317.08203125 l 1
159.944335938 566.778320312 m 1
 87.4638671875 588.415039062 l 1
 103.66015625 672.444335938 123.819335938 714 275.342725443 714 c 0
 292.376691212 714 310.951975016 713.009765625 330.600505202 712.015625 c 0
 549.190429688 698.641601562 560.365234375 705.6796875 577.0390625 486.604492188 c 0
 585.991210938 372.430664062 588 238.216796875 588 136.024414062 c 0
 588 64.4072265625 586.900390625 7.5732421875 586.346679688 -16.5009765625 c 1
 539.200195312 -10.8955078125 528.1484375 -10.1640625 523.865234375 -8.8037109375 c 1
 522.88671875 -2.9169921875 523.139648438 10.8740234375 519.87890625 33.697265625 c 2
 515.809570312 62.185546875 l 1
 498.434570312 39.2451171875 l 2
 468.194335938 -0.6787109375 402.429418686 0.1982421875 258.041539663 -14.0546875 c 0
 239.78150561 -16.0185546875 220.36328125 -17 202.599609375 -17 c 0
 114.024414062 -17 76.7001953125 10.498046875 76.7001953125 157.330078125 c 0
 76.7001953125 403.790039062 101.647460938 409.609375 254.685570707 413.639648438 c 1
 430.442109855 408.478515625 497.693359375 404.318359375 497.693359375 404.318359375 c 1
 511.723632812 403.459960938 l 1
 510.342773438 417.97265625 l 2
 494.904296875 580.220703125 513.53125 638.51171875 331.570705959 640.8828125 c 0
 304.533455155 643.061523438 287.689861812 644 270.693446567 644 c 0
 207.126953125 644 180.612304688 623.177734375 159.944335938 566.778320312 c 1
264.880974704 875 m 0
 235.201214907 875 228.9765625 851.765625 228.35546875 801 c 1
 152.736328125 801 l 1
 153.646484375 927.163085938 162.814453125 937 255.580670416 937 c 0
 376.034019868 937 305.998798873 848 407.867258573 848 c 0
 437.436523438 848 443.529296875 872.978515625 444.04296875 922 c 1
 516.963867188 922 l 1
 516.044921875 795.580078125 506.778320312 786 416.005243142 786 c 0
 296.718579749 786 365.629904817 875 264.880974704 875 c 0
EndSplineSet
EndChar

StartChar: adieresis
Encoding: 228 228 163
Width: 658
VWidth: 1024
Flags: HW
LayerCount: 2
Fore
SplineSet
511.602539062 317.08203125 m 1
 500.857421875 318.16796875 l 2
 500.620117188 318.19140625 327.89599418 337 263.717781717 337 c 0
 177.858398438 337 159.423828125 298.162109375 149.034179688 155.420898438 c 2
 149 154.947265625 l 1
 149 154.47265625 l 2
 149 148.716796875 147.700195312 141.415039062 147.700195312 132.5703125 c 0
 147.700195312 66.8935546875 182.5390625 46 239.305574546 46 c 0
 265.663422839 46 293.792258653 49.1845703125 329.913243279 53.3662109375 c 0
 415.944114381 63.658203125 497.197265625 85.5673828125 512.666992188 152.586914062 c 2
 513.012695312 154.086914062 l 1
 512.999023438 155.62890625 l 1
 511.69921875 305.822265625 l 1
 511.602539062 317.08203125 l 1
159.944335938 566.778320312 m 1
 87.4638671875 588.415039062 l 1
 103.66015625 672.444335938 123.819335938 714 275.342725443 714 c 0
 292.376691212 714 310.951975016 713.009765625 330.600505202 712.015625 c 0
 549.190429688 698.641601562 560.365234375 705.6796875 577.0390625 486.604492188 c 0
 585.991210938 372.430664062 588 238.216796875 588 136.024414062 c 0
 588 64.4072265625 586.900390625 7.5732421875 586.346679688 -16.5009765625 c 1
 539.200195312 -10.8955078125 528.1484375 -10.1640625 523.865234375 -8.8037109375 c 1
 522.88671875 -2.9169921875 523.139648438 10.8740234375 519.87890625 33.697265625 c 2
 515.809570312 62.185546875 l 1
 498.434570312 39.2451171875 l 2
 468.194335938 -0.6787109375 402.429418686 0.1982421875 258.041539663 -14.0546875 c 0
 239.78150561 -16.0185546875 220.36328125 -17 202.599609375 -17 c 0
 114.024414062 -17 76.7001953125 10.498046875 76.7001953125 157.330078125 c 0
 76.7001953125 403.790039062 101.647460938 409.609375 254.685570707 413.639648438 c 1
 430.442109855 408.478515625 497.693359375 404.318359375 497.693359375 404.318359375 c 1
 511.723632812 403.459960938 l 1
 510.342773438 417.97265625 l 2
 494.904296875 580.220703125 513.53125 638.51171875 331.570705959 640.8828125 c 0
 304.533455155 643.061523438 287.689861812 644 270.693446567 644 c 0
 207.126953125 644 180.612304688 623.177734375 159.944335938 566.778320312 c 1
252.512879903 800.3671875 m 1
 140.114257812 793.68359375 l 1
 135.3125 895.31640625 l 1
 258.060751559 888.661132812 l 1
 252.512879903 800.3671875 l 1
510.388671875 793.657226562 m 1
 384.463675951 800.362304688 l 1
 390.008927804 888.607421875 l 1
 505.584960938 895.344726562 l 1
 510.388671875 793.657226562 l 1
EndSplineSet
EndChar

StartChar: aring
Encoding: 229 229 164
Width: 658
VWidth: 1024
Flags: HW
LayerCount: 2
Fore
SplineSet
511.602539062 317.08203125 m 1
 500.857421875 318.16796875 l 2
 500.620117188 318.19140625 327.89599418 337 263.717781717 337 c 0
 177.858398438 337 159.423828125 298.162109375 149.034179688 155.420898438 c 2
 149 154.947265625 l 1
 149 154.47265625 l 2
 149 148.716796875 147.700195312 141.415039062 147.700195312 132.5703125 c 0
 147.700195312 66.8935546875 182.5390625 46 239.305574546 46 c 0
 265.663422839 46 293.792258653 49.1845703125 329.913243279 53.3662109375 c 0
 415.944114381 63.658203125 497.197265625 85.5673828125 512.666992188 152.586914062 c 2
 513.012695312 154.086914062 l 1
 512.999023438 155.62890625 l 1
 511.69921875 305.822265625 l 1
 511.602539062 317.08203125 l 1
159.944335938 566.778320312 m 1
 87.4638671875 588.415039062 l 1
 103.66015625 672.444335938 123.819335938 714 275.342725443 714 c 0
 292.376691212 714 310.951975016 713.009765625 330.600505202 712.015625 c 0
 549.190429688 698.641601562 560.365234375 705.6796875 577.0390625 486.604492188 c 0
 585.991210938 372.430664062 588 238.216796875 588 136.024414062 c 0
 588 64.4072265625 586.900390625 7.5732421875 586.346679688 -16.5009765625 c 1
 539.200195312 -10.8955078125 528.1484375 -10.1640625 523.865234375 -8.8037109375 c 1
 522.88671875 -2.9169921875 523.139648438 10.8740234375 519.87890625 33.697265625 c 2
 515.809570312 62.185546875 l 1
 498.434570312 39.2451171875 l 2
 468.194335938 -0.6787109375 402.429418686 0.1982421875 258.041539663 -14.0546875 c 0
 239.78150561 -16.0185546875 220.36328125 -17 202.599609375 -17 c 0
 114.024414062 -17 76.7001953125 10.498046875 76.7001953125 157.330078125 c 0
 76.7001953125 403.790039062 101.647460938 409.609375 254.685570707 413.639648438 c 1
 430.442109855 408.478515625 497.693359375 404.318359375 497.693359375 404.318359375 c 1
 511.723632812 403.459960938 l 1
 510.342773438 417.97265625 l 2
 494.904296875 580.220703125 513.53125 638.51171875 331.570705959 640.8828125 c 0
 304.533455155 643.061523438 287.689861812 644 270.693446567 644 c 0
 207.126953125 644 180.612304688 623.177734375 159.944335938 566.778320312 c 1
318.35554119 801 m 0
 220.82421875 801 226.299804688 797.920898438 226.299804688 876 c 0
 226.299804688 949.5625 226.318359375 951 318.35554119 951 c 0
 409.908085908 951 409.923804732 949.559570312 409.923804732 876 c 0
 409.923804732 797.892578125 414.813232311 801 318.35554119 801 c 0
269.262160301 876 m 0
 269.262160301 836.751953125 280.38148185 827 318.35554119 827 c 0
 356.330473797 827 367.44804881 836.75390625 367.44804881 876 c 0
 367.44804881 914.580078125 355.340187876 925 318.35554119 925 c 0
 281.370894504 925 269.262160301 914.580078125 269.262160301 876 c 0
EndSplineSet
EndChar

StartChar: ae
Encoding: 230 230 165
Width: 1106
VWidth: 1024
Flags: HW
LayerCount: 2
Fore
SplineSet
951.900390625 387.740234375 m 1
 951.900390625 400 l 2
 951.900390625 416.401367188 953.200195312 432.274414062 953.200195312 447 c 0
 953.200195312 600.802734375 917.208984375 640 772.688150342 640 c 2
 753.711391248 640 l 2
 644.859102964 636.86328125 611.838467932 625.18359375 611.838467932 422 c 2
 611.838467932 407 l 1
 611.838467932 395.254882812 l 1
 623.168551419 395.002929688 l 1
 939.642578125 388.002929688 l 1
 951.900390625 387.740234375 l 1
527.508309776 317.08203125 m 1
 517.140303405 318.16796875 l 2
 516.911327167 318.19140625 338.162864332 337 268.912157776 337 c 0
 180.458007812 337 162.0234375 298.162109375 151.633789062 155.420898438 c 2
 151.599609375 154.947265625 l 1
 151.599609375 154.47265625 l 2
 151.599609375 148.716796875 150.299804688 141.415039062 150.299804688 132.5703125 c 0
 150.299804688 66.8935546875 185.138671875 46 242.5704675 46 c 0
 271.010635481 46 301.363650225 49.1845703125 340.338609738 53.3662109375 c 0
 433.169157376 63.658203125 513.608604061 85.5673828125 528.535404836 152.586914062 c 2
 528.868975159 154.086914062 l 1
 528.855783112 155.62890625 l 1
 527.601596392 305.822265625 l 1
 527.508309776 317.08203125 l 1
800.284969627 39 m 2
 899.896484375 39 932.563476562 59.8583984375 968.998046875 143.807617188 c 1
 1047.53808594 123.588867188 l 1
 1004.54785156 -2.35546875 977.477539062 -20 802.793343067 -20 c 2
 790.329685858 -20 l 2
 648.929791642 -18.984375 595.076088096 -15.55078125 568.127563674 39.4345703125 c 2
 556.548715879 63.05859375 l 1
 552.192513621 51.7724609375 l 1
 541.195058167 33.3017578125 l 2
 518.793078392 -4.3271484375 417.932343505 -7.7470703125 261.532149969 -22.0546875 c 0
 242.148322008 -23.986328125 223.400390625 -24 205.200195312 -24 c 0
 116.624023438 -24 79.2998046875 3.396484375 79.2998046875 149.686523438 c 0
 79.2998046875 395.23828125 104.247070312 401.036132812 259.165119886 405.051757812 c 1
 448.813982404 399.91015625 514.087286897 395.764648438 514.087286897 395.764648438 c 1
 527.625153618 394.909179688 l 1
 526.292756907 409.368164062 l 2
 511.397051671 571.018554688 529.369330642 629.094726562 342.127074347 631.45703125 c 0
 312.9528632 633.627929688 294.778934373 634.5625 276.438220385 634.5625 c 0
 209.897460938 634.5625 183.380859375 614.372070312 162.508789062 555.651367188 c 1
 90.0830078125 577.204101562 l 1
 106.5234375 664.799804688 126.829101562 706.932617188 281.455909554 706.932617188 c 0
 299.820180768 706.932617188 319.910725514 705.907226562 341.054749413 704.881835938 c 0
 470.628916104 697.552734375 528.121739945 692.40625 551.90700004 662.673828125 c 2
 561.164047626 651.102539062 l 1
 569.86043323 663.162109375 l 2
 597.681517308 701.737304688 659.561638946 705.873046875 790.336281881 707.965820312 c 0
 813.044505596 707.965820312 833.355545979 709 851.714163459 709 c 0
 1005.08886719 709 1023.20019531 690.571289062 1023.20019531 524.38671875 c 0
 1023.20019531 473.473632812 1021.3125 405.489257812 1018.59375 324.651367188 c 1
 883.060350857 317.478515625 753.648257882 312.712890625 622.912248798 306.573242188 c 2
 611.522801102 306.038085938 l 1
 611.843179377 293.7890625 l 2
 618.173477187 51.955078125 650.491164591 40.0703125 790.249591289 39 c 2
 800.284969627 39 l 2
EndSplineSet
EndChar

StartChar: ccedilla
Encoding: 231 231 166
Width: 657
VWidth: 1024
Flags: HW
LayerCount: 2
Fore
SplineSet
398.331019059 -162 m 0
 398.331019059 -117.588867188 384.773986327 -104 343.430537546 -104 c 0
 320.609910827 -104 309.446271546 -106.071289062 301.281141243 -117.028320312 c 1
 278.31032712 -105.735351562 l 1
 305.690713271 -31.580078125 l 1
 311.780288581 -15.0859375 l 1
 295.824623303 -15 l 2
 100.974609375 -13.9951171875 78 -2.52734375 78 348 c 0
 78 718.830078125 102.9296875 711 336.456428282 711 c 0
 590.30859375 711 588.900390625 688.797851562 588.900390625 507 c 2
 588.900390625 478.102539062 l 1
 501.900390625 492.2109375 l 1
 501.900390625 508 l 2
 501.900390625 620.466796875 487.0234375 645 336.456428282 645 c 0
 201.53515625 645 173 632.366210938 173 347.872070312 c 0
 173 69.482421875 201.678710938 57 336.456428282 57 c 0
 451.637695312 57 488.155273438 73.736328125 497.950195312 158.848632812 c 1
 589.112304688 142.143554688 l 1
 577.68359375 3.701171875 552.225585938 -15 342.268331532 -15 c 2
 334.985115635 -15 l 1
 332.296586473 -22.5703125 l 1
 319.510573959 -58.5703125 l 1
 311.249393573 -81.8291015625 l 1
 332.638000861 -74.4697265625 l 2
 335.839961381 -73.3671875 343.372034313 -73 355.054344046 -73 c 0
 444.139648438 -73 450.599609375 -80.03515625 450.599609375 -162 c 0
 450.599609375 -240.900390625 442.62890625 -248 343.430537546 -248 c 0
 277.618766517 -248 268.381368007 -242.784179688 252.600339245 -206.760742188 c 1
 286.467598779 -184.098632812 l 1
 299.443965096 -212.4921875 313.758920307 -219 339.943919505 -219 c 0
 382.937683362 -219 398.331019059 -206.366210938 398.331019059 -162 c 0
EndSplineSet
EndChar

StartChar: egrave
Encoding: 232 232 167
Width: 635
VWidth: 1024
Flags: HW
LayerCount: 2
Fore
SplineSet
481 391.740234375 m 1
 481 404 l 2
 481 420.401367188 482.299804688 436.274414062 482.299804688 451 c 0
 482.299804688 604.802734375 446.309570312 644 311.443373362 644 c 2
 293.940184026 644 l 2
 188.920898438 640.86328125 154.700195312 629.18359375 154.700195312 426 c 2
 154.700195312 411 l 1
 154.700195312 399.254882812 l 1
 166.442382812 399.002929688 l 1
 468.7421875 392.002929688 l 1
 481 391.740234375 l 1
339.20999002 42 m 2
 431.447265625 42 464.203125 61.806640625 500.696289062 145.807617188 c 1
 579.23828125 125.588867188 l 1
 536.248046875 -0.35546875 509.177734375 -18 341.524454154 -18 c 2
 329.999065914 -18 l 2
 107.092773438 -15.9697265625 83.666015625 -23.9921875 77.7001953125 355.407226562 c 0
 77.7001953125 380.34375 76.7001953125 402.302734375 76.7001953125 424.590820312 c 0
 76.7001953125 709.65234375 109.321289062 704.884765625 330.067726322 710 c 0
 350.933537413 710 369.736059787 711 386.646509903 711 c 0
 536.135742188 711 554.299804688 692.627929688 554.299804688 525.33984375 c 0
 554.299804688 474.889648438 552.374023438 406.475585938 549.692382812 326.629882812 c 1
 415.223145553 319.467773438 296.012163935 314.689453125 168.775390625 308.55078125 c 2
 156.97265625 308.015625 l 1
 157.3046875 295.766601562 l 2
 163.8671875 53.8681640625 197.456054688 43.0693359375 329.95474084 42 c 2
 339.20999002 42 l 2
382.514717754 801 m 1
 290.913042239 801 l 1
 194.172851562 922.966796875 l 1
 325.848153144 903.85546875 l 1
 382.514717754 801 l 1
EndSplineSet
EndChar

StartChar: eacute
Encoding: 233 233 168
Width: 635
VWidth: 1024
Flags: HW
LayerCount: 2
Fore
SplineSet
481 391.740234375 m 1
 481 404 l 2
 481 420.401367188 482.299804688 436.274414062 482.299804688 451 c 0
 482.299804688 604.802734375 446.309570312 644 311.443373362 644 c 2
 293.940184026 644 l 2
 188.920898438 640.86328125 154.700195312 629.18359375 154.700195312 426 c 2
 154.700195312 411 l 1
 154.700195312 399.254882812 l 1
 166.442382812 399.002929688 l 1
 468.7421875 392.002929688 l 1
 481 391.740234375 l 1
339.20999002 42 m 2
 431.447265625 42 464.203125 61.806640625 500.696289062 145.807617188 c 1
 579.23828125 125.588867188 l 1
 536.248046875 -0.35546875 509.177734375 -18 341.524454154 -18 c 2
 329.999065914 -18 l 2
 107.092773438 -15.9697265625 83.666015625 -23.9921875 77.7001953125 355.407226562 c 0
 77.7001953125 380.34375 76.7001953125 402.302734375 76.7001953125 424.590820312 c 0
 76.7001953125 709.65234375 109.321289062 704.884765625 330.067726322 710 c 0
 350.933537413 710 369.736059787 711 386.646509903 711 c 0
 536.135742188 711 554.299804688 692.627929688 554.299804688 525.33984375 c 0
 554.299804688 474.889648438 552.374023438 406.475585938 549.692382812 326.629882812 c 1
 415.223145553 319.467773438 296.012163935 314.689453125 168.775390625 308.55078125 c 2
 156.97265625 308.015625 l 1
 157.3046875 295.766601562 l 2
 163.8671875 53.8681640625 197.456054688 43.0693359375 329.95474084 42 c 2
 339.20999002 42 l 2
396.291124435 801 m 1
 303.044206484 801 l 1
 356.644518948 925.09375 l 1
 463.884765625 897.528320312 l 1
 396.291124435 801 l 1
EndSplineSet
EndChar

StartChar: ecircumflex
Encoding: 234 234 169
Width: 635
VWidth: 1024
Flags: HW
LayerCount: 2
Fore
SplineSet
481 391.740234375 m 1
 481 404 l 2
 481 420.401367188 482.299804688 436.274414062 482.299804688 451 c 0
 482.299804688 604.802734375 446.309570312 644 311.443373362 644 c 2
 293.940184026 644 l 2
 188.920898438 640.86328125 154.700195312 629.18359375 154.700195312 426 c 2
 154.700195312 411 l 1
 154.700195312 399.254882812 l 1
 166.442382812 399.002929688 l 1
 468.7421875 392.002929688 l 1
 481 391.740234375 l 1
339.20999002 42 m 2
 431.447265625 42 464.203125 61.806640625 500.696289062 145.807617188 c 1
 579.23828125 125.588867188 l 1
 536.248046875 -0.35546875 509.177734375 -18 341.524454154 -18 c 2
 329.999065914 -18 l 2
 107.092773438 -15.9697265625 83.666015625 -23.9921875 77.7001953125 355.407226562 c 0
 77.7001953125 380.34375 76.7001953125 402.302734375 76.7001953125 424.590820312 c 0
 76.7001953125 709.65234375 109.321289062 704.884765625 330.067726322 710 c 0
 350.933537413 710 369.736059787 711 386.646509903 711 c 0
 536.135742188 711 554.299804688 692.627929688 554.299804688 525.33984375 c 0
 554.299804688 474.889648438 552.374023438 406.475585938 549.692382812 326.629882812 c 1
 415.223145553 319.467773438 296.012163935 314.689453125 168.775390625 308.55078125 c 2
 156.97265625 308.015625 l 1
 157.3046875 295.766601562 l 2
 163.8671875 53.8681640625 197.456054688 43.0693359375 329.95474084 42 c 2
 339.20999002 42 l 2
344.245666022 867.223632812 m 1
 338.3895416 863.321289062 l 1
 244.881018804 801 l 1
 169.071289062 801 l 1
 284.132175106 926.317382812 l 1
 370.705127571 913.541992188 l 1
 503.341796875 801 l 1
 431.110351562 801 l 1
 349.866259172 862.90625 l 1
 344.245666022 867.223632812 l 1
EndSplineSet
EndChar

StartChar: edieresis
Encoding: 235 235 170
Width: 635
VWidth: 1024
Flags: HW
LayerCount: 2
Fore
SplineSet
481 391.740234375 m 1
 481 404 l 2
 481 420.401367188 482.299804688 436.274414062 482.299804688 451 c 0
 482.299804688 604.802734375 446.309570312 644 311.443373362 644 c 2
 293.940184026 644 l 2
 188.920898438 640.86328125 154.700195312 629.18359375 154.700195312 426 c 2
 154.700195312 411 l 1
 154.700195312 399.254882812 l 1
 166.442382812 399.002929688 l 1
 468.7421875 392.002929688 l 1
 481 391.740234375 l 1
339.20999002 42 m 2
 431.447265625 42 464.203125 61.806640625 500.696289062 145.807617188 c 1
 579.23828125 125.588867188 l 1
 536.248046875 -0.35546875 509.177734375 -18 341.524454154 -18 c 2
 329.999065914 -18 l 2
 107.092773438 -15.9697265625 83.666015625 -23.9921875 77.7001953125 355.407226562 c 0
 77.7001953125 380.34375 76.7001953125 402.302734375 76.7001953125 424.590820312 c 0
 76.7001953125 709.65234375 109.321289062 704.884765625 330.067726322 710 c 0
 350.933537413 710 369.736059787 711 386.646509903 711 c 0
 536.135742188 711 554.299804688 692.627929688 554.299804688 525.33984375 c 0
 554.299804688 474.889648438 552.374023438 406.475585938 549.692382812 326.629882812 c 1
 415.223145553 319.467773438 296.012163935 314.689453125 168.775390625 308.55078125 c 2
 156.97265625 308.015625 l 1
 157.3046875 295.766601562 l 2
 163.8671875 53.8681640625 197.456054688 43.0693359375 329.95474084 42 c 2
 339.20999002 42 l 2
308.862089667 800.834960938 m 1
 197.200195312 799.153320312 l 1
 188.875976562 896 l 1
 308.862089667 896 l 1
 308.862089667 800.834960938 l 1
492.299804688 801 m 1
 378.43420363 801 l 1
 383.914868606 888.63671875 l 1
 492.299804688 895.27734375 l 1
 492.299804688 801 l 1
EndSplineSet
EndChar

StartChar: igrave
Encoding: 236 236 171
Width: 312
VWidth: 1024
Flags: HW
LayerCount: 2
Fore
SplineSet
219.102539062 685 m 1
 219.102539062 12 l 1
 133.102539062 12 l 1
 133.102539062 685 l 1
 219.102539062 685 l 1
208.813476562 801 m 1
 132.560546875 801 l 1
 49.400390625 927 l 1
 161.7734375 927 l 1
 208.813476562 801 l 1
EndSplineSet
EndChar

StartChar: iacute
Encoding: 237 237 172
Width: 301
VWidth: 1024
Flags: HW
LayerCount: 2
Fore
SplineSet
175.700195312 685 m 1
 175.700195312 12 l 1
 89.7001953125 12 l 1
 89.7001953125 685 l 1
 175.700195312 685 l 1
176.2421875 801 m 1
 99.9892578125 801 l 1
 147.029296875 927 l 1
 259.40234375 927 l 1
 176.2421875 801 l 1
EndSplineSet
EndChar

StartChar: icircumflex
Encoding: 238 238 173
Width: 410
VWidth: 1024
Flags: HW
LayerCount: 2
Fore
SplineSet
239.391601562 685 m 1
 239.391601562 12 l 1
 153.391601562 12 l 1
 153.391601562 685 l 1
 239.391601562 685 l 1
196.446289062 869.006835938 m 1
 188.48046875 862.0234375 l 1
 118.875976562 801 l 1
 48.099609375 801 l 1
 147.219726562 927 l 1
 245.533203125 927 l 1
 343.8125 801 l 1
 272.954101562 801 l 1
 204.364257812 861.96875 l 1
 196.446289062 869.006835938 l 1
EndSplineSet
EndChar

StartChar: idieresis
Encoding: 239 239 174
Width: 419
VWidth: 1024
Flags: HW
LayerCount: 2
Fore
SplineSet
256.5 685 m 1
 256.5 12 l 1
 170.5 12 l 1
 170.5 685 l 1
 256.5 685 l 1
153.5 801 m 1
 58.5 801 l 1
 58.5 896 l 1
 153.5 896 l 1
 153.5 801 l 1
367.5 801 m 1
 272.5 801 l 1
 272.5 896 l 1
 367.5 896 l 1
 367.5 801 l 1
EndSplineSet
EndChar

StartChar: eth
Encoding: 240 240 175
Width: 652
VWidth: 1024
Flags: HW
LayerCount: 2
Fore
SplineSet
398.766224355 852.287109375 m 2
 358.536147863 815.385742188 320.648818159 781.591796875 303.914165758 766.73046875 c 1
 273.082955889 822.112304688 l 1
 325.997320402 879.366210938 l 1
 338.425465784 892.813476562 l 1
 322.151695886 899.305664062 l 2
 255.119864303 926.046875 161.5546875 959.80078125 137.674804688 968.131835938 c 1
 118.826171875 1052.57226562 l 1
 175.018554688 1033.02929688 312.548089399 981.955078125 372.265916042 961.522460938 c 2
 372.811308191 961.336914062 l 1
 373.369768842 961.215820312 l 2
 377.064669968 960.419921875 381.998465082 958.624023438 385.120094588 956.60546875 c 2
 392.191896626 952.032226562 l 1
 397.997796438 958.467773438 l 1
 468.334960938 1031.63378906 l 1
 532.008789062 976.1640625 l 1
 519.170898438 962.6640625 497.923828125 940.51171875 471.010742188 913.463867188 c 2
 462.880859375 905.29296875 l 1
 470.71875 896.840820312 l 2
 510.594726562 853.836914062 545.759765625 799.661132812 557.946289062 762.163085938 c 0
 570.416992188 725.396484375 582.317382812 523.727539062 582.317382812 346.153320312 c 0
 582.317382812 215.637695312 575.0078125 96.3388671875 561.477539062 66.6708984375 c 0
 528.216796875 -5.5849609375 388.961362937 -15 294.206882488 -15 c 0
 99.5576171875 -15 75.4345703125 23.9609375 75.41796875 347.6640625 c 1
 92.41015625 671.952148438 116.831054688 711 294.206882488 711 c 2
 308.123965862 711 l 2
 388.330589908 711 409.140872459 710.573242188 490.734375 675.909179688 c 2
 508.998046875 668.362304688 l 1
 507.271484375 688.048828125 l 2
 501.884765625 749.461914062 460.565429688 813.71875 412.073444303 852.51171875 c 2
 405.340552083 858.317382812 l 1
 398.766224355 852.287109375 l 2
499.317382812 279.013671875 m 2
 499.317382812 429.564453125 l 1
 492.690429688 602.852539062 455.1171875 641 339.438710304 641 c 0
 215.017578125 641 187.336914062 591.678710938 170.44921875 348.883789062 c 2
 170.41796875 348.431640625 l 1
 170.41796875 347.978515625 l 2
 170.41796875 105.411132812 198.525390625 56 339.438710304 56 c 0
 458.022460938 56 495.356445312 95.74609375 499.317382812 279.013671875 c 2
75.400390625 347.3515625 m 2
 75.40625 347.458984375 75.41796875 347.567382812 75.41796875 347.67578125 c 2
 75.41796875 348 l 1
 75.400390625 347.3515625 l 2
EndSplineSet
EndChar

StartChar: ntilde
Encoding: 241 241 176
Width: 605
VWidth: 1024
Flags: HW
LayerCount: 2
Fore
SplineSet
536.002929688 -15.7451171875 m 1
 449.181640625 -7.1494140625 l 1
 458.081054688 479.890625 l 1
 458.081054688 495 l 2
 458.081054688 598.061523438 419.46484375 607 296.916563435 607 c 0
 240.565429688 607 200.15625 604.490234375 176.943359375 581.532226562 c 2
 173.407226562 578.034179688 l 1
 173.381835938 573.061523438 l 1
 170.435546875 -5.375 l 1
 88.400390625 -15.4365234375 l 1
 89.3623046875 715.4453125 l 1
 173.381835938 698.553710938 l 1
 173.381835938 692.23828125 l 1
 173.381835938 673.108398438 l 1
 190.275390625 680.91015625 l 2
 227.436523438 698.071289062 280.59818901 704.645507812 361.228833829 704.645507812 c 0
 518.272460938 704.645507812 532.096679688 702.495117188 533.081054688 496.750976562 c 2
 536.002929688 -15.7451171875 l 1
226.681640625 848 m 0
 226.681640625 840.125 227.653320312 824.389648438 227.905273438 806.217773438 c 1
 162.381835938 801.830078125 l 1
 162.415039062 929.998046875 159.833984375 937 244.802050942 937 c 0
 360.044375229 937 303.222014631 844 401.881835938 844 c 2
 413.581054688 844 l 2
 436.43359375 844 438.581054688 862.8828125 438.581054688 898 c 2
 438.581054688 904.64453125 l 1
 494.01953125 918.591796875 l 1
 492.8671875 795.026367188 482.8828125 786 400.581054688 786 c 0
 282.877980282 786 349.880687581 875 253.6721632 875 c 0
 247.987261692 875 240.887695312 876.10546875 233.540039062 869.49609375 c 0
 226.287109375 862.97265625 226.681640625 854.521484375 226.681640625 848 c 0
EndSplineSet
EndChar

StartChar: ograve
Encoding: 242 242 177
Width: 672
VWidth: 1024
Flags: HW
LayerCount: 2
Fore
SplineSet
340.70703125 -15 m 0
 73.0048828125 -15 78.0068359375 23.9638671875 78.0068359375 348 c 0
 78.0068359375 718.751953125 102.8515625 711 340.70703125 711 c 0
 608.41015625 711 603.407226562 672.036132812 603.407226562 348 c 0
 603.407226562 -22.751953125 578.5625 -15 340.70703125 -15 c 0
173.006835938 347.979492188 m 0
 173.006835938 99.013671875 178.490234375 47 340.70703125 47 c 0
 479.818359375 47 508.407226562 59.5888671875 508.407226562 347.979492188 c 0
 508.407226562 597.965820312 502.942382812 650 340.70703125 650 c 0
 201.635742188 650 173.006835938 638.448242188 173.006835938 347.979492188 c 0
381.979492188 801 m 1
 287.30078125 801 l 1
 190.326171875 927 l 1
 326.916992188 927 l 1
 381.979492188 801 l 1
EndSplineSet
EndChar

StartChar: oacute
Encoding: 243 243 178
Width: 672
VWidth: 1024
Flags: HW
LayerCount: 2
Fore
SplineSet
340.70703125 -15 m 0
 73.0048828125 -15 78.0068359375 23.9638671875 78.0068359375 348 c 0
 78.0068359375 718.751953125 102.8515625 711 340.70703125 711 c 0
 608.41015625 711 603.407226562 672.036132812 603.407226562 348 c 0
 603.407226562 -22.751953125 578.5625 -15 340.70703125 -15 c 0
173.006835938 347.979492188 m 0
 173.006835938 99.013671875 178.490234375 47 340.70703125 47 c 0
 479.818359375 47 508.407226562 59.5888671875 508.407226562 347.979492188 c 0
 508.407226562 597.965820312 502.942382812 650 340.70703125 650 c 0
 201.635742188 650 173.006835938 638.448242188 173.006835938 347.979492188 c 0
394.112304688 801 m 1
 299.434570312 801 l 1
 354.49609375 927 l 1
 491.087890625 927 l 1
 394.112304688 801 l 1
EndSplineSet
EndChar

StartChar: ocircumflex
Encoding: 244 244 179
Width: 642
VWidth: 1024
Flags: HW
LayerCount: 2
Fore
SplineSet
326.33203125 -15 m 0
 73.3603515625 -15 78.005859375 23.62890625 78.005859375 348 c 0
 78.005859375 719.081054688 102.178710938 711 326.33203125 711 c 0
 578.119140625 711 573.505859375 672.40234375 573.505859375 348 c 0
 573.505859375 -23.1474609375 550.29296875 -15 326.33203125 -15 c 0
160.005859375 347.979492188 m 0
 160.005859375 99.0625 165.435546875 47 326.33203125 47 c 0
 463.015625 47 491.505859375 59.67578125 491.505859375 347.979492188 c 0
 491.505859375 597.8671875 486.1484375 650 326.33203125 650 c 0
 188.5859375 650 160.005859375 638.405273438 160.005859375 347.979492188 c 0
322.916992188 865.569335938 m 1
 316.872070312 860.905273438 l 1
 236.627929688 799 l 1
 152.352539062 799 l 1
 264.170898438 925 l 1
 381.63671875 925 l 1
 494.82421875 799 l 1
 408.008789062 799 l 1
 328.935546875 860.861328125 l 1
 322.916992188 865.569335938 l 1
EndSplineSet
EndChar

StartChar: otilde
Encoding: 245 245 180
Width: 641
VWidth: 1024
Flags: HW
LayerCount: 2
Fore
SplineSet
264.112304688 875 m 0
 234.6953125 875 228.282226562 851.765625 227.662109375 801 c 1
 155.04296875 801 l 1
 155.853515625 926.336914062 164.97265625 937 254.89453125 937 c 0
 374.333007812 937 304.708984375 848 404.681640625 848 c 0
 435.997070312 848 442.73046875 871.234375 443.350585938 922 c 1
 511.469726562 922 l 1
 510.641601562 796.206054688 501.334960938 786 413.899414062 786 c 0
 294.461914062 786 364.0859375 875 264.112304688 875 c 0
326.33203125 -15 m 0
 73.3603515625 -15 78.005859375 23.62890625 78.005859375 348 c 0
 78.005859375 719.081054688 102.178710938 711 326.33203125 711 c 0
 578.119140625 711 573.505859375 672.40234375 573.505859375 348 c 0
 573.505859375 -23.1474609375 550.29296875 -15 326.33203125 -15 c 0
160.005859375 347.979492188 m 0
 160.005859375 99.0625 165.435546875 47 326.33203125 47 c 0
 463.015625 47 491.505859375 59.67578125 491.505859375 347.979492188 c 0
 491.505859375 597.8671875 486.1484375 650 326.33203125 650 c 0
 188.5859375 650 160.005859375 638.405273438 160.005859375 347.979492188 c 0
EndSplineSet
EndChar

